<?xml version="1.0" encoding="UTF-8" standalone="no"?><!DOCTYPE svg PUBLIC "-//W3C//DTD SVG 1.1//EN" "http://www.w3.org/Graphics/SVG/1.1/DTD/svg11.dtd"><svg xmlns="http://www.w3.org/2000/svg" xmlns:xlink="http://www.w3.org/1999/xlink" version="1.1" width="512" height="512" viewBox="0 0 512 512" xml:space="preserve">
<desc>Created with Fabric.js 6.5.1</desc>
<defs>
</defs>
<g transform="matrix(1 0 0 1 256.5 256.5)" id="nonInteractiveBackground">
<rect style="stroke: none; stroke-width: 1; stroke-dasharray: none; stroke-linecap: butt; stroke-dashoffset: 0; stroke-linejoin: miter; stroke-miterlimit: 4; fill: rgb(255,249,239); fill-rule: nonzero; opacity: 1;" x="-256" y="-256" rx="0" ry="0" width="512" height="512"/>
</g>
<g transform="matrix(2.7146 0 0 2.7146 256.5076 256.5077)">
<path style="stroke: none; stroke-width: 1; stroke-dasharray: none; stroke-linecap: butt; stroke-dashoffset: 0; stroke-linejoin: miter; stroke-miterlimit: 4; fill: rgb(211,211,255); fill-rule: nonzero; opacity: 1;" transform=" translate(-100.05, -100)" d="M 172.8 138.9 C 179 127.3 182.6 114.1 182.6 100 C 182.6 54.4 145.7 17.5 100.1 17.5 C 54.5 17.5 17.5 54.4 17.5 100 C 17.5 145.6 54.4 182.5 100 182.5 C 114.1 182.5 127.3 179 138.9 172.7 L 172.7 172.7 L 172.7 138.9 Z" stroke-linecap="round"/>
</g>
<g transform="matrix(0.7982 0 0 0.7982 258.5153 256.5154)">
<g style="">
		<g transform="matrix(2.5 0 0 2.5 0 0)">
<path style="stroke: none; stroke-width: 0.6395; stroke-dasharray: none; stroke-linecap: butt; stroke-dashoffset: 0; stroke-linejoin: miter; stroke-miterlimit: 4; fill: rgb(0,0,0); fill-rule: nonzero; opacity: 1;" transform=" translate(-100, -100)" d="M 100.1419 40.0059 C 80.9076 40.0038 65.1141 40.008 65.0457 40.0155 C 64.9774 40.0226 64.7534 40.0525 64.5478 40.082 C 64.3427 40.1111 63.9906 40.1762 63.7655 40.2267 C 63.5408 40.2768 63.1486 40.386 62.8944 40.4696 C 62.6401 40.5531 62.2721 40.6893 62.0765 40.7722 C 61.8809 40.8547 61.5396 41.0186 61.3177 41.1363 C 61.0962 41.254 60.7281 41.4737 60.4998 41.6245 C 60.2719 41.7753 59.9174 42.0331 59.7119 42.1981 C 59.5067 42.3627 59.1543 42.6813 58.9292 42.9064 C 58.7041 43.1315 58.3855 43.4835 58.2208 43.6891 C 58.0558 43.8943 57.797 44.2506 57.6448 44.4807 C 57.4926 44.7107 57.2807 45.0628 57.1733 45.263 C 57.0659 45.4632 56.903 45.8031 56.8109 46.0182 C 56.7192 46.2333 56.5759 46.6174 56.4923 46.8716 C 56.4088 47.1258 56.2996 47.5177 56.2495 47.7428 C 56.1993 47.9675 56.1328 48.3196 56.1019 48.5251 C 56.0709 48.7303 56.0311 49.1943 56.013 49.5563 C 55.9938 49.9481 55.9806 70.3408 55.9806 99.9786 C 55.9806 129.6157 55.9938 150.0089 56.013 150.4009 C 56.0311 150.7626 56.0709 151.2266 56.1019 151.4321 C 56.1328 151.6373 56.199 151.9894 56.2491 152.2144 C 56.2989 152.4391 56.4169 152.8552 56.5115 153.1389 C 56.6061 153.4227 56.7704 153.8487 56.8774 154.0859 C 56.9841 154.3234 57.1558 154.6672 57.259 154.8504 C 57.3621 155.0339 57.5562 155.3471 57.6903 155.547 C 57.8243 155.7465 58.0658 156.0747 58.2269 156.2759 C 58.3879 156.4768 58.7044 156.8253 58.9299 157.0504 C 59.1553 157.2751 59.5041 157.5913 59.7047 157.7527 C 59.9056 157.9141 60.2334 158.1556 60.4329 158.2893 C 60.6327 158.4226 60.9723 158.6299 61.1874 158.7494 C 61.4026 158.8689 61.7706 159.0495 62.0053 159.1505 C 62.24 159.2518 62.64 159.403 62.8943 159.4869 C 63.1485 159.5708 63.5407 159.6803 63.7654 159.7305 C 63.9905 159.7806 64.3426 159.8471 64.5477 159.878 C 64.7533 159.9089 65.2173 159.9488 65.5789 159.9669 C 65.9679 159.9861 80.8589 159.9997 102.0266 160 C 123.0382 160 138.0221 159.9868 138.3143 159.968 C 138.5881 159.9502 138.9747 159.9026 139.1734 159.8621 C 139.3722 159.8215 139.6844 159.7397 139.8668 159.68 C 140.0496 159.6207 140.3671 159.4915 140.5723 159.3938 C 140.7778 159.2956 141.1299 159.0936 141.3546 158.945 C 141.659 158.7437 141.8823 158.5553 142.2276 158.2093 C 142.5675 157.8686 142.7649 157.6339 142.9636 157.3349 C 143.113 157.1098 143.3153 156.7578 143.4134 156.5526 C 143.5112 156.3471 143.6403 156.0299 143.6997 155.8471 C 143.7594 155.6647 143.8412 155.3525 143.8821 155.1537 C 143.9226 154.955 143.9703 154.5606 143.9877 154.2769 C 144.0062 153.9771 144.0194 132.0738 144.0194 101.9877 C 144.0194 71.1367 144.0059 49.9486 143.9866 49.5566 C 143.9685 49.1946 143.9287 48.7305 143.8977 48.5254 C 143.8667 48.3198 143.8006 47.9678 143.7505 47.7431 C 143.7007 47.518 143.5827 47.1019 143.4881 46.8185 C 143.3935 46.5348 143.2285 46.107 143.1208 45.8681 C 143.013 45.6287 142.8409 45.2845 142.7378 45.1035 C 142.6347 44.9222 142.4416 44.6103 142.3082 44.4105 C 142.1749 44.211 141.9338 43.8828 141.7727 43.6816 C 141.6113 43.4807 141.2952 43.1311 141.0697 42.9054 C 140.8447 42.6792 140.4926 42.3606 140.2875 42.197 C 140.0823 42.0334 139.7263 41.7749 139.4963 41.6227 C 139.2662 41.4705 138.9142 41.2583 138.714 41.1509 C 138.5157 41.0337 138.164 40.8666 137.9401 40.7691 C 137.7099 40.6717 137.3454 40.5341 137.1279 40.463 C 136.9041 40.3922 136.5651 40.2941 136.3669 40.2457 C 136.1686 40.197 135.8041 40.122 135.561 40.0786 L 135.1166 40 Z M 101.3598 43.9835 L 134.7229 43.9938 L 135.0252 44.0553 C 135.1916 44.0891 135.4892 44.1637 135.6869 44.2213 C 135.8846 44.2793 136.1947 44.3906 136.376 44.4692 C 136.5574 44.5481 136.8351 44.6879 136.9926 44.7803 C 137.1505 44.8731 137.4083 45.0438 137.5658 45.1601 C 137.7234 45.276 137.994 45.5089 138.1675 45.6768 C 138.341 45.845 138.5924 46.1234 138.7265 46.2955 C 138.8602 46.4676 139.0508 46.7428 139.1496 46.9067 C 139.2488 47.0707 139.4 47.3633 139.486 47.5568 C 139.5717 47.7502 139.6819 48.0432 139.7314 48.2078 C 139.7804 48.3725 139.8459 48.6271 139.8764 48.7739 C 139.9074 48.9204 139.9482 49.1846 139.9674 49.3606 C 139.9905 49.5701 140.0026 64.3113 140.0026 91.978 C 140.0026 119.6447 139.9905 134.3855 139.9674 134.5953 C 139.9482 134.7713 139.9073 135.0352 139.8764 135.182 C 139.8458 135.3285 139.7804 135.5835 139.7314 135.7481 C 139.682 135.9127 139.5717 136.2057 139.486 136.3992 C 139.3999 136.5926 139.2488 136.8852 139.1496 137.0492 C 139.0508 137.2131 138.8598 137.4883 138.7254 137.6604 C 138.5913 137.8325 138.3478 138.1035 138.1846 138.2628 C 138.0213 138.4221 137.7703 138.6415 137.627 138.751 C 137.484 138.8602 137.233 139.0305 137.0694 139.1294 C 136.9059 139.2282 136.6136 139.379 136.4202 139.465 C 136.2267 139.5507 135.9337 139.661 135.7691 139.7104 C 135.6045 139.7594 135.3499 139.8249 135.203 139.8555 C 135.0565 139.8864 134.7923 139.9273 134.6163 139.9465 C 134.4076 139.9696 122.7758 139.9821 101.1464 139.9821 L 67.9988 139.9761 L 67.9988 43.9672 Z M 139.9768 142.0128 C 139.9914 142.0108 140.0035 143.3531 140.0035 144.9959 L 140.0035 147.9825 L 71.7833 147.9825 L 71.5084 148.0529 C 71.3569 148.0917 71.1507 148.1674 71.0497 148.2218 C 70.9483 148.2758 70.7517 148.4324 70.6123 148.5693 C 70.453 148.7257 70.3193 148.8975 70.2525 149.0315 C 70.1938 149.1489 70.1166 149.3327 70.0807 149.4404 C 70.0352 149.5763 70.0153 149.7395 70.0153 149.9738 C 70.0156 150.1918 70.038 150.3874 70.0786 150.525 C 70.1134 150.6423 70.1906 150.8262 70.2503 150.9339 C 70.3101 151.0413 70.421 151.2038 70.4967 151.2948 C 70.5728 151.3858 70.7425 151.5338 70.8744 151.6237 C 71.0063 151.7133 71.2083 151.82 71.3238 151.8606 C 71.439 151.9008 71.6631 151.9488 71.8217 151.9669 C 71.9977 151.9872 85.3154 152.0003 106.0616 152.0003 L 140.0131 152.0006 L 140.001 153.183 L 139.9885 154.3653 L 139.9103 154.5989 C 139.8673 154.7276 139.7702 154.9275 139.6945 155.0434 C 139.6188 155.1593 139.4943 155.3165 139.4182 155.3926 C 139.3421 155.4687 139.1849 155.5931 139.069 155.6689 C 138.9531 155.7446 138.7532 155.8424 138.6245 155.8858 L 138.3909 155.9654 L 102.0321 155.9744 C 69.3335 155.9824 65.6305 155.9784 65.2468 155.9285 C 65.0121 155.8979 64.6921 155.8407 64.5356 155.8008 C 64.3792 155.7606 64.0993 155.6714 63.9134 155.6021 C 63.7277 155.5328 63.4639 155.4204 63.3277 155.3517 C 63.1915 155.2834 62.9753 155.1622 62.8477 155.0825 C 62.72 155.0028 62.4914 154.8439 62.3395 154.7294 C 62.1877 154.6149 61.9285 154.3863 61.7635 154.2213 C 61.5985 154.0563 61.3688 153.7967 61.2529 153.6445 C 61.1369 153.4924 60.9766 153.2605 60.8962 153.1293 C 60.8158 152.9977 60.6957 152.7823 60.6295 152.65 C 60.563 152.5173 60.4521 152.257 60.3827 152.0714 C 60.3134 151.8855 60.2241 151.6056 60.1843 151.4492 C 60.1445 151.2927 60.0869 150.9759 60.0567 150.7451 C 60.0268 150.5143 60.0019 150.1815 60.0019 150.0058 C 60.0019 149.8302 60.019 149.5308 60.04 149.3409 C 60.0609 149.151 60.1097 148.8516 60.1484 148.6756 C 60.1872 148.4996 60.2679 148.2115 60.3276 148.0355 C 60.3874 147.8595 60.515 147.5533 60.611 147.3553 C 60.7074 147.1572 60.8752 146.861 60.9844 146.6975 C 61.0936 146.5339 61.2728 146.29 61.3826 146.1552 C 61.4922 146.0208 61.7265 145.7761 61.9032 145.6115 C 62.0799 145.4465 62.3683 145.209 62.5444 145.0828 C 62.7204 144.9569 63.0724 144.7503 63.3267 144.624 C 63.5809 144.4978 63.94 144.3453 64.1242 144.2852 C 64.3088 144.2255 64.6128 144.1408 64.7998 144.0974 L 65.1401 144.0188 L 99.9518 143.9985 C 126.94 143.9825 134.8319 143.9683 135.066 143.9349 C 135.2324 143.911 135.5205 143.8666 135.7061 143.8357 C 135.8921 143.8047 136.2519 143.7262 136.5061 143.6611 C 136.7604 143.596 137.1103 143.4926 137.2838 143.4311 C 137.4574 143.3692 137.7696 143.2469 137.9772 143.1587 C 138.1852 143.0709 138.5355 142.9016 138.7559 142.7825 C 138.9764 142.6637 139.3363 142.4425 139.556 142.2914 C 139.7758 142.1399 139.9674 142.0144 139.982 142.0123 Z M 103.9449 49.9504 C 103.7045 49.9529 103.388 49.9686 103.2412 49.9849 C 103.0947 50.0016 102.8067 50.0482 102.6011 50.0887 C 102.3959 50.1293 102.0357 50.2263 101.801 50.3039 C 101.5664 50.3817 101.1823 50.5393 100.9476 50.6541 C 100.713 50.769 100.3769 50.9581 100.2009 51.0741 C 100.0249 51.1903 99.7607 51.3809 99.6138 51.4983 C 99.4666 51.6153 99.2188 51.8393 99.0627 51.9954 C 98.9062 52.1519 98.6882 52.3908 98.578 52.5263 C 98.4678 52.6618 98.2882 52.9064 98.179 53.07 C 98.0699 53.2332 97.891 53.5425 97.7811 53.757 C 97.6716 53.9714 97.5209 54.3096 97.4462 54.5087 C 97.3715 54.7078 97.2695 55.0385 97.219 55.244 C 97.1685 55.4492 97.103 55.7874 97.0728 55.9954 C 97.0419 56.2116 97.0188 56.6145 97.0191 56.9377 C 97.0195 57.2481 97.0426 57.6723 97.0703 57.8811 C 97.0981 58.0895 97.1606 58.4173 97.2094 58.61 C 97.2581 58.8024 97.3487 59.1039 97.411 59.28 C 97.4728 59.456 97.5994 59.76 97.6915 59.9556 C 97.7836 60.1511 97.9419 60.4441 98.0428 60.6063 C 98.1435 60.7688 98.3184 61.0245 98.4311 61.1745 C 98.5442 61.3246 98.7867 61.6044 98.9709 61.7965 C 99.1551 61.9881 99.4431 62.2544 99.611 62.3881 C 99.7788 62.5218 100.0555 62.7217 100.2251 62.8319 C 100.3947 62.9425 100.725 63.1253 100.9586 63.2387 C 101.1923 63.3518 101.5215 63.4915 101.6901 63.5488 L 101.9966 63.6526 L 101.9966 66.972 L 101.7743 66.9212 C 101.652 66.8931 101.4081 66.8284 101.2321 66.7775 C 101.0561 66.7263 100.736 66.6164 100.5209 66.5329 C 100.3058 66.4493 100.0057 66.3234 99.8538 66.2538 C 99.702 66.1837 99.4459 66.0511 99.2849 65.9586 C 99.1238 65.8665 98.8639 65.7086 98.7074 65.6077 C 98.5509 65.5067 98.2391 65.2563 98.014 65.0515 C 97.7893 64.8467 97.4433 64.4964 97.2456 64.2731 C 97.0479 64.0498 96.7563 63.6939 96.5973 63.4823 C 96.4384 63.2704 96.2176 62.9504 96.1066 62.7712 C 95.996 62.5916 95.8126 62.3068 95.6991 62.1379 C 95.5861 61.9693 95.3617 61.6653 95.201 61.4622 C 95.0402 61.2596 94.6914 60.8762 94.4258 60.6102 C 94.1635 60.3455 93.7785 59.995 93.5726 59.8319 C 93.368 59.6688 93.0111 59.4111 92.7815 59.2589 C 92.5513 59.1067 92.1976 58.8937 91.9949 58.785 C 91.7934 58.6769 91.4628 58.5157 91.2607 58.4275 C 91.0592 58.3392 90.6927 58.1972 90.4472 58.1122 C 90.2003 58.0265 89.7993 57.9069 89.555 57.8468 C 89.3107 57.786 88.9106 57.7045 88.666 57.6654 C 88.4217 57.6267 88.0295 57.5783 87.7948 57.558 C 87.5601 57.5381 87.0001 57.5214 86.5503 57.5211 C 86.1005 57.5207 85.5006 57.5043 85.2168 57.4844 C 84.9334 57.4645 84.4694 57.424 84.1856 57.3941 C 83.9022 57.3639 83.4126 57.3006 83.0983 57.2536 C 82.7836 57.2064 82.2797 57.1182 81.9782 57.0577 C 81.6766 56.9973 81.2005 56.8917 80.9203 56.8237 C 80.6401 56.7555 80.1679 56.6292 79.8713 56.5432 C 79.5748 56.4568 79.0972 56.3064 78.8103 56.2086 C 78.5237 56.1104 78.0276 55.9277 77.7079 55.8018 C 77.3886 55.6759 76.9274 55.4818 76.6828 55.3697 C 76.4385 55.2581 76.0698 55.0967 75.8636 55.011 C 75.6573 54.9253 75.3611 54.8211 75.2057 54.7795 C 75.0301 54.7322 74.7676 54.697 74.5137 54.6867 C 74.2118 54.6739 74.0408 54.6846 73.8598 54.7268 C 73.7254 54.7585 73.5014 54.8431 73.362 54.9153 C 73.1924 55.0035 73.0213 55.1351 72.8425 55.315 C 72.696 55.4625 72.5221 55.6745 72.4567 55.7865 C 72.3909 55.8985 72.2963 56.0905 72.2465 56.2132 C 72.1967 56.3359 72.126 56.5485 72.089 56.6854 C 72.052 56.8223 72.0129 57.1182 72.0019 57.3432 C 71.9876 57.637 71.9983 57.8524 72.0399 58.1078 C 72.0719 58.3033 72.1395 58.6472 72.1896 58.8723 C 72.2397 59.097 72.361 59.5287 72.4588 59.8309 C 72.5569 60.1332 72.7084 60.5482 72.7959 60.7527 C 72.8834 60.9575 73.0327 61.2803 73.1284 61.4706 C 73.2237 61.6609 73.3847 61.9581 73.4864 62.1313 C 73.5881 62.3044 73.7798 62.606 73.9124 62.8016 C 74.0451 62.9971 74.294 63.3332 74.4654 63.5483 C 74.6368 63.7634 75.0322 64.1937 75.3437 64.5048 L 75.9105 65.0698 L 75.9201 65.6782 C 75.9262 66.0665 75.9567 66.4698 76.005 66.7948 C 76.0463 67.0743 76.1266 67.4825 76.1835 67.7015 C 76.2401 67.9205 76.3375 68.2431 76.3994 68.4184 C 76.4616 68.5937 76.5811 68.8927 76.6654 69.0826 C 76.7496 69.2725 76.9182 69.601 77.0398 69.813 C 77.1614 70.0245 77.3381 70.3097 77.4327 70.4466 C 77.5273 70.5835 77.7115 70.8292 77.8427 70.9928 C 77.9736 71.156 78.2392 71.4476 78.4333 71.6407 C 78.6271 71.8337 78.9329 72.1093 79.1122 72.253 C 79.2917 72.397 79.5588 72.5947 79.7053 72.6925 C 79.8521 72.7906 80.0843 72.9357 80.2216 73.0154 L 80.4709 73.1601 L 80.6977 74.026 C 80.8225 74.5021 81.0121 75.1631 81.1191 75.4952 C 81.2261 75.8274 81.3854 76.2676 81.4725 76.4731 C 81.56 76.679 81.7047 76.983 81.794 77.1494 C 81.8832 77.3158 82.0361 77.5715 82.1339 77.7184 C 82.2314 77.8649 82.3843 78.08 82.4735 78.1963 C 82.5624 78.3122 82.7562 78.5291 82.9038 78.6781 C 83.0513 78.8271 83.2956 79.0468 83.446 79.1663 C 83.5968 79.2854 83.8614 79.4707 84.0342 79.5777 C 84.207 79.6844 84.4353 79.816 84.5416 79.8697 C 84.6476 79.9237 84.9054 80.0364 85.1145 80.1204 C 85.3232 80.2043 85.6649 80.322 85.8729 80.3814 C 86.0813 80.4411 86.439 80.5289 86.6677 80.5766 C 86.8966 80.6242 87.2757 80.6886 87.5104 80.7195 C 87.7451 80.7508 88.1867 80.7917 88.4918 80.8105 C 88.8559 80.8333 89.1219 80.8329 89.2652 80.8102 C 89.3854 80.7906 89.8221 80.6548 90.2356 80.5079 C 90.6488 80.3611 91.3127 80.1374 91.7106 80.0108 C 92.1085 79.8842 92.7105 79.7025 93.0479 79.6069 C 93.3857 79.5112 93.9821 79.3523 94.3732 79.2534 C 94.7644 79.1546 95.4655 78.9921 95.9317 78.8925 C 96.3979 78.7926 97.2029 78.6397 97.721 78.5522 C 98.2388 78.4647 99.0417 78.3456 99.505 78.2877 C 99.968 78.2297 100.6031 78.1589 100.916 78.1301 C 101.2289 78.1017 101.6009 78.0683 101.7427 78.0562 L 102.0005 78.0341 L 102.0005 81.0548 L 101.725 81.0783 C 101.5735 81.0911 101.1614 81.1334 100.8093 81.1725 C 100.4573 81.2113 99.8478 81.297 99.4549 81.3628 C 99.0616 81.4285 98.4827 81.5402 98.1677 81.6103 C 97.853 81.6807 97.2944 81.8243 96.9267 81.9299 C 96.5587 82.0352 96.042 82.2002 95.7778 82.2965 C 95.514 82.3929 95.1139 82.5494 94.8889 82.6439 C 94.6641 82.7389 94.2705 82.9234 94.0149 83.0543 C 93.7588 83.1851 93.3858 83.3939 93.1853 83.5187 C 92.9848 83.6435 92.6502 83.8725 92.4414 84.0275 C 92.2327 84.1826 91.8618 84.5108 91.6175 84.7565 C 91.3728 85.0022 91.0688 85.3514 90.9419 85.5324 C 90.8146 85.7134 90.6346 86.0096 90.5418 86.1902 C 90.449 86.3712 90.3164 86.693 90.247 86.9057 C 90.1777 87.118 90.0959 87.454 90.0657 87.6524 C 90.0255 87.9148 90.0156 88.162 90.0291 88.5638 C 90.0436 88.988 90.0685 89.1985 90.1382 89.4773 C 90.188 89.6768 90.2854 89.9808 90.3548 90.1529 C 90.4241 90.3254 90.555 90.5942 90.6456 90.7506 C 90.7363 90.9071 90.8981 91.1549 91.0055 91.3018 C 91.1125 91.4483 91.402 91.769 91.6488 92.0141 C 91.8955 92.2591 92.2497 92.5741 92.4353 92.7138 C 92.6213 92.8539 92.9413 93.0741 93.1465 93.2028 C 93.352 93.3319 93.8004 93.5783 94.1432 93.7507 C 94.486 93.9228 95.002 94.1565 95.29 94.2699 L 95.8138 94.4758 L 95.4642 94.8385 C 95.2722 95.038 95.0158 95.3491 94.8949 95.5301 C 94.7737 95.7111 94.6126 95.9899 94.5365 96.1495 C 94.4608 96.3092 94.3509 96.5759 94.2926 96.7423 C 94.2339 96.9083 94.1599 97.1725 94.1276 97.329 C 94.0952 97.4855 94.0533 97.7614 94.0348 97.9424 C 94.0085 98.1934 94.0131 98.3666 94.0533 98.6713 C 94.0824 98.8914 94.1468 99.2232 94.1969 99.4085 C 94.2467 99.5941 94.3445 99.8903 94.4138 100.0663 C 94.4832 100.2427 94.6286 100.5453 94.7371 100.7383 C 94.8451 100.9314 95.051 101.2454 95.1943 101.4356 C 95.3376 101.6259 95.6146 101.9335 95.8099 102.1191 C 96.0051 102.3047 96.3095 102.5557 96.4866 102.677 C 96.6636 102.7982 96.9346 102.9646 97.0882 103.0468 L 97.3681 103.1965 L 97.0975 103.5208 C 96.9488 103.6993 96.7486 103.977 96.6533 104.1377 C 96.558 104.2988 96.4247 104.5651 96.3575 104.7298 C 96.2906 104.8948 96.195 105.1849 96.1452 105.3751 C 96.0737 105.6479 96.051 105.837 96.0375 106.2719 C 96.0225 106.7434 96.0311 106.8771 96.0965 107.1964 C 96.1388 107.4016 96.2355 107.7259 96.312 107.9169 C 96.3884 108.1078 96.5161 108.3756 96.5957 108.5121 C 96.6754 108.6483 96.8343 108.8844 96.9488 109.0363 C 97.0633 109.1881 97.3154 109.4658 97.5089 109.6536 C 97.7023 109.8413 97.9957 110.0945 98.1599 110.2168 C 98.3246 110.3388 98.6094 110.5269 98.7929 110.635 C 98.976 110.7427 99.2772 110.9017 99.4614 110.9877 C 99.6459 111.0738 99.9446 111.1997 100.1253 111.2672 C 100.3059 111.3348 100.558 111.4219 100.685 111.4607 C 100.8123 111.4998 101.1242 111.5812 101.3784 111.6413 C 101.6326 111.7014 101.8759 111.7583 101.9189 111.7672 L 101.9971 111.7839 L 102.0078 114.0685 L 102.0185 116.3528 L 102.1127 116.6109 C 102.1646 116.7532 102.2563 116.9452 102.3164 117.0376 C 102.3765 117.1304 102.4732 117.2563 102.5312 117.3178 C 102.5895 117.3793 102.7058 117.4853 102.7901 117.5536 C 102.874 117.6219 103.0265 117.72 103.129 117.7712 C 103.2314 117.8224 103.4152 117.8882 103.5379 117.917 C 103.6606 117.9462 103.8728 117.9696 104.0097 117.9696 C 104.1466 117.9696 104.3611 117.9454 104.4862 117.9159 C 104.6114 117.8864 104.8208 117.806 104.9517 117.737 C 105.0829 117.6684 105.2749 117.529 105.3784 117.4277 C 105.4819 117.3263 105.6213 117.161 105.6881 117.0604 C 105.7546 116.9601 105.8524 116.7595 105.905 116.6152 L 106.001 116.3527 L 106.0117 114.0685 L 106.0224 111.7838 L 106.1006 111.766 C 106.1436 111.756 106.331 111.7155 106.5166 111.6753 C 106.7026 111.6348 107.018 111.5544 107.2175 111.4965 C 107.4174 111.4386 107.7214 111.3372 107.8931 111.2717 C 108.0652 111.2059 108.3604 111.0801 108.5496 110.9915 C 108.7387 110.9033 109.0435 110.7426 109.2266 110.6349 C 109.4101 110.5268 109.6953 110.3387 109.8606 110.2167 C 110.026 110.0948 110.319 109.8412 110.5113 109.6535 C 110.7041 109.4657 110.9555 109.188 111.0703 109.0362 C 111.1852 108.8843 111.3441 108.6482 111.4238 108.512 C 111.5035 108.3755 111.6311 108.1077 111.7075 107.9168 C 111.7839 107.7258 111.8793 107.4072 111.9195 107.2084 C 111.9693 106.9634 111.9928 106.7106 111.9928 106.4218 C 111.9928 106.1879 111.9686 105.8582 111.9391 105.6893 C 111.9096 105.5204 111.8381 105.2342 111.7805 105.0535 C 111.7226 104.8729 111.6027 104.5834 111.5145 104.4103 C 111.426 104.2371 111.2816 103.9939 111.193 103.8701 C 111.1046 103.746 110.9455 103.5437 110.8403 103.421 L 110.6486 103.1977 L 110.9299 103.0477 C 111.0846 102.9648 111.3552 102.7984 111.5312 102.6779 C 111.7072 102.5573 112.0056 102.3127 112.1944 102.1338 C 112.3832 101.9553 112.6488 101.6655 112.7846 101.4898 C 112.9205 101.3138 113.116 101.0258 113.2195 100.8498 C 113.3233 100.6734 113.4727 100.3769 113.5516 100.1913 C 113.6305 100.0053 113.7369 99.7094 113.7877 99.5334 C 113.8385 99.3574 113.9062 99.0694 113.9378 98.8934 C 113.9695 98.7173 113.994 98.4051 113.9922 98.2 C 113.9902 97.9838 113.9594 97.6755 113.9186 97.4671 C 113.8795 97.2698 113.7984 96.9604 113.738 96.7805 C 113.6776 96.6002 113.5644 96.3193 113.4866 96.1557 C 113.4084 95.9925 113.2458 95.7109 113.1246 95.5299 C 113.0037 95.3489 112.748 95.0381 112.5563 94.8393 L 112.2086 94.478 L 112.7316 94.2707 C 113.0197 94.1569 113.5509 93.9148 113.9129 93.7331 C 114.2749 93.5514 114.7866 93.2594 115.0508 93.0845 C 115.315 92.9092 115.6595 92.6621 115.8171 92.5348 C 115.9746 92.4075 116.2818 92.118 116.4998 91.8911 C 116.7298 91.6518 117.0008 91.3222 117.1462 91.1046 C 117.2842 90.8983 117.4602 90.5986 117.5377 90.4378 C 117.6149 90.2775 117.7191 90.0204 117.7685 89.8671 C 117.8183 89.7139 117.8873 89.4578 117.9218 89.2982 C 117.9687 89.0806 117.984 88.848 117.9836 88.368 C 117.9829 87.8865 117.9669 87.655 117.9189 87.4338 C 117.8837 87.2721 117.8097 87.0057 117.7542 86.8418 C 117.6987 86.6779 117.5871 86.4119 117.5057 86.2512 C 117.4246 86.0901 117.3009 85.8686 117.2308 85.7587 C 117.1604 85.6488 117.0295 85.4628 116.9396 85.3455 C 116.85 85.2281 116.6491 84.9995 116.4937 84.837 C 116.3383 84.6748 116.0819 84.433 115.9244 84.2994 C 115.7665 84.166 115.4614 83.9367 115.2463 83.7898 C 115.0311 83.6433 114.6795 83.4221 114.4644 83.2987 C 114.2496 83.1753 113.8816 82.9837 113.6465 82.8724 C 113.4118 82.7614 113.0274 82.5943 112.7927 82.5015 C 112.558 82.4083 112.1082 82.2469 111.7932 82.1424 C 111.4778 82.0378 110.9099 81.8725 110.5308 81.775 C 110.1514 81.6772 109.5892 81.5489 109.2813 81.4891 C 108.9734 81.4294 108.4613 81.3409 108.143 81.2925 C 107.8252 81.2445 107.2495 81.1723 106.864 81.1329 C 106.4782 81.093 106.1305 81.0607 106.0906 81.0607 L 106.0188 81.0607 L 106.0188 78.0322 L 106.2944 78.0549 C 106.4459 78.0677 106.8982 78.1101 107.2989 78.1492 C 107.7 78.1886 108.3297 78.2598 108.6985 78.3078 C 109.0673 78.3558 109.7873 78.4656 110.2987 78.552 C 110.81 78.6385 111.5724 78.7818 111.9927 78.8703 C 112.413 78.9592 113.1092 79.1192 113.5395 79.2259 C 113.9697 79.3326 114.6834 79.5242 115.1257 79.6515 C 115.5681 79.7792 116.2882 80.0025 116.7259 80.1483 C 117.1636 80.2941 117.7862 80.5063 118.1088 80.6201 L 118.6955 80.8267 L 119.1631 80.8206 C 119.4205 80.8174 119.8045 80.7975 120.0165 80.7762 C 120.2288 80.7552 120.5705 80.7136 120.7757 80.6841 C 120.9812 80.6546 121.3333 80.5895 121.558 80.5397 C 121.7827 80.4899 122.1899 80.3761 122.4626 80.2869 C 122.7514 80.1927 123.1749 80.0156 123.476 79.8637 C 123.7609 79.7204 124.1446 79.495 124.3291 79.3631 C 124.5136 79.2308 124.7995 78.9954 124.9641 78.8397 C 125.1291 78.6839 125.3571 78.4421 125.4716 78.3024 C 125.5857 78.1626 125.7678 77.9158 125.8762 77.7537 C 125.9847 77.5915 126.1678 77.2733 126.283 77.0464 C 126.3982 76.8192 126.5657 76.4483 126.6546 76.2222 C 126.7438 75.9957 126.8875 75.5718 126.9743 75.2799 C 127.0607 74.9879 127.2253 74.392 127.3402 73.9557 L 127.5485 73.1624 L 127.7445 73.0515 C 127.8526 72.9903 128.104 72.8314 128.3031 72.6984 C 128.5026 72.5654 128.8144 72.3328 128.9965 72.1813 C 129.1786 72.0302 129.4758 71.755 129.6568 71.5697 C 129.8378 71.3848 130.1134 71.0705 130.2691 70.8717 C 130.4252 70.6726 130.6521 70.3515 130.7737 70.1581 C 130.8953 69.9646 131.087 69.6247 131.199 69.4028 C 131.3114 69.1806 131.4771 68.7987 131.5674 68.5537 C 131.6577 68.3083 131.7783 67.9268 131.8351 67.7053 C 131.8923 67.4841 131.9728 67.0741 132.014 66.7946 C 132.0613 66.4739 132.0926 66.0618 132.0986 65.6781 L 132.1086 65.0701 L 132.6754 64.5047 C 132.9873 64.1935 133.3827 63.7633 133.5541 63.5482 C 133.7255 63.333 133.9744 62.997 134.107 62.8014 C 134.2396 62.6059 134.4313 62.3043 134.533 62.1311 C 134.6347 61.958 134.7951 61.6621 134.8897 61.4733 C 134.9843 61.2845 135.1297 60.9702 135.2129 60.7746 C 135.2965 60.579 135.449 60.163 135.5521 59.8501 C 135.6552 59.5372 135.7879 59.0571 135.8473 58.7833 C 135.9063 58.5095 135.9738 58.1507 135.9977 57.9861 C 136.0237 57.8047 136.0319 57.538 136.0187 57.3104 C 136.0066 57.1035 135.9668 56.8222 135.9302 56.6853 C 135.8936 56.5484 135.8228 56.3358 135.773 56.2131 C 135.7233 56.0904 135.6286 55.8995 135.5628 55.7892 C 135.4974 55.679 135.3505 55.4881 135.2364 55.365 C 135.1226 55.242 134.9281 55.0774 134.804 54.9991 C 134.6803 54.9209 134.4772 54.8206 134.3535 54.7765 C 134.1611 54.7083 134.0548 54.6962 133.6302 54.6951 C 133.2195 54.6944 133.0794 54.7083 132.8302 54.7758 C 132.6641 54.821 132.3601 54.9273 132.1545 55.0123 C 131.9494 55.0969 131.5813 55.258 131.3367 55.3697 C 131.0924 55.4817 130.5964 55.689 130.2344 55.8308 C 129.8727 55.9727 129.3045 56.1783 128.972 56.2874 C 128.6396 56.3966 128.1997 56.5338 127.9942 56.5925 C 127.789 56.6508 127.4288 56.7468 127.1941 56.8055 C 126.9594 56.8642 126.5356 56.9598 126.2518 57.0181 C 125.9684 57.0768 125.4884 57.165 125.185 57.2141 C 124.8821 57.2635 124.4258 57.3282 124.1716 57.3585 C 123.9174 57.3887 123.5252 57.4303 123.3004 57.4513 C 123.0757 57.4722 122.2515 57.5035 121.4692 57.5206 C 120.327 57.5459 119.9486 57.5665 119.549 57.6266 C 119.2752 57.6675 118.8577 57.7475 118.6213 57.8044 C 118.3848 57.8616 118.0107 57.9665 117.7902 58.0376 C 117.5698 58.1087 117.221 58.2378 117.0147 58.3242 C 116.8085 58.4106 116.4255 58.5927 116.1634 58.7285 C 115.9014 58.8647 115.5238 59.0827 115.3242 59.2132 C 115.1251 59.3433 114.8339 59.5467 114.6774 59.6648 C 114.5209 59.7832 114.2165 60.035 114.0011 60.2241 C 113.7856 60.4137 113.472 60.7191 113.3041 60.9029 C 113.1363 61.0864 112.8906 61.3727 112.7579 61.5391 C 112.6256 61.7051 112.381 62.0494 112.2146 62.3036 C 112.0482 62.5578 111.822 62.9017 111.7125 63.0681 C 111.603 63.2342 111.3594 63.5624 111.1713 63.7971 C 110.9832 64.0318 110.639 64.4133 110.4064 64.6452 C 110.1738 64.8767 109.8396 65.1832 109.6636 65.3261 C 109.4875 65.4687 109.1995 65.6767 109.0235 65.788 C 108.8475 65.8989 108.4795 66.0995 108.2057 66.2332 C 107.9319 66.3669 107.4998 66.5475 107.2452 66.6346 C 106.9909 66.7218 106.6389 66.8281 106.4629 66.8707 C 106.2872 66.9138 106.1151 66.9568 106.081 66.9668 L 106.0188 66.9842 L 106.0188 63.6534 L 106.3275 63.5489 C 106.4971 63.4913 106.837 63.3455 107.0831 63.2253 C 107.3288 63.1048 107.6741 62.9106 107.8501 62.794 C 108.0261 62.6773 108.291 62.4846 108.4386 62.3655 C 108.5865 62.246 108.8585 61.9911 109.0431 61.7983 C 109.228 61.606 109.4712 61.3254 109.5843 61.1753 C 109.697 61.0253 109.8719 60.7696 109.9726 60.6071 C 110.0736 60.445 110.2318 60.152 110.3239 59.9564 C 110.416 59.7608 110.5412 59.4596 110.602 59.2872 C 110.6628 59.1147 110.7456 58.8427 110.7865 58.6827 C 110.8274 58.5227 110.885 58.2638 110.9145 58.1073 C 110.9437 57.9509 110.9763 57.5334 110.987 57.1792 C 110.9988 56.7859 110.99 56.399 110.9646 56.1836 C 110.9418 55.9901 110.8924 55.679 110.8544 55.4923 C 110.8164 55.306 110.7278 54.9778 110.6574 54.7633 C 110.5873 54.5489 110.443 54.1916 110.3367 53.9693 C 110.2303 53.7467 110.0696 53.4427 109.9793 53.2941 C 109.8886 53.1451 109.7304 52.9111 109.6269 52.7739 C 109.5234 52.637 109.3335 52.4044 109.2045 52.2579 C 109.0754 52.1111 108.83 51.8664 108.659 51.7139 C 108.488 51.5617 108.1558 51.3071 107.9212 51.1485 C 107.6865 50.9896 107.3024 50.767 107.0677 50.6535 C 106.8331 50.5397 106.449 50.3833 106.2143 50.3054 C 105.9797 50.2275 105.6276 50.1319 105.4321 50.0928 C 105.2365 50.0537 104.9211 50.0049 104.7312 49.9843 C 104.5413 49.9637 104.1893 49.9488 103.9489 49.9512 Z M 101.9877 85.0461 C 101.9927 85.044 101.9967 86.5399 101.9967 88.3704 L 101.9967 91.6987 L 101.7745 91.6753 C 101.6522 91.6625 101.3001 91.6208 100.9918 91.5821 C 100.6835 91.5437 100.1633 91.4633 99.8362 91.4032 C 99.5087 91.3435 98.9881 91.2308 98.6787 91.1533 C 98.3697 91.0757 97.8815 90.9349 97.5942 90.8407 C 97.3069 90.7465 96.92 90.6092 96.734 90.5356 C 96.5484 90.4624 96.1882 90.2988 95.9339 90.1722 C 95.6797 90.046 95.318 89.8419 95.1299 89.7188 C 94.9418 89.5958 94.6752 89.3885 94.5368 89.258 C 94.3985 89.1275 94.2371 88.9454 94.1784 88.8537 C 94.1194 88.7619 94.0525 88.6147 94.0294 88.5269 C 93.9974 88.406 93.997 88.3306 94.0276 88.219 C 94.0497 88.1379 94.1336 87.9729 94.2139 87.8531 C 94.2939 87.7329 94.4739 87.538 94.6136 87.42 C 94.753 87.3019 94.9969 87.1198 95.1559 87.0146 C 95.3145 86.9097 95.6519 86.7198 95.9058 86.5929 C 96.1597 86.4656 96.5256 86.2988 96.7194 86.2216 C 96.9132 86.1448 97.2719 86.015 97.5162 85.9329 C 97.7609 85.8511 98.2007 85.7217 98.4941 85.6456 C 98.7875 85.5691 99.2675 85.4589 99.5609 85.4006 C 99.8542 85.3423 100.3183 85.2612 100.5921 85.2206 C 100.8659 85.1798 101.2901 85.1246 101.5344 85.0983 C 101.779 85.0717 101.9828 85.0482 101.9877 85.0461 Z M 106.1481 85.0688 C 106.2214 85.0756 106.4976 85.1054 106.7615 85.1353 C 107.0257 85.1652 107.5185 85.2359 107.8567 85.2925 C 108.1952 85.3494 108.7233 85.4539 109.0301 85.525 C 109.3374 85.5961 109.8206 85.7242 110.104 85.8095 C 110.3878 85.8948 110.8038 86.0353 111.0285 86.121 C 111.2533 86.207 111.5832 86.3432 111.7614 86.424 C 111.9395 86.5047 112.2197 86.6444 112.3837 86.7347 C 112.5479 86.8247 112.8175 86.989 112.9828 87.0992 C 113.1482 87.2098 113.3964 87.4121 113.534 87.549 C 113.6716 87.6859 113.8316 87.8858 113.8896 87.9935 C 113.9657 88.1354 113.9948 88.2378 113.9948 88.3669 C 113.9948 88.4814 113.9645 88.608 113.9102 88.7225 C 113.8604 88.8263 113.7057 89.0204 113.5379 89.189 C 113.3761 89.3515 113.0956 89.5791 112.895 89.7103 C 112.6995 89.8383 112.3435 90.0413 112.1042 90.1612 C 111.8649 90.281 111.4727 90.4563 111.2331 90.5509 C 110.9934 90.6458 110.6186 90.7806 110.4002 90.851 C 110.1816 90.9214 109.7897 91.0352 109.5291 91.1035 C 109.2684 91.1721 108.863 91.2674 108.6283 91.3158 C 108.3936 91.3638 108.0096 91.4359 107.7749 91.4758 C 107.5402 91.5156 107.0762 91.5803 106.7437 91.6198 C 106.4112 91.6589 106.1111 91.6913 106.077 91.6916 L 106.0148 91.6916 L 106.0148 85.0563 Z M 101.97 95.9622 C 101.9846 95.9601 101.9967 96.9987 101.9967 98.2699 C 101.9967 99.9639 101.986 100.5812 101.9565 100.5812 C 101.9344 100.5812 101.7303 100.5396 101.5031 100.4888 C 101.2759 100.4383 100.8744 100.326 100.6109 100.2396 C 100.3474 100.1532 99.9478 99.9935 99.7223 99.8854 C 99.4915 99.7773 99.1544 99.5867 98.967 99.462 C 98.7797 99.3373 98.5219 99.1243 98.3946 98.9894 C 98.2667 98.8538 98.128 98.6715 98.0851 98.5846 C 98.0429 98.4969 98.0084 98.3582 98.0084 98.2757 C 98.0084 98.1871 98.0439 98.0555 98.0955 97.9542 C 98.1431 97.8596 98.2612 97.696 98.3575 97.5908 C 98.4539 97.4855 98.6587 97.3088 98.8127 97.1986 C 98.967 97.088 99.2223 96.9266 99.3802 96.8398 C 99.5381 96.7527 99.8222 96.6154 100.011 96.5344 C 100.2002 96.4533 100.5643 96.3224 100.8204 96.2438 C 101.076 96.1652 101.4323 96.0707 101.6116 96.0333 C 101.7908 95.9964 101.9497 95.9644 101.9643 95.9626 Z M 106.0414 95.959 C 106.056 95.959 106.2441 95.9992 106.4592 96.0475 C 106.6744 96.0962 107.0317 96.1929 107.2536 96.2626 C 107.4755 96.3323 107.8194 96.4589 108.0181 96.5439 C 108.2169 96.6289 108.4996 96.7665 108.6461 96.8494 C 108.793 96.9322 109.0088 97.0649 109.1261 97.1438 C 109.2435 97.2227 109.4476 97.3945 109.5795 97.5257 C 109.7235 97.6693 109.8547 97.8404 109.9081 97.9549 C 109.9568 98.0598 109.9966 98.2084 109.997 98.2852 C 109.9973 98.3624 109.9628 98.4968 109.9205 98.5843 C 109.8778 98.6718 109.7391 98.8538 109.6115 98.9893 C 109.4838 99.1244 109.2264 99.337 109.039 99.4619 C 108.8516 99.5863 108.5141 99.7769 108.289 99.8854 C 108.0636 99.9935 107.6639 100.1531 107.4005 100.2395 C 107.137 100.3259 106.7355 100.4383 106.5083 100.4888 C 106.2811 100.5396 106.077 100.5813 106.0549 100.5813 C 106.0254 100.5813 106.0147 99.964 106.0147 98.27 C 106.0147 96.9987 106.0268 95.9587 106.0414 95.959 Z M 101.97 105.0635 C 101.9846 105.0625 101.9967 105.6538 101.9967 106.3774 C 101.9967 107.101 101.9897 107.6931 101.9817 107.6931 C 101.9737 107.6931 101.8256 107.6433 101.6527 107.5821 C 101.4799 107.5213 101.2108 107.4072 101.0543 107.3286 C 100.8978 107.25 100.682 107.1259 100.5743 107.0527 C 100.4669 106.9798 100.3033 106.8393 100.2112 106.7405 C 100.1191 106.642 100.0334 106.52 100.0206 106.4695 C 100.0081 106.4187 100.0081 106.3362 100.0206 106.2853 C 100.0334 106.2348 100.1191 106.1129 100.2112 106.0143 C 100.3033 105.9155 100.4669 105.775 100.5743 105.7021 C 100.682 105.6288 100.89 105.5084 101.0365 105.4344 C 101.1834 105.3601 101.4472 105.2466 101.6232 105.1823 C 101.7992 105.1179 101.9553 105.0646 101.9699 105.0635 Z M 106.0297 105.0615 C 106.0377 105.0615 106.1858 105.1113 106.3586 105.1725 C 106.5314 105.2333 106.8006 105.3474 106.957 105.426 C 107.1135 105.5046 107.3297 105.6287 107.4371 105.7019 C 107.5448 105.7749 107.708 105.9153 107.8001 106.0142 C 107.8922 106.1127 107.9779 106.2346 107.9907 106.2851 C 108.0032 106.3359 108.0032 106.4185 107.9907 106.4693 C 107.9779 106.5198 107.8922 106.6418 107.8001 106.7403 C 107.708 106.8391 107.5448 106.9796 107.4371 107.0525 C 107.3297 107.1258 107.1135 107.2498 106.957 107.3284 C 106.8006 107.407 106.5314 107.5211 106.3586 107.5819 C 106.1858 107.643 106.0378 107.6929 106.0297 107.6929 C 106.0217 107.6929 106.0147 107.1008 106.0147 106.3772 C 106.0147 105.6536 106.0217 105.0615 106.0297 105.0615 Z M 103.9879 121.9909 C 83.4105 121.9929 79.6884 122.0009 79.515 122.0425 C 79.403 122.0699 79.227 122.1342 79.1239 122.1862 C 79.0208 122.2381 78.8672 122.3366 78.7822 122.4056 C 78.6972 122.4746 78.5877 122.5727 78.5382 122.6235 C 78.4892 122.6747 78.3889 122.807 78.3156 122.918 C 78.2424 123.0289 78.1446 123.2369 78.0984 123.3802 C 78.0336 123.5797 78.0137 123.7202 78.0137 123.9787 C 78.0137 124.2372 78.0336 124.3776 78.0984 124.5771 C 78.1446 124.7204 78.2424 124.9285 78.3156 125.0394 C 78.3889 125.1503 78.4892 125.2826 78.5382 125.3338 C 78.5877 125.3846 78.6972 125.4828 78.7822 125.5518 C 78.8671 125.6208 79.0201 125.7193 79.1225 125.7705 C 79.2249 125.8217 79.4087 125.8875 79.5314 125.9163 C 79.727 125.9625 82.7331 125.9689 104.0055 125.9689 C 125.4942 125.9689 128.2826 125.9629 128.484 125.9152 C 128.6092 125.8856 128.8186 125.8053 128.9495 125.7363 C 129.0807 125.6677 129.2731 125.5279 129.3773 125.4262 C 129.4815 125.3242 129.6255 125.1503 129.6977 125.0394 C 129.7695 124.9284 129.8662 124.7204 129.9124 124.5771 C 129.9771 124.3776 129.997 124.2371 129.997 123.9786 C 129.997 123.7201 129.9771 123.5797 129.9124 123.3802 C 129.8662 123.2369 129.7695 123.0289 129.6977 122.9179 C 129.6255 122.807 129.4815 122.6331 129.3773 122.531 C 129.2731 122.4293 129.0807 122.2896 128.9495 122.221 C 128.8186 122.152 128.6092 122.0716 128.484 122.0421 C 128.2824 121.9944 125.4978 121.9888 103.9876 121.9909 Z M 103.9772 129.991 C 92.5933 129.993 89.6731 130.0031 89.5247 130.039 C 89.4227 130.0636 89.2307 130.1371 89.098 130.2018 C 88.9344 130.2818 88.7769 130.4006 88.6073 130.5716 C 88.4672 130.7128 88.3075 130.9183 88.2439 131.0396 C 88.1817 131.1587 88.1059 131.35 88.0761 131.4649 C 88.0462 131.5797 88.0217 131.8112 88.0217 131.9791 C 88.0217 132.1469 88.0462 132.3784 88.0761 132.4932 C 88.1059 132.6081 88.1817 132.7994 88.2439 132.9185 C 88.3072 133.0391 88.4679 133.2464 88.6073 133.3872 C 88.7922 133.5739 88.9266 133.6727 89.124 133.7659 C 89.2708 133.8356 89.4753 133.9099 89.5791 133.9312 C 89.7139 133.9593 93.8127 133.9703 104.0053 133.9703 C 114.1979 133.9703 118.2966 133.9593 118.4315 133.9312 C 118.5354 133.9098 118.7402 133.8355 118.8867 133.7659 C 119.084 133.6727 119.2185 133.5739 119.4034 133.3872 C 119.5427 133.2464 119.7035 133.0391 119.7668 132.9185 C 119.829 132.7994 119.9047 132.6081 119.9346 132.4932 C 119.9645 132.3784 119.989 132.1469 119.989 131.9791 C 119.989 131.8112 119.9644 131.5797 119.9346 131.4649 C 119.9047 131.35 119.829 131.1587 119.7668 131.0396 C 119.7035 130.919 119.5427 130.7117 119.4034 130.5709 C 119.2185 130.3842 119.084 130.2854 118.8867 130.1922 C 118.7402 130.1225 118.5354 130.0482 118.4315 130.0269 C 118.2964 129.9988 114.2011 129.9885 103.9772 129.991 Z" stroke-linecap="round"/>
</g>
</g>
</g>
</svg>