<svg xmlns="http://www.w3.org/2000/svg" width="1024" height="768" viewBox="0 0 1024 768"><g><path id="path104052" d="m289.11 431.96h-30.785v72.072h8.8546v-32.021h21.93c4.1184 0 7.722-0.92664 11.12-2.677 3.3977-1.8533 5.9717-4.2214 7.9279-7.3102 2.0592-3.0888 3.0888-6.4865 3.0888-10.09 0-3.6036-1.0296-6.8983-3.0888-9.9871-1.9562-3.0888-4.5302-5.4569-7.9279-7.3102-3.3977-1.7503-7.0013-2.677-11.12-2.677zm-21.93 32.021v-23.99h21.93c3.6036 0 6.8983 1.1326 9.3694 3.5006 2.574 2.2651 3.9125 5.148 3.9125 8.4427 0 3.3977-1.3385 6.2806-3.9125 8.5457-2.471 2.2651-5.7658 3.5006-9.3694 3.5006z" stroke-miterlimit="2" fill="black" stroke="none" stroke-width="0" transform="matrix(1.0092,0,0,1.0092,-4.7026,-5.8495)"/><animateTransform attributeName="transform" type="translate" additive="sum" fill="freeze" calcMode="spline" values="0 0; 0 -100; 0 0" keyTimes="0; 0.5; 1" dur="3s" begin="-0s" repeatCount="indefinite" keySplines="0.42 0 0.58 1; 0.42 0 0.58 1"/></g><g><path id="path104054" d="m334.61 504.04h50.656v-8.0309h-41.802v-25.019h37.374v-8.0309h-37.37v-22.97h39.64v-8.03h-48.494z" stroke-miterlimit="2" fill="black" stroke="none" stroke-width="0" transform="matrix(1.0092,0,0,1.0092,-4.7026,-5.8495)"/><animateTransform attributeName="transform" type="translate" additive="sum" fill="freeze" calcMode="spline" values="0 0; 0 -100; 0 0" keyTimes="0; 0.5; 1" dur="3s" begin="-0.21271035341816735s" repeatCount="indefinite" keySplines="0.42 0 0.58 1; 0.42 0 0.58 1"/></g><g><path id="path104056" d="m418.34 472.02h18.327l20.18 32.021h9.8842l-20.592-32.741c4.7362-1.1326 8.6486-3.5006 11.737-7.1042 2.8829-3.6036 4.5302-7.722 4.5302-12.252 0-3.6036-1.0296-6.8983-3.0888-9.9871-1.9562-3.0888-4.5302-5.4569-7.9279-7.3102-3.3977-1.7503-7.0013-2.677-11.12-2.677h-30.785v72.072h8.8546zm0-8.0309v-23.99h21.93c3.6036 0 6.7954 1.1326 9.3694 3.5006 2.574 2.2651 3.9125 5.148 3.9125 8.4427 0 3.3977-1.3385 6.2806-3.9125 8.5457-2.471 2.2651-5.7658 3.5006-9.3694 3.5006z" stroke-miterlimit="2" fill="black" stroke="none" stroke-width="0" transform="matrix(1.0092,0,0,1.0092,-4.7026,-5.8495)"/><animateTransform attributeName="transform" type="translate" additive="sum" fill="freeze" calcMode="spline" values="0 0; 0 -100; 0 0" keyTimes="0; 0.5; 1" dur="3s" begin="-0.9559875925066561s" repeatCount="indefinite" keySplines="0.42 0 0.58 1; 0.42 0 0.58 1"/></g><g><path id="path104058" d="m489.79 504.04h50.656v-8.0309h-41.802v-25.019h37.374v-8.0309h-37.374v-22.96h39.64v-8.04h-48.494z" stroke-miterlimit="2" fill="black" stroke="none" stroke-width="0" transform="matrix(1.0092,0,0,1.0092,-4.7026,-5.8495)"/><animateTransform attributeName="transform" type="translate" additive="sum" fill="freeze" calcMode="spline" values="0 0; 0 -100; 0 0" keyTimes="0; 0.5; 1" dur="3s" begin="-1.3497545367950567s" repeatCount="indefinite" keySplines="0.42 0 0.58 1; 0.42 0 0.58 1"/></g><g><path id="path104060" d="m585.56 505.27c5.251 0 9.8842-0.92664 14.003-2.8829 4.0154-1.8533 7.4131-4.3243 9.6782-7.619 2.2651-3.3977 3.3977-7.0013 3.3977-11.017 0-3.9125-1.1326-7.2072-3.1918-9.7812-2.0592-2.471-4.7362-4.4273-7.619-5.8687-2.9858-1.4414-6.8983-2.8829-11.84-4.5302-3.9125-1.2355-7.0013-2.471-9.3694-3.5006-2.2651-0.92664-4.2214-2.1622-5.5598-3.8095-1.5444-1.4414-2.3681-3.3977-2.3681-5.6628 0-2.1622 0.72073-4.1184 2.0592-5.9717 1.2355-1.7503 3.1918-3.1918 5.6628-4.2214 2.574-1.1326 5.4569-1.6474 8.6486-1.6474 3.1918 0 6.0746 0.5148 8.3398 1.6474 2.2651 1.0296 4.4273 2.574 6.2806 4.6332l6.6924-5.251c-2.3681-2.471-5.148-4.6332-8.3398-6.3835-3.2947-1.7503-7.722-2.677-13.385-2.677-5.251 0-9.5753 0.92664-13.488 2.7799-3.8095 1.8533-6.8983 4.3243-8.9575 7.5161-2.1622 3.1918-3.1918 6.7954-3.1918 10.708 0 3.9125 0.92664 7.2072 3.0888 9.6782 2.0592 2.471 4.5302 4.5302 7.5161 5.7658 2.8829 1.3385 6.7954 2.677 11.532 4.2214 3.8095 1.3385 6.8983 2.3681 9.2664 3.2947 2.1622 0.92664 4.1184 2.2651 5.5598 3.8095 1.4414 1.6474 2.2651 3.6036 2.2651 5.9717s-0.72072 4.5302-2.1622 6.4865c-1.3385 1.8533-3.2947 3.5006-5.7658 4.5302-2.574 1.1326-5.4569 1.7503-8.7516 1.7503-3.3977 0-6.4865-0.72072-9.4723-2.0592-2.9858-1.2355-5.251-3.1918-6.8983-5.6628l-7.9279 5.8687c2.1622 3.1918 5.6628 5.5598 10.09 7.2072 4.5302 1.7503 9.2664 2.677 14.208 2.677z" stroke-miterlimit="2" fill="black" stroke="none" stroke-width="0" transform="matrix(1.0092,0,0,1.0092,-4.7026,-5.8495)"/><animateTransform attributeName="transform" type="translate" additive="sum" fill="freeze" calcMode="spline" values="0 0; 0 -100; 0 0" keyTimes="0; 0.5; 1" dur="3s" begin="-2.3079549617761277s" repeatCount="indefinite" keySplines="0.42 0 0.58 1; 0.42 0 0.58 1"/></g><g><path id="path104062" d="m666.57 504.04v-64.041h26.461v-8.04h-61.673v8.0309h26.36v64.05z" stroke-miterlimit="2" fill="black" stroke="none" stroke-width="0" transform="matrix(1.0092,0,0,1.0092,-4.7026,-5.8495)"/><animateTransform attributeName="transform" type="translate" additive="sum" fill="freeze" calcMode="spline" values="0 0; 0 -100; 0 0" keyTimes="0; 0.5; 1" dur="3s" begin="-2.53112864225875s" repeatCount="indefinite" keySplines="0.42 0 0.58 1; 0.42 0 0.58 1"/></g><g><path id="path104064" d="m715.01 504.04h50.656v-8.0309h-41.802v-25.019h37.374v-8.0309h-37.374v-22.96h39.64v-8.04h-48.494z" stroke-miterlimit="2" fill="black" stroke="none" stroke-width="0" transform="matrix(1.0092,0,0,1.0092,-4.7026,-5.8495)"/><animateTransform attributeName="transform" type="translate" additive="sum" fill="freeze" calcMode="spline" values="0 0; 0 -100; 0 0" keyTimes="0; 0.5; 1" dur="3s" begin="-3s" repeatCount="indefinite" keySplines="0.42 0 0.58 1; 0.42 0 0.58 1"/></g><g><path id="icon" d="m512.22 267.34c-22.556-0.003-41.078 0.002-41.158 0.0113-0.0801 0.008-0.34277 0.0434-0.5838 0.078-0.24061 0.0342-0.65344 0.1105-0.9174 0.16971-0.26354 0.0588-0.7235 0.18682-1.0216 0.28482-0.29816 0.098-0.72975 0.2577-0.9591 0.35487-0.22935 0.0967-0.62967 0.28898-0.88988 0.427-0.25979 0.13803-0.69138 0.39573-0.95909 0.57254-0.26731 0.17681-0.68305 0.47913-0.92408 0.67263-0.24061 0.19307-0.65386 0.5667-0.91785 0.8307-0.26396 0.26396-0.63759 0.67679-0.8307 0.91785-0.19348 0.2406-0.49706 0.65844-0.67554 0.92827-0.17848 0.2698-0.427 0.68263-0.55295 0.9174-0.12593 0.23477-0.31691 0.63342-0.42491 0.88568-0.10759 0.25228-0.27565 0.70264-0.37364 1.0008-0.098 0.29815-0.22601 0.75772-0.28481 1.0216-0.0588 0.26354-0.13678 0.67637-0.17306 0.9174-0.0363 0.2406-0.083 0.7848-0.10425 1.2093-0.0225 0.45953-0.0379 24.374-0.0379 59.131 0 34.756 0.0154 58.671 0.0379 59.131 0.0213 0.42409 0.068 0.96826 0.10425 1.2093 0.0363 0.24061 0.11384 0.65344 0.17264 0.9174 0.0584 0.26355 0.19682 0.75143 0.30774 1.0842 0.11093 0.33277 0.30358 0.83235 0.42909 1.1104 0.1251 0.27856 0.32652 0.6818 0.44745 0.89655 0.12093 0.21517 0.34861 0.58255 0.50582 0.81691 0.15721 0.23393 0.44035 0.61883 0.62925 0.85485 0.1889 0.2356 0.56003 0.64426 0.8244 0.90825 0.26437 0.26354 0.67346 0.63426 0.90862 0.82357 0.23561 0.18931 0.62008 0.47246 0.85403 0.62925 0.23435 0.15638 0.63259 0.39949 0.88485 0.5396 0.25228 0.14011 0.68388 0.35195 0.9591 0.47038 0.27522 0.11884 0.74434 0.29607 1.0425 0.39448 0.29816 0.0984 0.7581 0.22685 1.0216 0.28564 0.26396 0.0588 0.67679 0.13678 0.9174 0.17306 0.24103 0.0363 0.78517 0.083 1.2093 0.10425 0.45619 0.0225 17.919 0.0384 42.742 0.0388 24.64 0 42.212-0.0155 42.555-0.0375 0.32109-0.0208 0.77437-0.0767 1.0075-0.12426 0.2331-0.0476 0.59922-0.14345 0.81314-0.21351 0.21434-0.0696 0.58672-0.22101 0.82733-0.33568 0.24103-0.1151 0.65386-0.35195 0.9174-0.52625 0.35696-0.23603 0.61882-0.45704 1.0238-0.8628 0.39866-0.39948 0.63009-0.6747 0.86317-1.0254 0.17515-0.26397 0.41242-0.6768 0.52751-0.9174 0.11468-0.24103 0.26605-0.61299 0.33569-0.82733 0.07-0.21392 0.16596-0.58005 0.21392-0.81315 0.0475-0.23311 0.10342-0.69556 0.12385-1.0283 0.0217-0.35153 0.0371-26.038 0.0371-61.32 0-36.179-0.0158-61.027-0.0384-61.486-0.0212-0.42451-0.0679-0.9687-0.10425-1.2093-0.0363-0.24103-0.11384-0.65386-0.17263-0.9174-0.0584-0.26397-0.19683-0.75188-0.30775-1.0842-0.11093-0.33277-0.30441-0.83445-0.43076-1.1146-0.12636-0.28065-0.32818-0.6843-0.44911-0.89655-0.12093-0.21267-0.34736-0.57838-0.50374-0.8127-0.15637-0.23394-0.4391-0.61883-0.628-0.85485-0.18932-0.23561-0.56003-0.64552-0.8244-0.91028-0.26395-0.26521-0.67678-0.63884-0.9174-0.8307-0.24061-0.19182-0.65802-0.49498-0.92782-0.67345-0.2698-0.17848-0.68263-0.42743-0.9174-0.55336-0.2325-0.1374-0.645-0.33338-0.9075-0.44768-0.27-0.11422-0.6975-0.27562-0.9525-0.35902-0.2625-0.0829-0.66-0.19808-0.8925-0.25478-0.2325-0.0571-0.66-0.14512-0.945-0.19597l-0.52125-0.0922zm1.4282 4.6646 39.125 0.0121 0.35444 0.0721c0.19516 0.0396 0.54419 0.12719 0.77603 0.19474 0.23185 0.068 0.59547 0.19849 0.80813 0.29065 0.21267 0.0926 0.53835 0.25645 0.72308 0.36487 0.18514 0.10884 0.48747 0.309 0.6722 0.44536 0.18473 0.13594 0.50206 0.40908 0.70556 0.6059 0.2035 0.19724 0.49832 0.52376 0.65552 0.72558 0.1568 0.20183 0.38031 0.52459 0.49624 0.71682 0.11634 0.19224 0.29357 0.53543 0.39448 0.7623 0.1005 0.22685 0.22977 0.57046 0.28773 0.7635 0.0575 0.19307 0.13427 0.49164 0.17014 0.66386 0.0363 0.17181 0.0842 0.48164 0.10674 0.68805 0.0271 0.24561 0.0413 17.533 0.0413 49.978s-0.0142 49.732-0.0413 49.978c-0.0225 0.20642-0.0705 0.51583-0.10674 0.68805-0.0359 0.17181-0.11259 0.47079-0.17014 0.66387-0.058 0.19307-0.18723 0.53667-0.28773 0.7635-0.10091 0.22684-0.27814 0.57003-0.39448 0.7623-0.11593 0.19223-0.33986 0.51499-0.49748 0.71682-0.15722 0.20182-0.44286 0.51958-0.63426 0.70639-0.1914 0.18682-0.48581 0.44411-0.65386 0.57254-0.16763 0.12802-0.46204 0.32777-0.65386 0.4437-0.19182 0.11592-0.53459 0.29273-0.7614 0.39364-0.22685 0.1005-0.57045 0.22977-0.7635 0.28773-0.19307 0.0575-0.49164 0.13427-0.66386 0.17014-0.1718 0.0363-0.48163 0.0842-0.68805 0.10675-0.24478 0.0271-13.886 0.0417-39.25 0.0417l-38.872-0.007v-112.59zm45.286 114.96c0.0171-0.002 0.0313 1.5717 0.0313 3.4982v3.5025h-80.002l-0.32234 0.0826c-0.17765 0.0455-0.41951 0.13428-0.53793 0.19808-0.11885 0.0634-0.34945 0.24686-0.51291 0.4074-0.18682 0.18348-0.34361 0.3849-0.42201 0.5421-0.0688 0.13761-0.15929 0.3532-0.20141 0.47955-0.0534 0.1593-0.0767 0.3507-0.0767 0.6255 0.00041 0.25563 0.0267 0.48498 0.0742 0.64635 0.0409 0.13761 0.13136 0.3532 0.20142 0.47955 0.0701 0.12594 0.20016 0.3165 0.28898 0.42326 0.0892 0.10675 0.28815 0.28022 0.44285 0.38572 0.15471 0.10509 0.39156 0.23019 0.52709 0.27773 0.1351 0.0471 0.39781 0.10341 0.5838 0.12468 0.20641 0.0238 15.824 0.0392 40.154 0.0392l39.815 0.00042-0.0142 1.3865-0.0146 1.3865-0.0917 0.27397c-0.0505 0.15095-0.1643 0.38531-0.25312 0.52125-0.0888 0.13595-0.23477 0.32026-0.32401 0.40949-0.0892 0.0892-0.27355 0.2352-0.4095 0.32402-0.13593 0.0888-0.3703 0.20349-0.52125 0.25437l-0.27396 0.0934-42.638 0.0109c-38.346 0.01-42.688 0.005-43.138-0.0538-0.27522-0.0358-0.65052-0.10299-0.834-0.1497-0.18348-0.0471-0.51166-0.15179-0.72975-0.2331-0.21768-0.0813-0.52709-0.21309-0.6868-0.29357-0.15971-0.0801-0.41325-0.22226-0.56295-0.31567-0.1497-0.0934-0.41783-0.27981-0.59589-0.41408s-0.48206-0.4024-0.67554-0.59589c-0.19349-0.19349-0.46287-0.4979-0.59882-0.67638-0.13594-0.17847-0.324-0.45036-0.41825-0.60423-0.0942-0.15429-0.23518-0.40699-0.31275-0.56212-0.078-0.15554-0.20808-0.46078-0.2894-0.67845-0.0813-0.2181-0.18598-0.54627-0.23268-0.72975s-0.11426-0.55503-0.1497-0.82568c-0.035-0.27063-0.0642-0.66094-0.0642-0.86692 0-0.20601 0.02-0.55712 0.0446-0.77978 0.0246-0.22268 0.0817-0.57379 0.12719-0.78022 0.0454-0.20642 0.14011-0.54419 0.21016-0.7506 0.0701-0.20642 0.21976-0.56546 0.33235-0.7977 0.11301-0.23227 0.30983-0.57963 0.43785-0.77145s0.33819-0.47788 0.46704-0.63593c0.12844-0.15763 0.40324-0.44452 0.61048-0.63759 0.20725-0.19349 0.54544-0.47204 0.75188-0.62008 0.20641-0.14762 0.61924-0.38989 0.9174-0.53793 0.29815-0.14803 0.71932-0.32693 0.93532-0.3974 0.21642-0.07 0.57296-0.1693 0.7923-0.22018l0.39907-0.0922 40.824-0.0238c31.649-0.0188 40.904-0.0355 41.179-0.0746 0.19516-0.028 0.53293-0.0801 0.7506-0.11634 0.21809-0.0363 0.6401-0.12843 0.93825-0.20475 0.29815-0.0763 0.70848-0.19766 0.912-0.26979 0.2035-0.0726 0.56963-0.21601 0.81315-0.31943 0.24395-0.103 0.65469-0.30149 0.9132-0.44119 0.25854-0.13927 0.68054-0.39864 0.93825-0.57587 0.25771-0.17764 0.48247-0.32485 0.49957-0.32734zm-42.255-107.96c-0.28188 0.003-0.65301 0.0213-0.82522 0.0405-0.1718 0.0196-0.50957 0.0742-0.7506 0.12176-0.24061 0.0475-0.66303 0.16138-0.93825 0.25228-0.27522 0.0913-0.72558 0.27606-1.0008 0.41075s-0.66929 0.35654-0.8757 0.49248c-0.20642 0.13636-0.51625 0.35987-0.68847 0.49748-0.17264 0.13719-0.46329 0.3999-0.64635 0.58297-0.18348 0.18348-0.4391 0.4637-0.56837 0.62258s-0.33986 0.44577-0.46787 0.63759c-0.12802 0.1914-0.33778 0.55419-0.46663 0.80565-0.12843 0.25145-0.30524 0.64802-0.39281 0.88155-0.0876 0.23352-0.20725 0.62133-0.26646 0.86235-0.0592 0.24061-0.13594 0.63718-0.17139 0.8811-0.0363 0.25354-0.0634 0.726-0.063 1.105 0.00042 0.36404 0.0275 0.86153 0.06 1.1063 0.0325 0.24436 0.10591 0.62884 0.16305 0.85485 0.0571 0.2256 0.16346 0.57921 0.23644 0.78562 0.0725 0.20642 0.22101 0.56295 0.32901 0.7923s0.29356 0.57296 0.41199 0.76313c0.11802 0.19056 0.32318 0.49039 0.45537 0.66637 0.1326 0.17597 0.41699 0.50414 0.633 0.72932 0.21601 0.22476 0.55378 0.5371 0.7506 0.69389 0.19683 0.15679 0.52125 0.39115 0.72016 0.52042 0.19891 0.12969 0.5863 0.34402 0.86025 0.47704 0.27397 0.13261 0.6601 0.29649 0.85777 0.36362l0.35946 0.12177v3.8927l-0.26063-0.0596c-0.14344-0.0329-0.42951-0.10884-0.63592-0.16847-0.20642-0.06-0.58172-0.1889-0.834-0.28689-0.25229-0.098-0.60423-0.24561-0.78233-0.32735-0.17806-0.0822-0.47829-0.23769-0.6672-0.34611-0.18889-0.108-0.49372-0.29314-0.6772-0.41157s-0.54919-0.412-0.81315-0.65219c-0.26355-0.24019-0.66929-0.65094-0.90113-0.91283-0.23185-0.26187-0.57379-0.67929-0.7602-0.92737-0.18639-0.24854-0.44535-0.62383-0.57546-0.834-0.12969-0.21058-0.34485-0.54461-0.47788-0.74268-0.13261-0.19766-0.39573-0.55419-0.58422-0.7923-0.18848-0.23769-0.59756-0.68722-0.90908-0.99915-0.3075-0.3105-0.759-0.7215-1.0005-0.91275-0.24-0.19125-0.6585-0.4935-0.92775-0.672-0.27-0.1785-0.68475-0.42825-0.9225-0.55575-0.23625-0.12675-0.624-0.31575-0.861-0.41925-0.23625-0.1035-0.666-0.27-0.954-0.36975-0.2895-0.1005-0.75975-0.24075-1.0462-0.31125-0.28647-0.0713-0.75562-0.1668-1.0425-0.21267-0.28647-0.0455-0.74643-0.10217-1.0216-0.12593-0.27522-0.0234-0.93202-0.043-1.4595-0.0434-0.5275-0.00041-1.231-0.0196-1.5638-0.0429-0.33234-0.0234-0.87652-0.0709-1.2093-0.10592-0.33234-0.0354-0.90652-0.10967-1.2752-0.16471-0.36904-0.0555-0.95992-0.15888-1.3136-0.22977-0.35361-0.0709-0.912-0.19474-1.2406-0.27439-0.3286-0.0801-0.88238-0.2281-1.2302-0.32901-0.34778-0.10133-0.9078-0.27772-1.2443-0.3924-0.3361-0.11509-0.91785-0.32943-1.2927-0.47704-0.37447-0.14762-0.9153-0.3753-1.2022-0.50666-0.28648-0.13093-0.71891-0.32026-0.96075-0.42075-0.24186-0.1005-0.58922-0.22267-0.77145-0.27147-0.206-0.0555-0.51374-0.0967-0.8115-0.10884-0.35403-0.015-0.55461-0.002-0.76688 0.0471-0.15763 0.0371-0.42033 0.13635-0.5838 0.221-0.1989 0.10342-0.39948 0.25771-0.60924 0.46871-0.1718 0.17305-0.37572 0.42159-0.45244 0.55294-0.0771 0.13136-0.18807 0.35654-0.24645 0.5004-0.0584 0.14387-0.14136 0.39324-0.18473 0.55378-0.0434 0.16055-0.0892 0.50749-0.10217 0.77145-0.0167 0.34445-0.004 0.59714 0.0446 0.89655 0.0375 0.22935 0.11676 0.63259 0.17556 0.89655 0.0588 0.26354 0.20099 0.7698 0.31567 1.1242 0.11509 0.35445 0.29273 0.84113 0.39531 1.0809 0.10259 0.2402 0.27773 0.61883 0.3899 0.84195 0.11175 0.2231 0.30066 0.57171 0.41992 0.77475 0.11926 0.20308 0.34402 0.5567 0.49956 0.78608 0.15555 0.22935 0.44745 0.62341 0.64844 0.8757 0.20099 0.25228 0.66469 0.75682 1.03 1.1217l0.6647 0.66261 0.0113 0.71349c0.007 0.45536 0.043 0.92827 0.0997 1.3094 0.0484 0.32776 0.14261 0.80647 0.20933 1.0634 0.0663 0.25687 0.18056 0.63509 0.25311 0.84067 0.073 0.20558 0.2131 0.55628 0.31192 0.77895 0.0988 0.22268 0.29649 0.60799 0.43911 0.8565 0.14261 0.24812 0.34986 0.58255 0.46078 0.7431 0.11093 0.16054 0.32693 0.44869 0.4808 0.64051 0.15346 0.1914 0.46496 0.53334 0.69264 0.75975 0.22727 0.22643 0.58589 0.54961 0.79605 0.71807 0.21059 0.16889 0.52376 0.40074 0.69556 0.51542 0.17222 0.11509 0.44453 0.28522 0.60548 0.37863l0.29232 0.16972 0.26605 1.0154c0.14637 0.55836 0.36863 1.3336 0.49414 1.723 0.12552 0.38947 0.31234 0.9057 0.4145 1.1468 0.10259 0.24144 0.2723 0.59797 0.37697 0.79312 0.10467 0.19516 0.28398 0.49498 0.39865 0.6672 0.11426 0.1718 0.29356 0.42409 0.39824 0.56045 0.10425 0.13594 0.33151 0.39031 0.50456 0.56503 0.17306 0.17472 0.45954 0.43243 0.63593 0.57255 0.17681 0.13969 0.48706 0.35695 0.68972 0.48246 0.20266 0.1251 0.47037 0.27939 0.59505 0.34236 0.12427 0.0634 0.4266 0.19557 0.67179 0.29399 0.24478 0.0984 0.64552 0.23643 0.88943 0.30607 0.24436 0.0701 0.66386 0.17306 0.93202 0.22893 0.26855 0.0559 0.71307 0.13136 0.98828 0.16763 0.27522 0.0367 0.79312 0.0847 1.151 0.10676 0.427 0.0267 0.73892 0.0263 0.90697-0.00042 0.14095-0.0229 0.65303-0.18222 1.138-0.35445 0.48455-0.17222 1.2631-0.43451 1.7297-0.58296 0.46662-0.14846 1.1726-0.36154 1.5683-0.47372 0.39615-0.11217 1.0954-0.29857 1.5542-0.41449 0.4587-0.11593 1.281-0.3065 1.8277-0.42326 0.54669-0.11718 1.4908-0.29649 2.0984-0.39907 0.60716-0.10258 1.5488-0.24228 2.0921-0.31024 0.54293-0.068 1.2877-0.15095 1.6546-0.18473 0.36696-0.0334 0.80317-0.0726 0.96952-0.0867l0.30233-0.0258v3.5424l-0.32318 0.0275c-0.17764 0.015-0.66094 0.0646-1.0738 0.11051-0.41283 0.0455-1.1276 0.14595-1.5884 0.22309-0.46121 0.0772-1.1401 0.20808-1.5095 0.29024-0.36904 0.0826-1.0241 0.25103-1.4553 0.37488-0.43159 0.12343-1.0375 0.31692-1.3473 0.42993-0.30941 0.11301-0.77857 0.29649-1.0425 0.4074-0.26354 0.11134-0.72516 0.32777-1.025 0.48122-0.30024 0.15346-0.73767 0.39823-0.97282 0.5446-0.23519 0.14637-0.62759 0.41492-0.8724 0.59673-0.24478 0.18182-0.67971 0.5667-0.96623 0.85485-0.2869 0.28815-0.64343 0.69765-0.7923 0.9099-0.14929 0.21225-0.36028 0.55962-0.46912 0.77145-0.10884 0.21225-0.26438 0.58964-0.34569 0.83903-0.0813 0.24895-0.17723 0.64301-0.21267 0.8757-0.0471 0.30775-0.0588 0.59756-0.043 1.0688 0.0171 0.49748 0.0463 0.74434 0.12802 1.0713 0.0584 0.23394 0.17264 0.59047 0.25395 0.7923 0.0813 0.20224 0.23477 0.5175 0.34111 0.70098 0.10633 0.18348 0.29607 0.47413 0.422 0.64635 0.12552 0.1718 0.46496 0.54793 0.75435 0.83527 0.2894 0.28731 0.70473 0.65678 0.92243 0.82065 0.21809 0.1643 0.59339 0.42243 0.834 0.57338 0.24102 0.15137 0.76687 0.44035 1.1689 0.6426 0.40199 0.20182 1.007 0.4758 1.3448 0.60882l0.61424 0.24144-0.40991 0.42534c-0.22518 0.23394-0.52584 0.59881-0.66762 0.81105-0.1422 0.21225-0.3311 0.53918-0.42034 0.72641-0.0888 0.18723-0.21767 0.49998-0.28607 0.69514-0.0688 0.19474-0.15554 0.50457-0.19348 0.68805-0.038 0.18348-0.0872 0.50707-0.10884 0.71932-0.0309 0.29441-0.0254 0.49749 0.0217 0.85485 0.0342 0.25812 0.10967 0.64719 0.16847 0.86445 0.0584 0.21768 0.17305 0.56504 0.25437 0.77145 0.0813 0.20683 0.25186 0.5617 0.37905 0.7881 0.12676 0.22643 0.36821 0.59464 0.53626 0.81773s0.49289 0.5838 0.72183 0.80145c0.22893 0.21767 0.58589 0.51207 0.79358 0.65427 0.20766 0.1422 0.52542 0.33735 0.70556 0.43367l0.32818 0.17557-0.31734 0.3803c-0.17431 0.20933-0.40908 0.53501-0.52083 0.72349-0.11176 0.18891-0.26814 0.50124-0.34695 0.69431-0.0784 0.19348-0.19056 0.53376-0.24894 0.75682-0.0838 0.31984-0.11051 0.54168-0.12636 1.0516-0.0175 0.55295-0.007 0.70974 0.0692 1.0842 0.0496 0.24061 0.16305 0.62091 0.2527 0.84488 0.0897 0.22392 0.23936 0.53793 0.33277 0.69805 0.0934 0.15972 0.27981 0.4366 0.41408 0.61466 0.13428 0.17806 0.42993 0.50374 0.65678 0.72391 0.22684 0.22018 0.57087 0.51708 0.7635 0.66053 0.19307 0.14303 0.52708 0.36363 0.74226 0.49039 0.21475 0.12636 0.56795 0.31275 0.78397 0.41367 0.21642 0.10091 0.5667 0.24853 0.77858 0.32776 0.21183 0.0792 0.50749 0.1814 0.65635 0.22685 0.14929 0.0459 0.515 0.14136 0.81315 0.21183 0.29816 0.0705 0.58338 0.13719 0.63384 0.14762l0.0917 0.0196 0.0125 2.6792 0.0125 2.6788 0.11051 0.30275c0.0609 0.1668 0.16846 0.39198 0.23894 0.5004 0.0705 0.10883 0.18389 0.25645 0.25187 0.32859 0.0684 0.0722 0.20475 0.19641 0.30357 0.27647 0.0984 0.0801 0.27731 0.19516 0.39741 0.2552 0.12009 0.0601 0.33568 0.1372 0.47955 0.17097 0.14386 0.0342 0.39281 0.0617 0.55335 0.0617 0.16055 0 0.412-0.0283 0.55878-0.063 0.14679-0.0346 0.3924-0.12886 0.54585-0.20975 0.15388-0.0805 0.37906-0.24395 0.5004-0.3628 0.12135-0.11884 0.28482-0.31274 0.36321-0.43076 0.078-0.11759 0.19266-0.35278 0.25437-0.52208l0.11259-0.30775 0.0125-2.6788 0.0125-2.6792 0.0917-0.0208c0.0505-0.0112 0.27022-0.0592 0.48789-0.10633 0.2181-0.0476 0.58797-0.14178 0.82193-0.20976 0.23435-0.0679 0.59089-0.18681 0.7923-0.26354 0.20182-0.0771 0.54793-0.22477 0.7698-0.32859 0.22184-0.10342 0.57922-0.2919 0.79395-0.41826 0.21517-0.12676 0.5496-0.34736 0.7435-0.49039 0.19391-0.14303 0.53752-0.44035 0.76313-0.66053 0.22602-0.22017 0.52084-0.54585 0.65553-0.72391 0.13468-0.17806 0.32109-0.45495 0.41449-0.61466 0.0934-0.16012 0.24312-0.47412 0.33277-0.69805 0.0897-0.22394 0.20141-0.59757 0.24853-0.8307 0.0584-0.28731 0.0859-0.5838 0.0859-0.92243 0-0.27438-0.0283-0.66094-0.063-0.85905-0.0346-0.19807-0.11842-0.53376-0.18597-0.74559-0.0679-0.21184-0.2085-0.55128-0.31192-0.75435-0.10383-0.20308-0.27314-0.48831-0.37697-0.63342-0.10383-0.14554-0.29023-0.38281-0.41367-0.52668l-0.22476-0.26187 0.32985-0.17598c0.1814-0.0972 0.49873-0.29232 0.70515-0.43368 0.20641-0.14137 0.55628-0.42825 0.77767-0.63801 0.22143-0.20933 0.53293-0.54918 0.69222-0.75517 0.15929-0.20642 0.38864-0.54419 0.50999-0.7506 0.12177-0.20683 0.29691-0.55461 0.38948-0.77228 0.0926-0.21809 0.21726-0.56503 0.27689-0.77144 0.0596-0.20642 0.13886-0.54419 0.17597-0.7506 0.0371-0.20642 0.0659-0.57255 0.0638-0.81315-0.002-0.25354-0.0384-0.61508-0.0863-0.85943-0.0459-0.23143-0.14095-0.59422-0.21184-0.8052-0.0709-0.21142-0.20349-0.54085-0.29481-0.73267-0.0917-0.1914-0.28232-0.52167-0.42451-0.73392-0.14178-0.21225-0.44161-0.57671-0.66637-0.80985l-0.40783-0.42367 0.61341-0.24311c0.33777-0.13344 0.96075-0.41742 1.3852-0.63051 0.42451-0.21309 1.0246-0.55544 1.3344-0.76057 0.30984-0.20558 0.71391-0.4954 0.89865-0.64469 0.18474-0.14928 0.54502-0.48872 0.80063-0.7548 0.2698-0.28064 0.58755-0.6672 0.7581-0.92242 0.1618-0.24186 0.36821-0.59339 0.45911-0.78188 0.0905-0.18807 0.21267-0.48955 0.27064-0.66928 0.0584-0.17973 0.13927-0.47997 0.17972-0.6672 0.0551-0.2552 0.073-0.52793 0.0725-1.0909-0.00075-0.56461-0.0196-0.8361-0.0759-1.0954-0.0413-0.18973-0.12802-0.50206-0.19307-0.6943-0.065-0.19224-0.19599-0.50415-0.29149-0.69264-0.0951-0.1889-0.24018-0.4487-0.32233-0.57755-0.0826-0.12885-0.23603-0.34694-0.34153-0.48455-0.10508-0.13761-0.34069-0.40574-0.52291-0.59631-0.18223-0.19015-0.48289-0.47371-0.66762-0.6305-0.18515-0.15638-0.54294-0.42534-0.79523-0.59756-0.25228-0.17181-0.66469-0.43118-0.91695-0.57588-0.25187-0.1447-0.68347-0.36947-0.9591-0.49998-0.27522-0.13011-0.726-0.3261-1.0012-0.43494-0.27522-0.10925-0.80272-0.29857-1.1722-0.42117-0.36988-0.12259-1.0358-0.3165-1.4804-0.43076-0.44494-0.11467-1.1042-0.26521-1.4654-0.33526-0.36113-0.0701-0.96158-0.17389-1.3348-0.23061-0.3728-0.0563-1.0479-0.14094-1.4999-0.18723-0.45244-0.0467-0.86025-0.0847-0.90697-0.0847h-0.0842v-3.55l0.32318 0.0267c0.17764 0.015 0.70807 0.0646 1.178 0.1105 0.47038 0.0463 1.2088 0.12969 1.6413 0.18599 0.43243 0.0563 1.2769 0.18514 1.8765 0.28647 0.59964 0.10134 1.4937 0.26939 1.9866 0.37322 0.4929 0.10425 1.3094 0.2919 1.814 0.417 0.50457 0.1251 1.3414 0.34986 1.8602 0.49915 0.51874 0.1497 1.3632 0.41157 1.8765 0.58254 0.51332 0.17097 1.2435 0.41992 1.6217 0.55336l0.68805 0.24228 0.54836-0.007c0.3019-0.004 0.75225-0.0271 1.0008-0.0521 0.24895-0.0246 0.64969-0.0734 0.89032-0.108 0.24103-0.0346 0.65386-0.11092 0.9174-0.1693 0.26355-0.0584 0.74101-0.19182 1.0609-0.29649 0.33861-0.11051 0.83527-0.31818 1.1884-0.49623 0.33402-0.16806 0.78397-0.43243 1.0004-0.58714 0.21642-0.15512 0.55169-0.43118 0.74476-0.61382 0.19349-0.18265 0.46078-0.46621 0.59506-0.63009 0.13385-0.16389 0.34736-0.45328 0.47454-0.64344 0.12719-0.19015 0.34194-0.56337 0.47705-0.82942 0.13511-0.26646 0.33152-0.70139 0.43577-0.9666 0.10466-0.26563 0.27313-0.76268 0.37488-1.105 0.10133-0.34236 0.2944-1.0412 0.4291-1.5529l0.24435-0.9303 0.22977-0.1301c0.12677-0.0717 0.42159-0.25812 0.65511-0.41408 0.23394-0.15596 0.59964-0.42868 0.81315-0.60632 0.21351-0.17722 0.56211-0.49998 0.77437-0.71724 0.21225-0.21684 0.53543-0.58546 0.71807-0.81855 0.18306-0.23352 0.44911-0.61007 0.59172-0.83692 0.14262-0.22685 0.36738-0.6255 0.49874-0.88568 0.13177-0.26062 0.32609-0.70848 0.43201-0.99577 0.10592-0.28773 0.24728-0.73517 0.314-0.99495 0.0671-0.25937 0.16138-0.74018 0.20975-1.0679 0.0554-0.37613 0.0922-0.85942 0.0992-1.3094l0.0117-0.71307 0.66469-0.66303c0.36571-0.36487 0.82943-0.86947 1.0304-1.1217 0.20099-0.25228 0.49289-0.64635 0.64843-0.8757s0.38031-0.58296 0.49956-0.78607c0.11927-0.20308 0.30734-0.55002 0.41826-0.77145s0.28147-0.59006 0.37905-0.81938c0.098-0.22935 0.27689-0.71724 0.39782-1.0842s0.27647-0.92992 0.34611-1.251c0.0692-0.32109 0.14845-0.74184 0.17639-0.93495 0.0304-0.21267 0.04-0.52542 0.0246-0.7923-0.0142-0.24269-0.0609-0.57254-0.10383-0.73308-0.043-0.16055-0.12593-0.40992-0.18431-0.55378-0.0584-0.14387-0.16931-0.36779-0.24645-0.49706-0.0767-0.12927-0.24895-0.3532-0.38281-0.49749-0.13344-0.14428-0.36154-0.33735-0.50707-0.42909-0.14511-0.0917-0.38322-0.20933-0.52834-0.26104-0.22559-0.0801-0.35028-0.0943-0.84818-0.0955-0.48163-0.00083-0.64593 0.0154-0.93825 0.0947-0.19473 0.053-0.55127 0.17764-0.7923 0.2773-0.2406 0.0993-0.6722 0.28815-0.9591 0.41909-0.28647 0.13135-0.8682 0.37446-1.2927 0.54084-0.42408 0.16638-1.0904 0.40741-1.4804 0.53543-0.38989 0.12802-0.9057 0.28898-1.1468 0.35779-0.2406 0.0684-0.66303 0.18097-0.93825 0.24978-0.27522 0.0688-0.77227 0.18097-1.105 0.24936-0.33234 0.0688-0.89527 0.17223-1.251 0.22977-0.35528 0.058-0.89032 0.13386-1.1884 0.16931-0.29815 0.0354-0.7581 0.0842-1.0216 0.10884-0.26354 0.0246-1.2302 0.0613-2.1476 0.0813-1.3394 0.0296-1.7831 0.0538-2.2518 0.12427-0.32109 0.048-0.81067 0.14178-1.088 0.2085-0.2773 0.0671-0.71599 0.19016-0.97455 0.27356-0.25854 0.0834-0.66761 0.23477-0.90945 0.3361-0.24186 0.10133-0.69096 0.31484-0.99832 0.47413-0.30733 0.15971-0.75015 0.41533-0.98415 0.56837-0.23352 0.15263-0.57504 0.39115-0.75855 0.52959-0.18348 0.13886-0.54044 0.4341-0.79313 0.65594-0.2527 0.22227-0.62049 0.58047-0.81735 0.79605-0.19682 0.21518-0.48497 0.55086-0.64051 0.74601-0.15512 0.19474-0.44202 0.5984-0.63718 0.89655-0.19515 0.29816-0.46036 0.7014-0.5888 0.89655-0.12844 0.19474-0.41408 0.57963-0.63467 0.85485s-0.62425 0.72267-0.897 0.99458c-0.27272 0.27147-0.6647 0.63092-0.87113 0.79852-0.20641 0.16722-0.54418 0.41117-0.7506 0.54168-0.20641 0.13011-0.63801 0.3653-0.9591 0.52209s-0.82777 0.36862-1.1264 0.47079c-0.29815 0.10216-0.71098 0.22684-0.9174 0.27688-0.20599 0.0505-0.40782 0.10091-0.44785 0.11259l-0.073 0.0204v-3.906l0.36196-0.12259c0.19891-0.0676 0.59756-0.23853 0.88612-0.37947 0.28815-0.14136 0.69306-0.36905 0.89948-0.50583 0.20641-0.13677 0.51708-0.36279 0.69013-0.50248 0.17348-0.14012 0.49248-0.4391 0.7089-0.66512 0.21684-0.2256 0.50207-0.55461 0.63468-0.73058 0.13218-0.17597 0.33735-0.4758 0.45536-0.66637 0.11843-0.19015 0.304-0.53376 0.412-0.76312 0.108-0.22935 0.25479-0.58255 0.32609-0.7848s0.16847-0.52125 0.21643-0.7089c0.0479-0.18765 0.1155-0.49123 0.15012-0.67471 0.0342-0.18348 0.0725-0.67303 0.0851-1.0884 0.0138-0.4612 0.004-0.91492-0.0263-1.1676-0.0267-0.22684-0.0846-0.59172-0.12927-0.81067-0.0446-0.21851-0.14845-0.6034-0.23101-0.85485-0.0821-0.25146-0.25146-0.67054-0.37614-0.93113-0.12468-0.26104-0.31317-0.61758-0.41908-0.79185-0.10634-0.17472-0.2919-0.44911-0.41325-0.61007-0.12134-0.16055-0.34403-0.43326-0.4954-0.60507-0.15136-0.17222-0.43909-0.45912-0.63967-0.63801-0.20058-0.17848-0.59006-0.47705-0.86528-0.66303-0.27522-0.1864-0.72558-0.44744-1.0008-0.58046-0.27522-0.13344-0.72558-0.31692-1.0008-0.40824-0.27522-0.0913-0.68805-0.2035-0.9174-0.24937-0.22935-0.0459-0.59923-0.103-0.82192-0.12719-0.22268-0.0242-0.63551-0.0417-0.9174-0.0388zm-2.2951 41.157c0.006-0.002 0.0104 1.7518 0.0104 3.8985v3.9032l-0.26063-0.0275c-0.14344-0.015-0.55627-0.0638-0.91784-0.10925-0.36154-0.045-0.97163-0.13927-1.3553-0.20975-0.38406-0.0701-0.99457-0.20225-1.3574-0.29315-0.36236-0.0909-0.93494-0.25604-1.2718-0.36654-0.33693-0.11051-0.79065-0.27147-1.0087-0.35779-0.21768-0.0859-0.6401-0.27773-0.93826-0.42617-0.29815-0.14804-0.72224-0.38739-0.94282-0.53168-0.22059-0.14428-0.53334-0.38739-0.69556-0.54043-0.16221-0.15304-0.35153-0.36654-0.42034-0.47413-0.0692-0.10759-0.14761-0.28022-0.17471-0.38322-0.0375-0.14178-0.038-0.23018-0.002-0.36113 0.0259-0.0951 0.12427-0.28856 0.21851-0.42908 0.0938-0.14095 0.30483-0.36947 0.46871-0.50791 0.16346-0.13844 0.44952-0.35195 0.63592-0.47538 0.18599-0.12302 0.58171-0.34569 0.87945-0.49457 0.29773-0.14928 0.72683-0.34486 0.95407-0.43534 0.22727-0.0901 0.64802-0.24228 0.9345-0.3386 0.2869-0.0959 0.80273-0.2477 1.1468-0.33694 0.34403-0.0897 0.90698-0.21893 1.251-0.28731 0.34402-0.0684 0.88822-0.16347 1.2093-0.21101 0.3211-0.048 0.81855-0.11259 1.105-0.14344 0.2869-0.0313 0.52585-0.0588 0.53168-0.0613zm4.8789 0.0267c0.0859 0.008 0.40992 0.043 0.71933 0.078 0.30983 0.035 0.88778 0.11802 1.2844 0.18431 0.39698 0.0667 1.0162 0.18932 1.3761 0.27272 0.36029 0.0834 0.92701 0.23352 1.2593 0.3336 0.33277 0.10008 0.82065 0.2648 1.0842 0.3653 0.26354 0.10091 0.65052 0.26062 0.85942 0.35528 0.20892 0.0947 0.53751 0.25854 0.72975 0.36445 0.19266 0.1055 0.50875 0.29816 0.70265 0.42743 0.19391 0.12969 0.48497 0.36696 0.64635 0.5275 0.16138 0.16055 0.34903 0.3949 0.417 0.52125 0.0892 0.16638 0.12343 0.28648 0.12343 0.43785 0 0.13427-0.0355 0.28273-0.0993 0.417-0.0583 0.12176-0.23977 0.34945-0.4366 0.5471-0.18973 0.19057-0.51874 0.45745-0.7539 0.61133-0.22935 0.15012-0.64676 0.38823-0.92737 0.52876-0.28065 0.14052-0.7406 0.34611-1.0216 0.45703-0.28106 0.11134-0.72058 0.26939-0.97665 0.35195-0.25646 0.0826-0.71599 0.216-1.0216 0.29607-0.30567 0.0805-0.78105 0.19224-1.0563 0.24895-0.27522 0.0563-0.72558 0.14094-1.0008 0.18764s-0.81938 0.1226-1.2093 0.16889c-0.3899 0.0459-0.74184 0.0838-0.78188 0.0842h-0.073v-7.7812zm-4.8997 12.775c0.0171-0.002 0.0313 1.2155 0.0313 2.7063 0 1.9866-0.0125 2.7105-0.0471 2.7105-0.0259 0-0.26521-0.0487-0.53167-0.10842-0.26647-0.0592-0.73726-0.19098-1.0462-0.29231-0.30901-0.10133-0.77768-0.28857-1.042-0.41534-0.27076-0.12675-0.666-0.35025-0.88576-0.4965-0.21974-0.14625-0.522-0.396-0.67125-0.55425-0.14999-0.159-0.31275-0.37275-0.363-0.47475-0.0495-0.10275-0.09-0.2655-0.09-0.36225 0-0.10383 0.0417-0.25812 0.10216-0.37697 0.0559-0.11092 0.19432-0.30274 0.30733-0.42617s0.35319-0.33068 0.53376-0.45995c0.18097-0.12969 0.48038-0.31901 0.66553-0.42075 0.18515-0.10217 0.51834-0.26313 0.73976-0.3582 0.22184-0.0951 0.64885-0.24854 0.94912-0.34069 0.29982-0.0922 0.71765-0.20308 0.92783-0.24686 0.21016-0.0434 0.39656-0.0809 0.41366-0.083zm4.7746-0.004c0.0171 0 0.2377 0.0471 0.48998 0.10382 0.25228 0.0571 0.67137 0.17055 0.93158 0.25229 0.26021 0.0817 0.66345 0.23018 0.89655 0.32985 0.2331 0.0997 0.56462 0.26105 0.73642 0.3582 0.17222 0.0972 0.42534 0.2527 0.56295 0.34528 0.13761 0.0926 0.37697 0.29398 0.53168 0.44785 0.16888 0.16847 0.32275 0.36905 0.3853 0.50332 0.0571 0.12301 0.10384 0.29732 0.10425 0.38739 0.00042 0.0905-0.04 0.24812-0.0897 0.3507-0.05 0.10259-0.21266 0.31609-0.36236 0.47496-0.14971 0.15846-0.45162 0.40783-0.67138 0.55419-0.21975 0.14595-0.61549 0.36946-0.87945 0.49665-0.26438 0.12677-0.73308 0.314-1.042 0.41533-0.30899 0.10133-0.77977 0.2331-1.0462 0.29232-0.26646 0.0596-0.50582 0.10842-0.53167 0.10842-0.0346 0-0.0471-0.72392-0.0471-2.7105 0-1.4908 0.0142-2.7105 0.0313-2.71zm-4.7746 10.677c0.0171-0.002 0.0313 0.69223 0.0313 1.5408 0 0.84863-0.008 1.5429-0.0176 1.5429-0.01 0-0.18307-0.0583-0.38573-0.1301-0.20266-0.0713-0.51833-0.20516-0.70181-0.29732-0.18348-0.0922-0.4366-0.23769-0.56295-0.32359-0.12593-0.0855-0.31775-0.25021-0.42576-0.36612-0.108-0.11552-0.2085-0.25854-0.2235-0.31777-0.0146-0.0596-0.0146-0.15637 0-0.216 0.015-0.0592 0.1155-0.20224 0.2235-0.31775 0.10801-0.11593 0.29983-0.28064 0.42576-0.36613 0.12635-0.0859 0.3703-0.22726 0.5421-0.314 0.17222-0.0872 0.48164-0.22018 0.68805-0.29566 0.20642-0.0755 0.38948-0.13802 0.40658-0.13927zm4.7608-0.002c0.01 0 0.18306 0.0584 0.38572 0.13011 0.20267 0.0713 0.51833 0.20516 0.70181 0.29732 0.18348 0.0922 0.43702 0.23769 0.56295 0.32359 0.12636 0.0855 0.31775 0.2502 0.42576 0.36612 0.108 0.11552 0.2085 0.25854 0.22351 0.31777 0.0146 0.0596 0.0146 0.15637 0 0.21599-0.015 0.0593-0.11551 0.20225-0.22351 0.31776-0.10801 0.11593-0.2994 0.28064-0.42576 0.36612-0.12593 0.0859-0.37947 0.23144-0.56295 0.3236-0.18348 0.0922-0.49914 0.22601-0.70181 0.29732-0.20266 0.0717-0.37613 0.1301-0.38572 0.1301-0.01 0-0.0176-0.6943-0.0176-1.5429 0-0.84859 0.008-1.5429 0.0176-1.5429zm-2.3944 19.853c-24.131 0.002-28.496 0.0117-28.7 0.0605-0.13135 0.0321-0.33777 0.10759-0.45869 0.16847-0.12093 0.0609-0.30108 0.17639-0.40074 0.25729-0.0997 0.0809-0.2281 0.196-0.28607 0.25562-0.0576 0.0601-0.17514 0.21518-0.26105 0.34528-0.0859 0.1301-0.20058 0.37405-0.25479 0.5421-0.0759 0.23394-0.0992 0.39865-0.0992 0.70181s0.0233 0.46787 0.0992 0.70181c0.0542 0.16806 0.16889 0.412 0.25479 0.5421 0.0859 0.13011 0.2035 0.28523 0.26105 0.34528 0.058 0.0596 0.1864 0.17472 0.28607 0.25562 0.0996 0.0809 0.27896 0.19641 0.39906 0.25645 0.1201 0.0601 0.33569 0.1372 0.47955 0.17097 0.22935 0.0542 3.7546 0.0617 28.701 0.0617 25.2 0 28.47-0.007 28.706-0.0629 0.14678-0.0346 0.3924-0.12886 0.54585-0.20975 0.15388-0.0805 0.37947-0.24437 0.50165-0.36362 0.12219-0.11969 0.29107-0.3236 0.37572-0.4537 0.0842-0.1301 0.19766-0.37405 0.25187-0.5421 0.0759-0.23394 0.0992-0.39866 0.0992-0.70181 0-0.30316-0.0233-0.46788-0.0992-0.70182-0.0542-0.16805-0.16763-0.41199-0.25187-0.5421-0.0847-0.1301-0.25353-0.33401-0.37572-0.45369-0.12218-0.11926-0.34777-0.28314-0.50165-0.36363-0.15345-0.0809-0.39907-0.17514-0.54585-0.20975-0.23643-0.0559-3.502-0.0625-28.727-0.0601zm-0.0125 9.3818c-13.35 0.002-16.774 0.0142-16.948 0.0563-0.11968 0.0288-0.34486 0.11509-0.5004 0.19099-0.19182 0.0938-0.37655 0.2331-0.57546 0.43368-0.16429 0.16554-0.35153 0.40657-0.42617 0.54877-0.073 0.1397-0.1618 0.36404-0.19683 0.49873-0.035 0.13469-0.0638 0.40616-0.0638 0.60299 0 0.19682 0.0288 0.46829 0.0638 0.60298 0.035 0.13468 0.12385 0.35903 0.19683 0.49873 0.0742 0.14136 0.26271 0.38447 0.42617 0.5496 0.21684 0.21893 0.37447 0.33486 0.6059 0.44411 0.17222 0.0817 0.412 0.16888 0.53376 0.1939 0.15804 0.0329 4.9648 0.0459 16.918 0.0459s16.76-0.0129 16.918-0.0459c0.12176-0.025 0.36196-0.11217 0.53376-0.1939 0.23144-0.10925 0.38906-0.22518 0.60591-0.44411 0.16346-0.16513 0.35194-0.40824 0.42617-0.5496 0.073-0.1397 0.16179-0.36405 0.19682-0.49873 0.035-0.13469 0.0638-0.40616 0.0638-0.60298 0-0.19683-0.0288-0.4683-0.0638-0.60299-0.035-0.13468-0.12385-0.35903-0.19682-0.49873-0.0743-0.14137-0.26271-0.38447-0.42617-0.54961-0.21685-0.21892-0.37447-0.33485-0.60591-0.4441-0.1718-0.0817-0.412-0.16889-0.53376-0.19391-0.15846-0.0329-4.961-0.045-16.951-0.0421z" fill="black" stroke="none" stroke-width=".75" transform="matrix(1.0092,0,0,1.0092,-4.7026,-5.8495)"/><animateTransform attributeName="transform" type="translate" additive="sum" fill="freeze" calcMode="spline" values="0 0; 0 -100; 0 0" keyTimes="0; 0.5; 1" dur="3s" begin="-1.045087072271207s" repeatCount="indefinite" keySplines="0.42 0 0.58 1; 0.42 0 0.58 1"/></g></svg>