<svg xmlns="http://www.w3.org/2000/svg" width="512" height="512" viewBox="0 0 512 512"><g id="stroke-group"><path id="icon" d="m 100.14195,40.005879 c -19.234305,-0.0021 -35.027856,0.0021 -35.096288,0.0096 -0.06827,0.0071 -0.292291,0.03698 -0.497821,0.06649 -0.205172,0.02916 -0.557203,0.09423 -0.782291,0.144722 -0.224729,0.05014 -0.616943,0.159304 -0.871187,0.242867 -0.254245,0.08356 -0.622277,0.219754 -0.81785,0.302607 -0.195573,0.08249 -0.536936,0.246423 -0.758819,0.364118 -0.221532,0.117702 -0.589565,0.33745 -0.81785,0.488222 -0.227934,0.150766 -0.582452,0.408567 -0.787983,0.573563 -0.205172,0.164638 -0.557561,0.48324 -0.782674,0.708359 -0.225088,0.225088 -0.54369,0.577119 -0.70836,0.782675 -0.164989,0.205172 -0.423858,0.561469 -0.57605,0.791564 -0.152193,0.230063 -0.364118,0.582094 -0.471511,0.782291 -0.107386,0.200197 -0.270246,0.540134 -0.36234,0.755238 -0.09174,0.21513 -0.235046,0.599164 -0.318608,0.853408 -0.08356,0.254245 -0.192727,0.646132 -0.242867,0.871188 -0.05014,0.224729 -0.116634,0.57676 -0.147569,0.78229 -0.03094,0.205173 -0.07076,0.66922 -0.0889,1.031202 -0.0192,0.391855 -0.03236,20.784556 -0.03236,50.422327 0,29.63713 0.01316,50.03028 0.03236,50.42232 0.01814,0.36163 0.05796,0.82565 0.0889,1.03121 0.03093,0.20517 0.09708,0.55721 0.14721,0.78228 0.04978,0.22473 0.167836,0.64076 0.262425,0.92453 0.09459,0.28376 0.258868,0.70977 0.365896,0.94691 0.106676,0.23753 0.278426,0.58138 0.381546,0.76452 0.10312,0.18348 0.297273,0.49674 0.431328,0.69658 0.134055,0.19949 0.375502,0.5277 0.536578,0.72895 0.161082,0.20091 0.477554,0.54939 0.702987,0.77449 0.225439,0.22473 0.574272,0.54085 0.774808,0.70229 0.200907,0.16143 0.528756,0.40288 0.728249,0.53657 0.199839,0.13335 0.539424,0.34067 0.754535,0.46014 0.21513,0.11947 0.583162,0.30011 0.817849,0.4011 0.234688,0.10134 0.634723,0.25247 0.888967,0.33638 0.254245,0.0839 0.646452,0.19346 0.871188,0.24358 0.225087,0.0501 0.577118,0.11663 0.782291,0.14757 0.20553,0.0309 0.669539,0.0708 1.031201,0.0889 0.389009,0.0192 15.279997,0.0328 36.44764,0.0331 21.0116,0 35.99548,-0.0132 36.28775,-0.032 0.27381,-0.0178 0.66033,-0.0654 0.85911,-0.10596 0.19877,-0.0406 0.51097,-0.12232 0.69339,-0.18206 0.18277,-0.0593 0.50031,-0.18846 0.70548,-0.28625 0.20553,-0.0982 0.55756,-0.30011 0.78229,-0.44875 0.30439,-0.20127 0.52769,-0.38973 0.87298,-0.73573 0.33994,-0.34065 0.53729,-0.57534 0.73605,-0.87439 0.14935,-0.22509 0.35167,-0.57712 0.44982,-0.78229 0.0978,-0.20553 0.22686,-0.52271 0.28625,-0.70548 0.0597,-0.18242 0.14152,-0.49462 0.18241,-0.69339 0.0405,-0.19878 0.0882,-0.59311 0.10561,-0.87688 0.0185,-0.29975 0.0317,-22.20306 0.0317,-52.28915 0,-30.850991 -0.0135,-52.0391 -0.0328,-52.431141 -0.0181,-0.361989 -0.0579,-0.826036 -0.0889,-1.031202 -0.031,-0.20553 -0.0971,-0.557561 -0.14721,-0.782291 -0.0498,-0.225087 -0.16784,-0.641143 -0.26243,-0.924525 -0.0946,-0.28376 -0.25958,-0.711557 -0.36732,-0.950491 -0.10774,-0.239311 -0.27985,-0.58352 -0.38297,-0.764512 -0.10312,-0.181349 -0.2962,-0.493197 -0.42955,-0.69301 -0.13334,-0.199487 -0.37443,-0.527688 -0.53551,-0.728953 -0.16144,-0.200906 -0.47755,-0.550449 -0.70298,-0.776215 -0.22508,-0.226156 -0.57711,-0.544757 -0.78229,-0.708359 -0.20518,-0.16357 -0.56111,-0.422081 -0.79118,-0.574273 -0.23007,-0.152192 -0.5821,-0.364476 -0.78229,-0.471862 -0.19826,-0.117165 -0.55001,-0.284278 -0.77385,-0.381744 -0.23024,-0.0974 -0.59478,-0.235033 -0.81222,-0.30615 -0.22385,-0.07073 -0.5628,-0.168904 -0.76106,-0.217254 -0.19826,-0.04873 -0.5628,-0.123751 -0.80583,-0.167113 l -0.44448,-0.07859 z m 1.21788,3.977583 33.36312,0.01031 0.30225,0.06152 c 0.16641,0.03378 0.46404,0.108454 0.66173,0.166057 0.19771,0.05796 0.50778,0.169262 0.68911,0.247843 0.18135,0.07894 0.45907,0.218686 0.61659,0.311138 0.15788,0.09281 0.41568,0.263493 0.57321,0.379768 0.15752,0.115924 0.42812,0.348833 0.60165,0.516669 0.17353,0.168194 0.42493,0.44662 0.55898,0.618721 0.1337,0.172101 0.3243,0.447329 0.42315,0.611251 0.0992,0.163928 0.25034,0.456571 0.33639,0.650033 0.0857,0.193437 0.19593,0.486444 0.24535,0.651056 0.049,0.164638 0.1145,0.419235 0.14508,0.566093 0.031,0.146501 0.0718,0.410703 0.091,0.586718 0.0231,0.209438 0.0352,14.950632 0.0352,42.617326 0,27.666695 -0.0121,42.407555 -0.0352,42.617325 -0.0192,0.17602 -0.0601,0.43986 -0.091,0.58672 -0.0306,0.1465 -0.096,0.40145 -0.14508,0.56609 -0.0494,0.16464 -0.15965,0.45764 -0.24535,0.65106 -0.0861,0.19343 -0.23718,0.48608 -0.33639,0.65003 -0.0988,0.16392 -0.2898,0.43915 -0.42421,0.61125 -0.13406,0.1721 -0.37764,0.44306 -0.54085,0.60236 -0.16321,0.15931 -0.41426,0.3787 -0.55756,0.48822 -0.14295,0.10917 -0.39399,0.2795 -0.55756,0.37835 -0.16357,0.0988 -0.45586,0.24962 -0.64927,0.33567 -0.19344,0.0857 -0.48644,0.19593 -0.65106,0.24536 -0.16463,0.049 -0.41923,0.1145 -0.56609,0.14508 -0.1465,0.0309 -0.4107,0.0718 -0.58672,0.091 -0.20872,0.0231 -11.84052,0.0356 -33.46992,0.0356 l -33.147589,-0.006 V 43.96725 Z m 38.61698,98.029378 c 0.0146,-0.002 0.0267,1.34023 0.0267,2.98303 v 2.98667 H 71.783264 l -0.27487,0.0704 c -0.151483,0.0388 -0.357723,0.1145 -0.458707,0.1689 -0.101342,0.054 -0.297983,0.21051 -0.437372,0.34741 -0.159304,0.15646 -0.293001,0.32821 -0.359852,0.46226 -0.05867,0.11735 -0.135833,0.30118 -0.17175,0.40893 -0.04552,0.13583 -0.06543,0.29905 -0.06543,0.53338 3.55e-4,0.21797 0.02276,0.41355 0.06329,0.55116 0.03485,0.11734 0.11201,0.30118 0.17175,0.40892 0.05974,0.10739 0.170682,0.26989 0.246423,0.36092 0.07609,0.091 0.245713,0.23896 0.377632,0.32892 0.131925,0.0896 0.333893,0.19628 0.449459,0.23682 0.115207,0.0402 0.339227,0.0882 0.497821,0.10632 0.176016,0.0203 13.493749,0.0334 34.239932,0.0334 l 33.9515,3.6e-4 -0.0121,1.18232 -0.0125,1.18233 -0.0782,0.23362 c -0.043,0.12872 -0.1401,0.32856 -0.21584,0.44448 -0.0757,0.11593 -0.20019,0.27309 -0.27629,0.34919 -0.0761,0.0761 -0.23327,0.20055 -0.34919,0.27629 -0.11592,0.0757 -0.31576,0.17352 -0.44448,0.21691 l -0.23362,0.0796 -36.35875,0.009 c -32.698626,0.008 -36.401589,0.004 -36.785315,-0.0459 -0.234688,-0.0306 -0.554716,-0.0878 -0.711174,-0.12766 -0.156458,-0.0402 -0.436303,-0.12943 -0.622277,-0.19877 -0.185615,-0.0693 -0.449459,-0.1817 -0.58565,-0.25033 -0.136191,-0.0683 -0.352389,-0.18953 -0.480042,-0.26918 -0.127653,-0.0797 -0.356296,-0.2386 -0.508131,-0.3531 -0.151834,-0.1145 -0.41106,-0.34314 -0.57605,-0.50813 -0.16499,-0.165 -0.394701,-0.42457 -0.510625,-0.57677 -0.115924,-0.15218 -0.27629,-0.38403 -0.356655,-0.51524 -0.08037,-0.13157 -0.200548,-0.34705 -0.26669,-0.47933 -0.06649,-0.13264 -0.177435,-0.39293 -0.246775,-0.57854 -0.06934,-0.18597 -0.158594,-0.46582 -0.198418,-0.62228 -0.03982,-0.15646 -0.09743,-0.47329 -0.127653,-0.70407 -0.02987,-0.23077 -0.05476,-0.56361 -0.05476,-0.73925 0,-0.17566 0.01707,-0.47507 0.03805,-0.66494 0.02098,-0.18988 0.0697,-0.48929 0.108454,-0.66531 0.03876,-0.17602 0.11948,-0.46404 0.179213,-0.64006 0.05974,-0.17602 0.187393,-0.48218 0.283402,-0.68022 0.09637,-0.19806 0.264202,-0.49426 0.373366,-0.65783 0.109164,-0.16357 0.288383,-0.4075 0.398257,-0.54227 0.109522,-0.13442 0.343851,-0.37906 0.520576,-0.54369 0.176726,-0.165 0.465109,-0.40253 0.641144,-0.52876 0.176015,-0.12588 0.528046,-0.33247 0.782291,-0.45871 0.254244,-0.12623 0.613387,-0.27878 0.797575,-0.33887 0.184547,-0.0597 0.488574,-0.14437 0.675615,-0.18775 l 0.340295,-0.0786 34.811686,-0.0203 c 26.988141,-0.016 34.880111,-0.0302 35.114191,-0.0636 0.16641,-0.0239 0.45444,-0.0683 0.64005,-0.0992 0.18598,-0.031 0.54583,-0.10952 0.80007,-0.17459 0.25425,-0.0651 0.60414,-0.16855 0.77769,-0.23006 0.17353,-0.0619 0.48573,-0.1842 0.69339,-0.27239 0.20802,-0.0878 0.55828,-0.25709 0.77871,-0.37621 0.22047,-0.11876 0.58032,-0.33994 0.80007,-0.49106 0.21976,-0.15148 0.41142,-0.27701 0.426,-0.27914 z M 103.94487,49.950412 c -0.24037,0.0025 -0.55685,0.01814 -0.70369,0.03449 -0.1465,0.01671 -0.43453,0.0633 -0.64006,0.10383 -0.20517,0.04053 -0.56538,0.137611 -0.80007,0.21513 -0.23469,0.07787 -0.61872,0.235397 -0.85341,0.350253 -0.23468,0.114856 -0.57071,0.304027 -0.74673,0.419951 -0.17601,0.116275 -0.440216,0.306872 -0.587075,0.424216 -0.14721,0.116985 -0.395059,0.341005 -0.551159,0.497111 -0.156459,0.156458 -0.374434,0.395411 -0.484666,0.530893 -0.110232,0.135481 -0.289804,0.380119 -0.398967,0.543689 -0.109164,0.163212 -0.288026,0.472572 -0.397899,0.686999 -0.109522,0.21442 -0.260289,0.552579 -0.334962,0.75172 -0.07467,0.199129 -0.176725,0.529825 -0.227217,0.735349 -0.05049,0.205172 -0.115924,0.543338 -0.146149,0.751337 -0.03093,0.216198 -0.05405,0.619079 -0.0537,0.942304 3.56e-4,0.310429 0.02347,0.734645 0.0512,0.943392 0.02774,0.208377 0.09032,0.536227 0.139037,0.728953 0.04871,0.192375 0.139389,0.493908 0.201616,0.669923 0.06187,0.176016 0.188461,0.480042 0.280556,0.675615 0.09209,0.195573 0.25033,0.488574 0.351321,0.650736 0.100632,0.162502 0.275579,0.418173 0.388299,0.568229 0.113078,0.150057 0.355587,0.429902 0.539782,0.621919 0.184195,0.191659 0.47222,0.457997 0.640056,0.591694 0.167836,0.133703 0.444477,0.333541 0.614097,0.443773 0.16961,0.11059 0.49995,0.293359 0.73355,0.406789 0.23362,0.113078 0.56289,0.252825 0.73145,0.31007 l 0.30652,0.10383 v 3.319428 l -0.22225,-0.05085 c -0.12232,-0.02809 -0.36625,-0.09281 -0.54227,-0.143655 -0.17601,-0.0512 -0.49604,-0.161082 -0.71117,-0.244644 -0.21513,-0.08356 -0.51524,-0.209439 -0.667105,-0.279136 -0.151834,-0.07005 -0.407856,-0.202685 -0.568938,-0.295137 -0.161076,-0.09209 -0.421013,-0.249972 -0.577471,-0.350963 -0.156458,-0.100984 -0.468306,-0.351321 -0.693394,-0.556135 -0.224729,-0.204821 -0.570717,-0.555073 -0.768413,-0.77839 -0.197708,-0.223309 -0.489289,-0.579248 -0.648242,-0.790796 -0.158946,-0.211933 -0.379768,-0.531961 -0.49071,-0.711174 -0.11059,-0.179571 -0.294068,-0.464399 -0.407505,-0.633302 -0.113077,-0.168546 -0.337449,-0.472573 -0.498179,-0.675615 -0.160724,-0.202685 -0.509557,-0.586008 -0.775192,-0.852001 -0.262213,-0.264772 -0.647219,-0.615242 -0.853152,-0.778326 -0.204655,-0.163084 -0.56152,-0.42082 -0.791117,-0.573032 -0.230236,-0.152211 -0.583904,-0.36518 -0.78664,-0.473902 -0.201456,-0.108083 -0.532101,-0.269249 -0.734197,-0.357506 -0.201456,-0.08826 -0.567915,-0.230236 -0.8135,-0.315295 -0.246864,-0.0857 -0.647859,-0.205294 -0.892165,-0.265411 -0.244287,-0.06081 -0.644341,-0.142235 -0.888967,-0.181349 -0.244286,-0.03876 -0.6365,-0.08712 -0.871187,-0.107386 -0.234687,-0.01992 -0.794762,-0.03663 -1.244554,-0.03698 -0.449817,-3.55e-4 -1.049684,-0.01671 -1.33345,-0.03663 -0.283401,-0.01992 -0.747436,-0.06045 -1.031202,-0.09032 -0.283401,-0.03023 -0.773017,-0.09352 -1.087353,-0.140457 -0.314694,-0.04729 -0.818553,-0.135481 -1.120098,-0.19593 -0.301539,-0.06045 -0.777686,-0.166058 -1.057871,-0.233978 -0.280203,-0.06827 -0.752424,-0.194504 -1.048981,-0.280555 -0.296556,-0.08641 -0.774104,-0.236824 -1.061068,-0.33461 -0.286605,-0.09814 -0.782674,-0.280913 -1.102319,-0.406789 -0.319318,-0.125875 -0.7805,-0.320028 -1.025126,-0.432037 -0.244287,-0.111652 -0.613029,-0.273092 -0.819256,-0.358785 -0.20624,-0.0857 -0.502446,-0.189881 -0.657836,-0.231489 -0.175657,-0.0473 -0.438081,-0.0825 -0.691987,-0.09281 -0.30189,-0.0128 -0.47293,-0.0021 -0.653934,0.04018 -0.134413,0.03165 -0.358433,0.116276 -0.497821,0.188461 -0.169614,0.08819 -0.340654,0.219754 -0.519515,0.399677 -0.146501,0.147569 -0.320386,0.359501 -0.385812,0.471511 -0.06578,0.11201 -0.160372,0.304027 -0.210154,0.426704 -0.04978,0.122677 -0.120542,0.33532 -0.157526,0.47222 -0.03698,0.136901 -0.07609,0.432748 -0.08712,0.657836 -0.01422,0.293717 -0.0036,0.509199 0.03805,0.764511 0.032,0.195573 0.09956,0.539424 0.149705,0.764512 0.05014,0.224729 0.171391,0.656428 0.269178,0.958677 0.09814,0.302249 0.24962,0.717249 0.337097,0.921712 0.08748,0.20482 0.236824,0.527688 0.332474,0.717952 0.0953,0.190239 0.256381,0.487512 0.358075,0.66065 0.1017,0.173169 0.293359,0.474708 0.425994,0.670306 0.132635,0.195573 0.381546,0.531602 0.552937,0.746732 0.171392,0.21513 0.566803,0.645365 0.878287,0.956503 l 0.566802,0.565025 0.0096,0.608411 c 0.0061,0.3883 0.03663,0.791565 0.08498,1.116517 0.04125,0.279494 0.12161,0.687702 0.178504,0.906746 0.05653,0.219044 0.15397,0.54156 0.21584,0.716866 0.06223,0.175305 0.181707,0.47435 0.26598,0.664231 0.08427,0.18988 0.252824,0.518446 0.374434,0.73036 0.121609,0.211574 0.298335,0.496753 0.392923,0.633654 0.09459,0.136901 0.278778,0.382614 0.409993,0.546184 0.130857,0.163211 0.396479,0.454792 0.590632,0.647858 0.193795,0.193085 0.499599,0.468665 0.678813,0.612319 0.179571,0.144013 0.446619,0.341722 0.59312,0.439508 0.146858,0.09814 0.379058,0.243219 0.51631,0.322874 l 0.249269,0.144723 0.226866,0.865879 c 0.124813,0.476128 0.314336,1.137174 0.42137,1.469289 0.107034,0.332116 0.266332,0.772314 0.353451,0.977864 0.08748,0.205882 0.232199,0.509909 0.321448,0.676318 0.08925,0.166416 0.242157,0.42208 0.339943,0.568939 0.09743,0.1465 0.250331,0.36163 0.339585,0.477906 0.0889,0.115924 0.282692,0.332832 0.43026,0.48182 0.147569,0.148988 0.391856,0.368742 0.54227,0.488222 0.150766,0.119121 0.415327,0.304385 0.588138,0.411412 0.172818,0.106676 0.401103,0.238244 0.507421,0.29194 0.105966,0.05405 0.363766,0.166767 0.572853,0.250688 0.208728,0.08392 0.550449,0.201617 0.758436,0.260998 0.208376,0.05974 0.566092,0.147569 0.794761,0.195215 0.228996,0.04765 0.608054,0.11201 0.842728,0.142945 0.234688,0.03129 0.676319,0.07218 0.981445,0.09103 0.364119,0.02276 0.630099,0.0224 0.773401,-3.55e-4 0.12019,-0.01956 0.556852,-0.15539 0.970381,-0.302249 0.413191,-0.146859 1.077057,-0.37052 1.474982,-0.497111 0.397899,-0.126592 0.999928,-0.308293 1.337351,-0.40395 0.337808,-0.09565 0.934119,-0.254602 1.325264,-0.35345 0.391146,-0.09886 1.092342,-0.261356 1.558506,-0.360921 0.466177,-0.09992 1.271223,-0.252824 1.789318,-0.340295 0.517737,-0.08748 1.320659,-0.206598 1.784009,-0.264554 0.462973,-0.05796 1.098043,-0.128721 1.410963,-0.157526 0.31292,-0.02845 0.68489,-0.06187 0.82673,-0.07396 l 0.25781,-0.02205 v 3.020697 l -0.27558,0.02347 c -0.15148,0.0128 -0.5636,0.05512 -0.91563,0.09423 -0.35203,0.03876 -0.961497,0.124455 -1.354433,0.190239 -0.393282,0.06578 -0.972172,0.177435 -1.287211,0.247491 -0.314695,0.07041 -0.873298,0.214061 -1.240972,0.319669 -0.368033,0.105257 -0.884682,0.270246 -1.148878,0.366613 -0.263844,0.09637 -0.663911,0.252825 -0.888967,0.347407 -0.22473,0.09494 -0.618363,0.279494 -0.874001,0.410344 -0.256023,0.130858 -0.629031,0.339586 -0.829554,0.464399 -0.200548,0.124814 -0.535158,0.353809 -0.743918,0.508847 -0.208728,0.155039 -0.579606,0.48324 -0.823925,0.728953 -0.244645,0.245713 -0.548672,0.594898 -0.675615,0.775896 -0.127301,0.180991 -0.307224,0.477196 -0.400035,0.657835 -0.09281,0.180991 -0.225439,0.502797 -0.294779,0.715459 -0.06934,0.212284 -0.151124,0.548313 -0.181349,0.746732 -0.04018,0.262424 -0.05014,0.509557 -0.03663,0.911351 0.01458,0.424216 0.03947,0.634722 0.109164,0.913525 0.04978,0.199487 0.147211,0.503513 0.21655,0.675615 0.06934,0.172459 0.200197,0.441285 0.290871,0.597744 0.09068,0.156458 0.252467,0.4043 0.359853,0.551159 0.107034,0.1465 0.396479,0.467238 0.643254,0.712261 0.246774,0.244996 0.600941,0.560049 0.786575,0.699789 0.185973,0.140099 0.506002,0.360211 0.711174,0.488932 0.20553,0.129079 0.653934,0.375502 0.99673,0.547962 0.342783,0.172101 0.858716,0.405727 1.146767,0.519156 l 0.523781,0.205883 -0.349543,0.362698 c -0.192017,0.199487 -0.448398,0.510625 -0.569297,0.691603 -0.121258,0.180992 -0.282334,0.459775 -0.358433,0.619431 -0.07574,0.159656 -0.185615,0.426346 -0.243935,0.592762 -0.05867,0.166058 -0.132635,0.43026 -0.16499,0.586718 -0.03236,0.156458 -0.07432,0.432396 -0.09281,0.613387 -0.02631,0.251047 -0.02169,0.424217 0.01849,0.728953 0.02916,0.220106 0.09352,0.551869 0.143654,0.737139 0.04978,0.185615 0.147569,0.48182 0.216908,0.657837 0.06934,0.17637 0.214772,0.47898 0.323226,0.67203 0.108096,0.19309 0.313984,0.50707 0.457287,0.6973 0.143303,0.19024 0.420302,0.49782 0.615523,0.68342 0.195215,0.18561 0.4996,0.43665 0.676702,0.55791 0.177084,0.12126 0.44804,0.28767 0.601652,0.36981 l 0.279845,0.1497 -0.270604,0.3243 c -0.148636,0.1785 -0.348833,0.45622 -0.444125,0.61694 -0.0953,0.16108 -0.228644,0.42742 -0.295847,0.59205 -0.06685,0.16499 -0.162502,0.45515 -0.212284,0.64537 -0.07148,0.27273 -0.09423,0.4619 -0.107744,0.89677 -0.01493,0.47151 -0.0064,0.6052 0.05903,0.92452 0.04231,0.20517 0.139037,0.52947 0.215488,0.72045 0.07645,0.19095 0.204104,0.45871 0.283759,0.59525 0.07965,0.13619 0.238602,0.3723 0.353099,0.52413 0.114498,0.15184 0.366613,0.42955 0.56005,0.6173 0.193436,0.18775 0.486795,0.44093 0.651056,0.56325 0.164638,0.12197 0.449459,0.31008 0.632944,0.41817 0.183127,0.10775 0.484308,0.26669 0.668516,0.35274 0.184547,0.0861 0.48324,0.21193 0.663911,0.2795 0.18063,0.0676 0.43274,0.15468 0.55969,0.19343 0.1273,0.0391 0.43915,0.12055 0.69339,0.18064 0.25425,0.0601 0.49747,0.11699 0.54049,0.12588 l 0.0782,0.0167 0.0107,2.28464 0.0107,2.28427 0.0942,0.25815 c 0.0519,0.14224 0.14366,0.33426 0.20376,0.42671 0.0601,0.0928 0.15681,0.21868 0.21477,0.2802 0.0583,0.0615 0.17459,0.16748 0.25887,0.23575 0.0839,0.0683 0.23646,0.16642 0.33887,0.21762 0.10241,0.0512 0.28625,0.11699 0.40893,0.14579 0.12267,0.0292 0.33496,0.0526 0.47186,0.0526 0.1369,0 0.35132,-0.0242 0.47649,-0.0537 0.12516,-0.0295 0.33461,-0.10988 0.46546,-0.17886 0.13121,-0.0686 0.32323,-0.20802 0.4267,-0.30936 0.10348,-0.10134 0.24287,-0.26669 0.30972,-0.36732 0.0665,-0.10028 0.16428,-0.30083 0.21691,-0.4452 l 0.096,-0.26242 0.0107,-2.28426 0.0107,-2.28465 0.0782,-0.0178 c 0.043,-0.01 0.23042,-0.0505 0.41603,-0.0907 0.18597,-0.0405 0.50138,-0.1209 0.70088,-0.17886 0.19984,-0.0579 0.50386,-0.15931 0.67561,-0.22473 0.1721,-0.0658 0.46724,-0.19167 0.65643,-0.2802 0.18917,-0.0882 0.49392,-0.24892 0.67702,-0.35666 0.18348,-0.10809 0.46866,-0.2962 0.63401,-0.41817 0.16535,-0.12196 0.45835,-0.3755 0.65074,-0.56325 0.19273,-0.18775 0.44413,-0.46546 0.55898,-0.6173 0.11485,-0.15183 0.27381,-0.38794 0.35345,-0.52413 0.0797,-0.13654 0.20731,-0.4043 0.28376,-0.59525 0.0764,-0.19096 0.17175,-0.50956 0.21193,-0.70836 0.0498,-0.245 0.0733,-0.49782 0.0733,-0.78658 0,-0.23397 -0.0242,-0.5636 -0.0537,-0.73253 -0.0295,-0.1689 -0.10098,-0.45515 -0.15859,-0.63579 -0.0579,-0.18063 -0.17779,-0.47009 -0.26598,-0.64326 -0.0885,-0.17316 -0.23291,-0.41639 -0.32144,-0.54013 -0.0885,-0.1241 -0.2475,-0.32643 -0.35275,-0.44911 l -0.19166,-0.22331 0.28127,-0.15005 c 0.15468,-0.0829 0.42528,-0.24927 0.60129,-0.36981 0.17602,-0.12055 0.47436,-0.36519 0.66315,-0.54405 0.18882,-0.1785 0.45444,-0.46831 0.59027,-0.64396 0.13584,-0.17601 0.33141,-0.46404 0.43489,-0.64005 0.10383,-0.17637 0.25317,-0.47293 0.33211,-0.65854 0.0789,-0.18597 0.18526,-0.481825 0.23612,-0.657841 0.0508,-0.176015 0.11841,-0.46404 0.15005,-0.640056 0.0317,-0.176015 0.0562,-0.488222 0.0544,-0.693394 -0.002,-0.216198 -0.0328,-0.52449 -0.0736,-0.732854 -0.0391,-0.197351 -0.12019,-0.506711 -0.18064,-0.686615 -0.0604,-0.180281 -0.17353,-0.461195 -0.2514,-0.624765 -0.0782,-0.163211 -0.24073,-0.444841 -0.36198,-0.625832 -0.1209,-0.180991 -0.37658,-0.491778 -0.56823,-0.69058 l -0.34777,-0.361279 0.52307,-0.207308 c 0.28803,-0.113788 0.81926,-0.355945 1.18124,-0.537646 0.36199,-0.181708 0.87368,-0.473641 1.13788,-0.648562 0.2642,-0.175306 0.60876,-0.422439 0.7663,-0.54974 0.15753,-0.127301 0.46475,-0.416746 0.68271,-0.643638 0.23007,-0.239311 0.50102,-0.568938 0.64646,-0.786575 0.13796,-0.206241 0.31398,-0.506002 0.39149,-0.666725 0.0772,-0.160373 0.18135,-0.417457 0.23078,-0.570717 0.0498,-0.153261 0.11877,-0.409283 0.15326,-0.568939 0.0469,-0.217618 0.0622,-0.450175 0.0618,-0.930217 -6.4e-4,-0.481462 -0.0167,-0.712965 -0.0647,-0.934119 -0.0352,-0.161792 -0.10917,-0.428124 -0.16463,-0.592052 -0.0555,-0.163928 -0.16713,-0.429902 -0.24856,-0.590632 -0.0811,-0.161082 -0.20482,-0.382614 -0.27487,-0.492488 -0.0704,-0.109874 -0.20126,-0.295847 -0.29123,-0.41319 -0.0896,-0.117344 -0.29051,-0.345987 -0.4459,-0.508489 -0.15539,-0.16215 -0.41177,-0.403949 -0.5693,-0.537646 -0.15787,-0.133345 -0.46297,-0.362699 -0.6781,-0.509557 -0.21513,-0.146501 -0.56681,-0.367674 -0.78191,-0.491068 -0.21478,-0.123387 -0.58281,-0.315053 -0.81785,-0.426346 -0.23469,-0.110942 -0.61908,-0.278068 -0.85379,-0.370878 -0.23469,-0.09316 -0.68451,-0.254603 -0.99955,-0.359143 -0.3154,-0.10454 -0.88327,-0.269888 -1.26233,-0.367322 -0.37941,-0.09779 -0.9416,-0.226156 -1.24954,-0.285889 -0.30794,-0.05974 -0.81996,-0.148279 -1.13826,-0.196641 -0.31789,-0.048 -0.89357,-0.12019 -1.27903,-0.159656 -0.38581,-0.03982 -0.73356,-0.07218 -0.7734,-0.07218 h -0.0718 v -3.028499 l 0.27558,0.02276 c 0.15149,0.0128 0.60379,0.05512 1.00454,0.09423 0.4011,0.03947 1.03081,0.11059 1.39958,0.158594 0.36874,0.048 1.08882,0.157878 1.60014,0.244287 0.51132,0.08641 1.27371,0.229712 1.69402,0.31825 0.4203,0.0889 1.11652,0.248911 1.5468,0.355587 0.43026,0.106676 1.14389,0.298335 1.58627,0.425636 0.44234,0.127653 1.16243,0.350963 1.60014,0.496753 0.43772,0.145791 1.06036,0.358075 1.38288,0.471863 l 0.58672,0.206598 0.4676,-0.0061 c 0.25744,-0.0032 0.64146,-0.02311 0.85341,-0.04445 0.21228,-0.02098 0.554,-0.06259 0.7592,-0.09209 0.20553,-0.02952 0.55756,-0.09459 0.78229,-0.144371 0.22473,-0.04978 0.63188,-0.16357 0.90464,-0.252825 0.28874,-0.09423 0.71226,-0.271314 1.01342,-0.423148 0.28482,-0.143303 0.66851,-0.368742 0.85302,-0.500667 0.18455,-0.132277 0.47044,-0.367675 0.63508,-0.523423 0.16499,-0.155748 0.39292,-0.397547 0.50742,-0.537294 0.11414,-0.139747 0.2962,-0.386521 0.40466,-0.548672 0.10845,-0.16215 0.29158,-0.4804 0.40679,-0.707272 0.11521,-0.227217 0.28269,-0.598095 0.37159,-0.824245 0.0892,-0.226507 0.23291,-0.650352 0.31967,-0.942305 0.0864,-0.291939 0.25105,-0.887879 0.3659,-1.324176 l 0.20837,-0.793291 0.19593,-0.110942 c 0.1081,-0.06116 0.3595,-0.220106 0.55863,-0.353099 0.19948,-0.132987 0.51133,-0.365545 0.69339,-0.517021 0.18207,-0.151124 0.47933,-0.426346 0.66033,-0.611609 0.18099,-0.184905 0.45657,-0.499241 0.61232,-0.697999 0.1561,-0.199128 0.38296,-0.520224 0.50457,-0.713667 0.12161,-0.193437 0.31328,-0.53338 0.42529,-0.755238 0.11236,-0.222242 0.27807,-0.60414 0.36838,-0.849124 0.0903,-0.245355 0.21087,-0.6269 0.26776,-0.848419 0.0572,-0.221174 0.13761,-0.631167 0.17886,-0.910648 0.0473,-0.320738 0.0786,-0.732854 0.0846,-1.116517 l 0.01,-0.608053 0.5668,-0.565383 c 0.31185,-0.311138 0.70727,-0.741424 0.87867,-0.956503 0.17139,-0.21513 0.4203,-0.551159 0.55294,-0.746732 0.13263,-0.195572 0.32429,-0.497111 0.42599,-0.670306 0.1017,-0.17317 0.26207,-0.469017 0.35665,-0.657836 0.0946,-0.188819 0.24002,-0.503155 0.32323,-0.698702 0.0836,-0.195573 0.23611,-0.611609 0.33923,-0.924526 0.10312,-0.312916 0.23576,-0.792971 0.29514,-1.06676 0.059,-0.273802 0.12659,-0.632586 0.15041,-0.797256 0.026,-0.181349 0.0342,-0.448039 0.021,-0.675615 -0.0121,-0.20695 -0.0519,-0.488222 -0.0885,-0.625123 -0.0366,-0.1369 -0.10738,-0.349543 -0.15717,-0.47222 -0.0497,-0.122677 -0.14437,-0.313626 -0.21015,-0.423858 -0.0654,-0.110232 -0.21229,-0.301181 -0.32643,-0.424216 -0.11379,-0.123036 -0.30829,-0.287667 -0.43239,-0.365897 -0.12375,-0.07823 -0.32679,-0.178503 -0.45053,-0.222599 -0.19237,-0.06827 -0.2987,-0.08037 -0.72327,-0.08143 -0.4107,-7.04e-4 -0.5508,0.01315 -0.80007,0.08072 -0.16605,0.04516 -0.47008,0.151482 -0.67561,0.236465 -0.20517,0.08463 -0.5732,0.245713 -0.81785,0.357365 -0.24429,0.112009 -0.74034,0.319318 -1.10232,0.461194 -0.36163,0.141877 -0.92983,0.347407 -1.26233,0.456571 -0.33247,0.109164 -0.77232,0.246423 -0.97786,0.305095 -0.20518,0.05831 -0.56539,0.154322 -0.80008,0.212994 -0.23468,0.05867 -0.65853,0.154322 -0.9423,0.212642 -0.2834,0.05867 -0.76342,0.146858 -1.06676,0.195931 -0.30296,0.04942 -0.7592,0.114146 -1.01342,0.14437 -0.25425,0.03022 -0.64645,0.07183 -0.87119,0.09281 -0.22473,0.02098 -1.04898,0.05227 -1.83127,0.06934 -1.14216,0.02525 -1.52052,0.04587 -1.92017,0.105966 -0.2738,0.04089 -0.69128,0.120899 -0.92772,0.177793 -0.23647,0.05725 -0.61055,0.16215 -0.83103,0.233267 -0.22046,0.07112 -0.56929,0.200197 -0.77551,0.286606 -0.20624,0.08641 -0.5892,0.268468 -0.8513,0.404301 -0.26206,0.136191 -0.63967,0.354167 -0.83921,0.484666 -0.19913,0.130147 -0.49035,0.333541 -0.64683,0.451595 -0.15646,0.118412 -0.46085,0.370168 -0.67632,0.559339 -0.21549,0.189529 -0.52911,0.494976 -0.69698,0.678813 -0.16783,0.183485 -0.41354,0.469732 -0.54618,0.636142 -0.13228,0.166058 -0.37692,0.510267 -0.54334,0.764511 -0.16641,0.254245 -0.39256,0.598096 -0.50208,0.764512 -0.10953,0.166058 -0.3531,0.494265 -0.54121,0.728953 -0.1881,0.234687 -0.53231,0.616233 -0.76489,0.8481 -0.23255,0.231489 -0.5668,0.538004 -0.74283,0.680923 -0.17602,0.142592 -0.46404,0.350611 -0.64006,0.461904 -0.17601,0.110942 -0.54405,0.311497 -0.81785,0.445193 -0.2738,0.133704 -0.70586,0.314337 -0.96047,0.401455 -0.25424,0.08712 -0.60627,0.193437 -0.78229,0.236107 -0.17565,0.04303 -0.34776,0.08605 -0.38189,0.09601 l -0.0622,0.01742 v -3.330748 l 0.30865,-0.10454 c 0.16961,-0.0576 0.50956,-0.203394 0.75562,-0.323584 0.24571,-0.120541 0.59098,-0.314694 0.76701,-0.431328 0.17601,-0.116633 0.44092,-0.30936 0.58849,-0.428482 0.14793,-0.119479 0.41995,-0.374434 0.6045,-0.56716 0.1849,-0.192375 0.42812,-0.472931 0.5412,-0.622987 0.11272,-0.150056 0.28767,-0.405727 0.3883,-0.568229 0.10099,-0.16215 0.25923,-0.455151 0.35132,-0.650737 0.0921,-0.195572 0.21727,-0.496753 0.27807,-0.669219 0.0608,-0.172459 0.14366,-0.444483 0.18455,-0.604497 0.0409,-0.160014 0.0985,-0.418883 0.12801,-0.575341 0.0292,-0.156458 0.0618,-0.573914 0.0725,-0.928107 0.0118,-0.393281 0.003,-0.78018 -0.0224,-0.995643 -0.0228,-0.193436 -0.0722,-0.504575 -0.11024,-0.691283 -0.038,-0.186325 -0.12658,-0.514533 -0.19699,-0.728953 -0.0701,-0.21442 -0.21442,-0.571785 -0.32074,-0.793995 -0.10632,-0.2226 -0.26704,-0.526626 -0.35736,-0.675231 -0.0907,-0.148988 -0.24891,-0.382965 -0.35239,-0.520224 -0.10347,-0.136901 -0.29336,-0.369453 -0.42244,-0.515959 -0.12907,-0.146859 -0.37443,-0.391504 -0.54547,-0.544048 -0.17103,-0.152192 -0.50315,-0.406789 -0.73784,-0.565383 -0.23468,-0.158946 -0.61872,-0.381546 -0.85341,-0.494975 -0.23468,-0.113788 -0.61872,-0.270246 -0.8534,-0.348117 -0.23469,-0.07787 -0.58672,-0.173528 -0.78229,-0.212642 -0.19558,-0.03911 -0.51098,-0.08783 -0.70088,-0.108454 -0.18988,-0.02063 -0.54191,-0.03556 -0.78229,-0.03307 z m -1.95714,35.095644 c 0.005,-0.0021 0.009,1.493848 0.009,3.324352 v 3.328318 l -0.22224,-0.02347 c -0.12232,-0.0128 -0.47435,-0.05441 -0.78267,-0.09316 -0.30829,-0.0384 -0.82853,-0.118764 -1.155659,-0.178862 -0.327498,-0.05974 -0.8481,-0.172459 -1.157447,-0.249978 -0.309003,-0.07752 -0.797257,-0.218328 -1.08454,-0.312559 -0.287315,-0.09423 -0.674208,-0.231489 -0.860187,-0.305094 -0.185615,-0.07325 -0.545826,-0.236824 -0.80007,-0.363409 -0.254245,-0.126233 -0.615875,-0.330337 -0.803972,-0.453373 -0.188103,-0.123035 -0.454793,-0.330337 -0.59312,-0.460843 -0.13832,-0.130499 -0.299761,-0.312558 -0.358432,-0.4043 -0.05903,-0.09174 -0.125876,-0.238953 -0.148989,-0.326782 -0.032,-0.1209 -0.03236,-0.196283 -0.0018,-0.307941 0.02205,-0.08107 0.105966,-0.246065 0.186324,-0.365896 0.08001,-0.12019 0.259937,-0.315052 0.399677,-0.433106 0.139389,-0.118053 0.383324,-0.300113 0.54227,-0.405369 0.158594,-0.104898 0.496044,-0.294779 0.74993,-0.421728 0.253886,-0.127302 0.619789,-0.294069 0.813565,-0.37123 0.193794,-0.07681 0.552579,-0.206599 0.796872,-0.288735 0.244645,-0.08178 0.684504,-0.211216 0.977863,-0.287316 0.29336,-0.07645 0.773402,-0.186683 1.066761,-0.244996 0.293359,-0.05831 0.757414,-0.139389 1.031204,-0.17993 0.2738,-0.04089 0.698,-0.09601 0.9423,-0.122319 0.24465,-0.02667 0.4484,-0.05014 0.45338,-0.05227 z m 4.16037,0.02276 c 0.0733,0.0068 0.34954,0.03663 0.61339,0.06649 0.2642,0.02987 0.75703,0.100633 1.09522,0.157168 0.33851,0.05689 0.86658,0.161434 1.17343,0.232552 0.30723,0.07112 0.79048,0.199128 1.07386,0.284469 0.28376,0.08534 0.69979,0.225797 0.92453,0.311496 0.22473,0.08605 0.55471,0.222242 0.73285,0.302959 0.17815,0.08072 0.45835,0.220464 0.62228,0.31078 0.16428,0.08996 0.43381,0.254245 0.59916,0.364477 0.16535,0.11059 0.41354,0.312916 0.55116,0.449817 0.13761,0.136901 0.29763,0.336739 0.35559,0.444483 0.0761,0.141877 0.10525,0.244287 0.10525,0.373366 0,0.114498 -0.0303,0.24109 -0.0846,0.355587 -0.0498,0.10383 -0.20447,0.297983 -0.3723,0.466529 -0.16179,0.162502 -0.44235,0.390077 -0.64287,0.521292 -0.19557,0.128012 -0.55151,0.331054 -0.7908,0.450886 -0.23931,0.119831 -0.63152,0.295137 -0.87119,0.389725 -0.23966,0.09494 -0.61445,0.229712 -0.83281,0.300113 -0.21869,0.07041 -0.61054,0.184195 -0.87119,0.252467 -0.26064,0.06863 -0.66602,0.163928 -0.90073,0.212284 -0.23469,0.048 -0.61872,0.120189 -0.85341,0.160014 -0.23469,0.03982 -0.6987,0.10454 -1.0312,0.144012 -0.33248,0.03911 -0.63259,0.07148 -0.66673,0.07183 h -0.0622 v -6.635274 z m -4.17814,10.893361 c 0.0146,-0.0021 0.0267,1.03651 0.0267,2.307732 0,1.694026 -0.0107,2.311321 -0.0402,2.311321 -0.0221,0 -0.22615,-0.0416 -0.45337,-0.0924 -0.22722,-0.0505 -0.62868,-0.16286 -0.89217,-0.24927 -0.26349,-0.0864 -0.66314,-0.246073 -0.88858,-0.354175 -0.230875,-0.108083 -0.567915,-0.298667 -0.755302,-0.423379 -0.187386,-0.124711 -0.445123,-0.337679 -0.572392,-0.472623 -0.127909,-0.135583 -0.26669,-0.317854 -0.30954,-0.404832 -0.04221,-0.08762 -0.07675,-0.226398 -0.07675,-0.3089 0,-0.08854 0.03556,-0.220105 0.08712,-0.321447 0.04765,-0.09459 0.165706,-0.258159 0.262066,-0.363409 0.09637,-0.105256 0.301181,-0.281981 0.455151,-0.392213 0.154322,-0.11059 0.409635,-0.272024 0.567519,-0.358785 0.157878,-0.08712 0.441995,-0.224377 0.630808,-0.305446 0.18918,-0.08107 0.5533,-0.211932 0.80935,-0.290513 0.25566,-0.07859 0.61196,-0.17317 0.79118,-0.210506 0.17921,-0.03698 0.33816,-0.06898 0.35274,-0.07076 z m 4.07146,-0.0032 c 0.0146,0 0.20269,0.04018 0.41782,0.08854 0.21513,0.04871 0.57249,0.145432 0.79438,0.21513 0.22189,0.0697 0.56574,0.196283 0.76451,0.281272 0.19877,0.08498 0.48147,0.222599 0.62797,0.305446 0.14685,0.08285 0.36269,0.215488 0.48004,0.294427 0.11734,0.07894 0.32145,0.250689 0.45337,0.381898 0.14401,0.143654 0.27522,0.314694 0.32856,0.429192 0.0487,0.104898 0.0885,0.253534 0.0889,0.330337 3.6e-4,0.07716 -0.0342,0.211574 -0.0765,0.299051 -0.0427,0.08748 -0.18135,0.269536 -0.30901,0.405011 -0.12765,0.135123 -0.3851,0.347765 -0.57249,0.472572 -0.18739,0.124456 -0.52485,0.315053 -0.74993,0.423507 -0.22545,0.108095 -0.62512,0.26775 -0.88858,0.35416 -0.26349,0.0864 -0.66494,0.19877 -0.89217,0.24926 -0.22722,0.0508 -0.43133,0.0925 -0.45337,0.0925 -0.0295,0 -0.0402,-0.6173 -0.0402,-2.311312 0,-1.271223 0.0121,-2.311314 0.0267,-2.31093 z m -4.07146,9.104553 c 0.0146,-0.001 0.0267,0.59027 0.0267,1.31388 0,0.72364 -0.007,1.31567 -0.015,1.31567 -0.008,0 -0.15611,-0.0498 -0.32892,-0.11094 -0.17282,-0.0608 -0.44199,-0.17495 -0.59845,-0.25354 -0.15646,-0.0786 -0.3723,-0.20268 -0.48004,-0.27593 -0.10739,-0.0729 -0.27096,-0.21336 -0.36306,-0.3122 -0.0921,-0.0985 -0.17779,-0.22047 -0.19059,-0.27097 -0.0125,-0.0508 -0.0125,-0.13334 0,-0.18418 0.0128,-0.0505 0.0985,-0.17246 0.19059,-0.27097 0.0921,-0.0988 0.25567,-0.2393 0.36306,-0.3122 0.10774,-0.0733 0.31576,-0.19379 0.46226,-0.26775 0.14686,-0.0743 0.4107,-0.18776 0.58672,-0.25212 0.17601,-0.0644 0.33211,-0.11769 0.34669,-0.11876 z m 4.0597,-0.002 c 0.008,0 0.1561,0.0498 0.32891,0.11094 0.17282,0.0608 0.442,0.17495 0.59846,0.25354 0.15646,0.0786 0.37265,0.20268 0.48004,0.27594 0.10774,0.0729 0.27096,0.21335 0.36306,0.3122 0.0921,0.0985 0.17779,0.22046 0.19059,0.27096 0.0125,0.0508 0.0125,0.13334 0,0.18419 -0.0128,0.0505 -0.0985,0.17246 -0.19059,0.27096 -0.0921,0.0988 -0.25532,0.2393 -0.36306,0.3122 -0.10739,0.0733 -0.32358,0.19735 -0.48004,0.27594 -0.15646,0.0786 -0.42564,0.19272 -0.59846,0.25353 -0.17281,0.0611 -0.32073,0.11094 -0.32891,0.11094 -0.008,0 -0.015,-0.59205 -0.015,-1.31567 0,-0.72362 0.007,-1.31567 0.015,-1.31567 z m -2.04181,16.92938 c -20.577348,0.002 -24.299497,0.01 -24.472813,0.0516 -0.11201,0.0274 -0.288026,0.0917 -0.391146,0.14366 -0.10312,0.0519 -0.256732,0.15041 -0.341721,0.2194 -0.08498,0.069 -0.194505,0.16712 -0.243935,0.21797 -0.04907,0.0512 -0.149347,0.18348 -0.2226,0.29442 -0.07325,0.11095 -0.17104,0.31896 -0.217266,0.46227 -0.06472,0.19948 -0.08463,0.33994 -0.08463,0.59845 0,0.25851 0.01991,0.39897 0.08463,0.59845 0.04623,0.14331 0.144013,0.35133 0.217266,0.46227 0.07325,0.11094 0.173528,0.24322 0.2226,0.29442 0.04942,0.0508 0.158946,0.14899 0.243935,0.21797 0.08498,0.069 0.237885,0.16749 0.340295,0.21869 0.10241,0.0512 0.286247,0.11699 0.408925,0.14579 0.195573,0.0462 3.201687,0.0526 24.47409,0.0526 21.48869,0 24.27711,-0.006 24.47856,-0.0537 0.12517,-0.0296 0.33461,-0.10988 0.46546,-0.17886 0.13122,-0.0686 0.32359,-0.20838 0.42778,-0.31008 0.10418,-0.10205 0.2482,-0.27593 0.32038,-0.38687 0.0718,-0.11095 0.16855,-0.31896 0.21477,-0.46227 0.0647,-0.19948 0.0846,-0.33994 0.0846,-0.59845 0,-0.25851 -0.0199,-0.39897 -0.0846,-0.59845 -0.0462,-0.14331 -0.14294,-0.35133 -0.21477,-0.46227 -0.0722,-0.11094 -0.2162,-0.28482 -0.32038,-0.38688 -0.10419,-0.10169 -0.29656,-0.24144 -0.42778,-0.31007 -0.13085,-0.069 -0.34029,-0.14934 -0.46546,-0.17886 -0.20161,-0.0477 -2.98622,-0.0533 -24.49647,-0.0512 z m -0.0107,8.00007 c -11.383896,0.002 -14.304056,0.0121 -14.452431,0.048 -0.102052,0.0246 -0.294069,0.0981 -0.426704,0.16286 -0.16357,0.08 -0.321096,0.19877 -0.490709,0.36981 -0.140099,0.14116 -0.299761,0.34669 -0.363409,0.46795 -0.06223,0.11912 -0.137969,0.31043 -0.167835,0.42528 -0.02987,0.11485 -0.05441,0.34634 -0.05441,0.51418 0,0.16783 0.02453,0.39932 0.05441,0.51418 0.02987,0.11485 0.105608,0.30616 0.167835,0.42528 0.0633,0.12055 0.22402,0.32785 0.363409,0.46866 0.184905,0.18669 0.319318,0.28554 0.516668,0.3787 0.146859,0.0697 0.351321,0.14401 0.455151,0.16535 0.134765,0.0281 4.233593,0.0391 14.426205,0.0391 10.19261,0 14.29126,-0.011 14.42621,-0.0391 0.10383,-0.0214 0.30865,-0.0957 0.45515,-0.16535 0.19735,-0.0932 0.33176,-0.19201 0.51667,-0.3787 0.13938,-0.14081 0.30011,-0.34811 0.3634,-0.46866 0.0622,-0.11912 0.13797,-0.31043 0.16784,-0.42528 0.0299,-0.11486 0.0544,-0.34635 0.0544,-0.51418 0,-0.16784 -0.0246,-0.39933 -0.0544,-0.51418 -0.0299,-0.11485 -0.10561,-0.30616 -0.16784,-0.42528 -0.0633,-0.12055 -0.22402,-0.32785 -0.3634,-0.46866 -0.18491,-0.18669 -0.31932,-0.28554 -0.51667,-0.3787 -0.1465,-0.0697 -0.35132,-0.14402 -0.45515,-0.16535 -0.13513,-0.0281 -4.2304,-0.0384 -14.45435,-0.0359 z" fill="none" stroke="#000000" stroke-width="0.8" transform="matrix(2.5,0,0,2.5,6,6)" stroke-linecap="round" stroke-linejoin="round" stroke-dasharray="1164.762816 1164.762816" stroke-dashoffset="0" opacity="0"><animate attributeName="opacity" from="0" to="1" begin="0s" dur="0.75s" fill="freeze"/><animate attributeName="stroke-dashoffset" from="0" to="1164.762816" dur="3s" begin="0s" fill="freeze" calcMode="spline" keySplines="0.42 0 0.58 1"/></path></g><g id="fill-group"><path id="icon" d="m 100.14195,40.005879 c -19.234305,-0.0021 -35.027856,0.0021 -35.096288,0.0096 -0.06827,0.0071 -0.292291,0.03698 -0.497821,0.06649 -0.205172,0.02916 -0.557203,0.09423 -0.782291,0.144722 -0.224729,0.05014 -0.616943,0.159304 -0.871187,0.242867 -0.254245,0.08356 -0.622277,0.219754 -0.81785,0.302607 -0.195573,0.08249 -0.536936,0.246423 -0.758819,0.364118 -0.221532,0.117702 -0.589565,0.33745 -0.81785,0.488222 -0.227934,0.150766 -0.582452,0.408567 -0.787983,0.573563 -0.205172,0.164638 -0.557561,0.48324 -0.782674,0.708359 -0.225088,0.225088 -0.54369,0.577119 -0.70836,0.782675 -0.164989,0.205172 -0.423858,0.561469 -0.57605,0.791564 -0.152193,0.230063 -0.364118,0.582094 -0.471511,0.782291 -0.107386,0.200197 -0.270246,0.540134 -0.36234,0.755238 -0.09174,0.21513 -0.235046,0.599164 -0.318608,0.853408 -0.08356,0.254245 -0.192727,0.646132 -0.242867,0.871188 -0.05014,0.224729 -0.116634,0.57676 -0.147569,0.78229 -0.03094,0.205173 -0.07076,0.66922 -0.0889,1.031202 -0.0192,0.391855 -0.03236,20.784556 -0.03236,50.422327 0,29.63713 0.01316,50.03028 0.03236,50.42232 0.01814,0.36163 0.05796,0.82565 0.0889,1.03121 0.03093,0.20517 0.09708,0.55721 0.14721,0.78228 0.04978,0.22473 0.167836,0.64076 0.262425,0.92453 0.09459,0.28376 0.258868,0.70977 0.365896,0.94691 0.106676,0.23753 0.278426,0.58138 0.381546,0.76452 0.10312,0.18348 0.297273,0.49674 0.431328,0.69658 0.134055,0.19949 0.375502,0.5277 0.536578,0.72895 0.161082,0.20091 0.477554,0.54939 0.702987,0.77449 0.225439,0.22473 0.574272,0.54085 0.774808,0.70229 0.200907,0.16143 0.528756,0.40288 0.728249,0.53657 0.199839,0.13335 0.539424,0.34067 0.754535,0.46014 0.21513,0.11947 0.583162,0.30011 0.817849,0.4011 0.234688,0.10134 0.634723,0.25247 0.888967,0.33638 0.254245,0.0839 0.646452,0.19346 0.871188,0.24358 0.225087,0.0501 0.577118,0.11663 0.782291,0.14757 0.20553,0.0309 0.669539,0.0708 1.031201,0.0889 0.389009,0.0192 15.279997,0.0328 36.44764,0.0331 21.0116,0 35.99548,-0.0132 36.28775,-0.032 0.27381,-0.0178 0.66033,-0.0654 0.85911,-0.10596 0.19877,-0.0406 0.51097,-0.12232 0.69339,-0.18206 0.18277,-0.0593 0.50031,-0.18846 0.70548,-0.28625 0.20553,-0.0982 0.55756,-0.30011 0.78229,-0.44875 0.30439,-0.20127 0.52769,-0.38973 0.87298,-0.73573 0.33994,-0.34065 0.53729,-0.57534 0.73605,-0.87439 0.14935,-0.22509 0.35167,-0.57712 0.44982,-0.78229 0.0978,-0.20553 0.22686,-0.52271 0.28625,-0.70548 0.0597,-0.18242 0.14152,-0.49462 0.18241,-0.69339 0.0405,-0.19878 0.0882,-0.59311 0.10561,-0.87688 0.0185,-0.29975 0.0317,-22.20306 0.0317,-52.28915 0,-30.850991 -0.0135,-52.0391 -0.0328,-52.431141 -0.0181,-0.361989 -0.0579,-0.826036 -0.0889,-1.031202 -0.031,-0.20553 -0.0971,-0.557561 -0.14721,-0.782291 -0.0498,-0.225087 -0.16784,-0.641143 -0.26243,-0.924525 -0.0946,-0.28376 -0.25958,-0.711557 -0.36732,-0.950491 -0.10774,-0.239311 -0.27985,-0.58352 -0.38297,-0.764512 -0.10312,-0.181349 -0.2962,-0.493197 -0.42955,-0.69301 -0.13334,-0.199487 -0.37443,-0.527688 -0.53551,-0.728953 -0.16144,-0.200906 -0.47755,-0.550449 -0.70298,-0.776215 -0.22508,-0.226156 -0.57711,-0.544757 -0.78229,-0.708359 -0.20518,-0.16357 -0.56111,-0.422081 -0.79118,-0.574273 -0.23007,-0.152192 -0.5821,-0.364476 -0.78229,-0.471862 -0.19826,-0.117165 -0.55001,-0.284278 -0.77385,-0.381744 -0.23024,-0.0974 -0.59478,-0.235033 -0.81222,-0.30615 -0.22385,-0.07073 -0.5628,-0.168904 -0.76106,-0.217254 -0.19826,-0.04873 -0.5628,-0.123751 -0.80583,-0.167113 l -0.44448,-0.07859 z m 1.21788,3.977583 33.36312,0.01031 0.30225,0.06152 c 0.16641,0.03378 0.46404,0.108454 0.66173,0.166057 0.19771,0.05796 0.50778,0.169262 0.68911,0.247843 0.18135,0.07894 0.45907,0.218686 0.61659,0.311138 0.15788,0.09281 0.41568,0.263493 0.57321,0.379768 0.15752,0.115924 0.42812,0.348833 0.60165,0.516669 0.17353,0.168194 0.42493,0.44662 0.55898,0.618721 0.1337,0.172101 0.3243,0.447329 0.42315,0.611251 0.0992,0.163928 0.25034,0.456571 0.33639,0.650033 0.0857,0.193437 0.19593,0.486444 0.24535,0.651056 0.049,0.164638 0.1145,0.419235 0.14508,0.566093 0.031,0.146501 0.0718,0.410703 0.091,0.586718 0.0231,0.209438 0.0352,14.950632 0.0352,42.617326 0,27.666695 -0.0121,42.407555 -0.0352,42.617325 -0.0192,0.17602 -0.0601,0.43986 -0.091,0.58672 -0.0306,0.1465 -0.096,0.40145 -0.14508,0.56609 -0.0494,0.16464 -0.15965,0.45764 -0.24535,0.65106 -0.0861,0.19343 -0.23718,0.48608 -0.33639,0.65003 -0.0988,0.16392 -0.2898,0.43915 -0.42421,0.61125 -0.13406,0.1721 -0.37764,0.44306 -0.54085,0.60236 -0.16321,0.15931 -0.41426,0.3787 -0.55756,0.48822 -0.14295,0.10917 -0.39399,0.2795 -0.55756,0.37835 -0.16357,0.0988 -0.45586,0.24962 -0.64927,0.33567 -0.19344,0.0857 -0.48644,0.19593 -0.65106,0.24536 -0.16463,0.049 -0.41923,0.1145 -0.56609,0.14508 -0.1465,0.0309 -0.4107,0.0718 -0.58672,0.091 -0.20872,0.0231 -11.84052,0.0356 -33.46992,0.0356 l -33.147589,-0.006 V 43.96725 Z m 38.61698,98.029378 c 0.0146,-0.002 0.0267,1.34023 0.0267,2.98303 v 2.98667 H 71.783264 l -0.27487,0.0704 c -0.151483,0.0388 -0.357723,0.1145 -0.458707,0.1689 -0.101342,0.054 -0.297983,0.21051 -0.437372,0.34741 -0.159304,0.15646 -0.293001,0.32821 -0.359852,0.46226 -0.05867,0.11735 -0.135833,0.30118 -0.17175,0.40893 -0.04552,0.13583 -0.06543,0.29905 -0.06543,0.53338 3.55e-4,0.21797 0.02276,0.41355 0.06329,0.55116 0.03485,0.11734 0.11201,0.30118 0.17175,0.40892 0.05974,0.10739 0.170682,0.26989 0.246423,0.36092 0.07609,0.091 0.245713,0.23896 0.377632,0.32892 0.131925,0.0896 0.333893,0.19628 0.449459,0.23682 0.115207,0.0402 0.339227,0.0882 0.497821,0.10632 0.176016,0.0203 13.493749,0.0334 34.239932,0.0334 l 33.9515,3.6e-4 -0.0121,1.18232 -0.0125,1.18233 -0.0782,0.23362 c -0.043,0.12872 -0.1401,0.32856 -0.21584,0.44448 -0.0757,0.11593 -0.20019,0.27309 -0.27629,0.34919 -0.0761,0.0761 -0.23327,0.20055 -0.34919,0.27629 -0.11592,0.0757 -0.31576,0.17352 -0.44448,0.21691 l -0.23362,0.0796 -36.35875,0.009 c -32.698626,0.008 -36.401589,0.004 -36.785315,-0.0459 -0.234688,-0.0306 -0.554716,-0.0878 -0.711174,-0.12766 -0.156458,-0.0402 -0.436303,-0.12943 -0.622277,-0.19877 -0.185615,-0.0693 -0.449459,-0.1817 -0.58565,-0.25033 -0.136191,-0.0683 -0.352389,-0.18953 -0.480042,-0.26918 -0.127653,-0.0797 -0.356296,-0.2386 -0.508131,-0.3531 -0.151834,-0.1145 -0.41106,-0.34314 -0.57605,-0.50813 -0.16499,-0.165 -0.394701,-0.42457 -0.510625,-0.57677 -0.115924,-0.15218 -0.27629,-0.38403 -0.356655,-0.51524 -0.08037,-0.13157 -0.200548,-0.34705 -0.26669,-0.47933 -0.06649,-0.13264 -0.177435,-0.39293 -0.246775,-0.57854 -0.06934,-0.18597 -0.158594,-0.46582 -0.198418,-0.62228 -0.03982,-0.15646 -0.09743,-0.47329 -0.127653,-0.70407 -0.02987,-0.23077 -0.05476,-0.56361 -0.05476,-0.73925 0,-0.17566 0.01707,-0.47507 0.03805,-0.66494 0.02098,-0.18988 0.0697,-0.48929 0.108454,-0.66531 0.03876,-0.17602 0.11948,-0.46404 0.179213,-0.64006 0.05974,-0.17602 0.187393,-0.48218 0.283402,-0.68022 0.09637,-0.19806 0.264202,-0.49426 0.373366,-0.65783 0.109164,-0.16357 0.288383,-0.4075 0.398257,-0.54227 0.109522,-0.13442 0.343851,-0.37906 0.520576,-0.54369 0.176726,-0.165 0.465109,-0.40253 0.641144,-0.52876 0.176015,-0.12588 0.528046,-0.33247 0.782291,-0.45871 0.254244,-0.12623 0.613387,-0.27878 0.797575,-0.33887 0.184547,-0.0597 0.488574,-0.14437 0.675615,-0.18775 l 0.340295,-0.0786 34.811686,-0.0203 c 26.988141,-0.016 34.880111,-0.0302 35.114191,-0.0636 0.16641,-0.0239 0.45444,-0.0683 0.64005,-0.0992 0.18598,-0.031 0.54583,-0.10952 0.80007,-0.17459 0.25425,-0.0651 0.60414,-0.16855 0.77769,-0.23006 0.17353,-0.0619 0.48573,-0.1842 0.69339,-0.27239 0.20802,-0.0878 0.55828,-0.25709 0.77871,-0.37621 0.22047,-0.11876 0.58032,-0.33994 0.80007,-0.49106 0.21976,-0.15148 0.41142,-0.27701 0.426,-0.27914 z M 103.94487,49.950412 c -0.24037,0.0025 -0.55685,0.01814 -0.70369,0.03449 -0.1465,0.01671 -0.43453,0.0633 -0.64006,0.10383 -0.20517,0.04053 -0.56538,0.137611 -0.80007,0.21513 -0.23469,0.07787 -0.61872,0.235397 -0.85341,0.350253 -0.23468,0.114856 -0.57071,0.304027 -0.74673,0.419951 -0.17601,0.116275 -0.440216,0.306872 -0.587075,0.424216 -0.14721,0.116985 -0.395059,0.341005 -0.551159,0.497111 -0.156459,0.156458 -0.374434,0.395411 -0.484666,0.530893 -0.110232,0.135481 -0.289804,0.380119 -0.398967,0.543689 -0.109164,0.163212 -0.288026,0.472572 -0.397899,0.686999 -0.109522,0.21442 -0.260289,0.552579 -0.334962,0.75172 -0.07467,0.199129 -0.176725,0.529825 -0.227217,0.735349 -0.05049,0.205172 -0.115924,0.543338 -0.146149,0.751337 -0.03093,0.216198 -0.05405,0.619079 -0.0537,0.942304 3.56e-4,0.310429 0.02347,0.734645 0.0512,0.943392 0.02774,0.208377 0.09032,0.536227 0.139037,0.728953 0.04871,0.192375 0.139389,0.493908 0.201616,0.669923 0.06187,0.176016 0.188461,0.480042 0.280556,0.675615 0.09209,0.195573 0.25033,0.488574 0.351321,0.650736 0.100632,0.162502 0.275579,0.418173 0.388299,0.568229 0.113078,0.150057 0.355587,0.429902 0.539782,0.621919 0.184195,0.191659 0.47222,0.457997 0.640056,0.591694 0.167836,0.133703 0.444477,0.333541 0.614097,0.443773 0.16961,0.11059 0.49995,0.293359 0.73355,0.406789 0.23362,0.113078 0.56289,0.252825 0.73145,0.31007 l 0.30652,0.10383 v 3.319428 l -0.22225,-0.05085 c -0.12232,-0.02809 -0.36625,-0.09281 -0.54227,-0.143655 -0.17601,-0.0512 -0.49604,-0.161082 -0.71117,-0.244644 -0.21513,-0.08356 -0.51524,-0.209439 -0.667105,-0.279136 -0.151834,-0.07005 -0.407856,-0.202685 -0.568938,-0.295137 -0.161076,-0.09209 -0.421013,-0.249972 -0.577471,-0.350963 -0.156458,-0.100984 -0.468306,-0.351321 -0.693394,-0.556135 -0.224729,-0.204821 -0.570717,-0.555073 -0.768413,-0.77839 -0.197708,-0.223309 -0.489289,-0.579248 -0.648242,-0.790796 -0.158946,-0.211933 -0.379768,-0.531961 -0.49071,-0.711174 -0.11059,-0.179571 -0.294068,-0.464399 -0.407505,-0.633302 -0.113077,-0.168546 -0.337449,-0.472573 -0.498179,-0.675615 -0.160724,-0.202685 -0.509557,-0.586008 -0.775192,-0.852001 -0.262213,-0.264772 -0.647219,-0.615242 -0.853152,-0.778326 -0.204655,-0.163084 -0.56152,-0.42082 -0.791117,-0.573032 -0.230236,-0.152211 -0.583904,-0.36518 -0.78664,-0.473902 -0.201456,-0.108083 -0.532101,-0.269249 -0.734197,-0.357506 -0.201456,-0.08826 -0.567915,-0.230236 -0.8135,-0.315295 -0.246864,-0.0857 -0.647859,-0.205294 -0.892165,-0.265411 -0.244287,-0.06081 -0.644341,-0.142235 -0.888967,-0.181349 -0.244286,-0.03876 -0.6365,-0.08712 -0.871187,-0.107386 -0.234687,-0.01992 -0.794762,-0.03663 -1.244554,-0.03698 -0.449817,-3.55e-4 -1.049684,-0.01671 -1.33345,-0.03663 -0.283401,-0.01992 -0.747436,-0.06045 -1.031202,-0.09032 -0.283401,-0.03023 -0.773017,-0.09352 -1.087353,-0.140457 -0.314694,-0.04729 -0.818553,-0.135481 -1.120098,-0.19593 -0.301539,-0.06045 -0.777686,-0.166058 -1.057871,-0.233978 -0.280203,-0.06827 -0.752424,-0.194504 -1.048981,-0.280555 -0.296556,-0.08641 -0.774104,-0.236824 -1.061068,-0.33461 -0.286605,-0.09814 -0.782674,-0.280913 -1.102319,-0.406789 -0.319318,-0.125875 -0.7805,-0.320028 -1.025126,-0.432037 -0.244287,-0.111652 -0.613029,-0.273092 -0.819256,-0.358785 -0.20624,-0.0857 -0.502446,-0.189881 -0.657836,-0.231489 -0.175657,-0.0473 -0.438081,-0.0825 -0.691987,-0.09281 -0.30189,-0.0128 -0.47293,-0.0021 -0.653934,0.04018 -0.134413,0.03165 -0.358433,0.116276 -0.497821,0.188461 -0.169614,0.08819 -0.340654,0.219754 -0.519515,0.399677 -0.146501,0.147569 -0.320386,0.359501 -0.385812,0.471511 -0.06578,0.11201 -0.160372,0.304027 -0.210154,0.426704 -0.04978,0.122677 -0.120542,0.33532 -0.157526,0.47222 -0.03698,0.136901 -0.07609,0.432748 -0.08712,0.657836 -0.01422,0.293717 -0.0036,0.509199 0.03805,0.764511 0.032,0.195573 0.09956,0.539424 0.149705,0.764512 0.05014,0.224729 0.171391,0.656428 0.269178,0.958677 0.09814,0.302249 0.24962,0.717249 0.337097,0.921712 0.08748,0.20482 0.236824,0.527688 0.332474,0.717952 0.0953,0.190239 0.256381,0.487512 0.358075,0.66065 0.1017,0.173169 0.293359,0.474708 0.425994,0.670306 0.132635,0.195573 0.381546,0.531602 0.552937,0.746732 0.171392,0.21513 0.566803,0.645365 0.878287,0.956503 l 0.566802,0.565025 0.0096,0.608411 c 0.0061,0.3883 0.03663,0.791565 0.08498,1.116517 0.04125,0.279494 0.12161,0.687702 0.178504,0.906746 0.05653,0.219044 0.15397,0.54156 0.21584,0.716866 0.06223,0.175305 0.181707,0.47435 0.26598,0.664231 0.08427,0.18988 0.252824,0.518446 0.374434,0.73036 0.121609,0.211574 0.298335,0.496753 0.392923,0.633654 0.09459,0.136901 0.278778,0.382614 0.409993,0.546184 0.130857,0.163211 0.396479,0.454792 0.590632,0.647858 0.193795,0.193085 0.499599,0.468665 0.678813,0.612319 0.179571,0.144013 0.446619,0.341722 0.59312,0.439508 0.146858,0.09814 0.379058,0.243219 0.51631,0.322874 l 0.249269,0.144723 0.226866,0.865879 c 0.124813,0.476128 0.314336,1.137174 0.42137,1.469289 0.107034,0.332116 0.266332,0.772314 0.353451,0.977864 0.08748,0.205882 0.232199,0.509909 0.321448,0.676318 0.08925,0.166416 0.242157,0.42208 0.339943,0.568939 0.09743,0.1465 0.250331,0.36163 0.339585,0.477906 0.0889,0.115924 0.282692,0.332832 0.43026,0.48182 0.147569,0.148988 0.391856,0.368742 0.54227,0.488222 0.150766,0.119121 0.415327,0.304385 0.588138,0.411412 0.172818,0.106676 0.401103,0.238244 0.507421,0.29194 0.105966,0.05405 0.363766,0.166767 0.572853,0.250688 0.208728,0.08392 0.550449,0.201617 0.758436,0.260998 0.208376,0.05974 0.566092,0.147569 0.794761,0.195215 0.228996,0.04765 0.608054,0.11201 0.842728,0.142945 0.234688,0.03129 0.676319,0.07218 0.981445,0.09103 0.364119,0.02276 0.630099,0.0224 0.773401,-3.55e-4 0.12019,-0.01956 0.556852,-0.15539 0.970381,-0.302249 0.413191,-0.146859 1.077057,-0.37052 1.474982,-0.497111 0.397899,-0.126592 0.999928,-0.308293 1.337351,-0.40395 0.337808,-0.09565 0.934119,-0.254602 1.325264,-0.35345 0.391146,-0.09886 1.092342,-0.261356 1.558506,-0.360921 0.466177,-0.09992 1.271223,-0.252824 1.789318,-0.340295 0.517737,-0.08748 1.320659,-0.206598 1.784009,-0.264554 0.462973,-0.05796 1.098043,-0.128721 1.410963,-0.157526 0.31292,-0.02845 0.68489,-0.06187 0.82673,-0.07396 l 0.25781,-0.02205 v 3.020697 l -0.27558,0.02347 c -0.15148,0.0128 -0.5636,0.05512 -0.91563,0.09423 -0.35203,0.03876 -0.961497,0.124455 -1.354433,0.190239 -0.393282,0.06578 -0.972172,0.177435 -1.287211,0.247491 -0.314695,0.07041 -0.873298,0.214061 -1.240972,0.319669 -0.368033,0.105257 -0.884682,0.270246 -1.148878,0.366613 -0.263844,0.09637 -0.663911,0.252825 -0.888967,0.347407 -0.22473,0.09494 -0.618363,0.279494 -0.874001,0.410344 -0.256023,0.130858 -0.629031,0.339586 -0.829554,0.464399 -0.200548,0.124814 -0.535158,0.353809 -0.743918,0.508847 -0.208728,0.155039 -0.579606,0.48324 -0.823925,0.728953 -0.244645,0.245713 -0.548672,0.594898 -0.675615,0.775896 -0.127301,0.180991 -0.307224,0.477196 -0.400035,0.657835 -0.09281,0.180991 -0.225439,0.502797 -0.294779,0.715459 -0.06934,0.212284 -0.151124,0.548313 -0.181349,0.746732 -0.04018,0.262424 -0.05014,0.509557 -0.03663,0.911351 0.01458,0.424216 0.03947,0.634722 0.109164,0.913525 0.04978,0.199487 0.147211,0.503513 0.21655,0.675615 0.06934,0.172459 0.200197,0.441285 0.290871,0.597744 0.09068,0.156458 0.252467,0.4043 0.359853,0.551159 0.107034,0.1465 0.396479,0.467238 0.643254,0.712261 0.246774,0.244996 0.600941,0.560049 0.786575,0.699789 0.185973,0.140099 0.506002,0.360211 0.711174,0.488932 0.20553,0.129079 0.653934,0.375502 0.99673,0.547962 0.342783,0.172101 0.858716,0.405727 1.146767,0.519156 l 0.523781,0.205883 -0.349543,0.362698 c -0.192017,0.199487 -0.448398,0.510625 -0.569297,0.691603 -0.121258,0.180992 -0.282334,0.459775 -0.358433,0.619431 -0.07574,0.159656 -0.185615,0.426346 -0.243935,0.592762 -0.05867,0.166058 -0.132635,0.43026 -0.16499,0.586718 -0.03236,0.156458 -0.07432,0.432396 -0.09281,0.613387 -0.02631,0.251047 -0.02169,0.424217 0.01849,0.728953 0.02916,0.220106 0.09352,0.551869 0.143654,0.737139 0.04978,0.185615 0.147569,0.48182 0.216908,0.657837 0.06934,0.17637 0.214772,0.47898 0.323226,0.67203 0.108096,0.19309 0.313984,0.50707 0.457287,0.6973 0.143303,0.19024 0.420302,0.49782 0.615523,0.68342 0.195215,0.18561 0.4996,0.43665 0.676702,0.55791 0.177084,0.12126 0.44804,0.28767 0.601652,0.36981 l 0.279845,0.1497 -0.270604,0.3243 c -0.148636,0.1785 -0.348833,0.45622 -0.444125,0.61694 -0.0953,0.16108 -0.228644,0.42742 -0.295847,0.59205 -0.06685,0.16499 -0.162502,0.45515 -0.212284,0.64537 -0.07148,0.27273 -0.09423,0.4619 -0.107744,0.89677 -0.01493,0.47151 -0.0064,0.6052 0.05903,0.92452 0.04231,0.20517 0.139037,0.52947 0.215488,0.72045 0.07645,0.19095 0.204104,0.45871 0.283759,0.59525 0.07965,0.13619 0.238602,0.3723 0.353099,0.52413 0.114498,0.15184 0.366613,0.42955 0.56005,0.6173 0.193436,0.18775 0.486795,0.44093 0.651056,0.56325 0.164638,0.12197 0.449459,0.31008 0.632944,0.41817 0.183127,0.10775 0.484308,0.26669 0.668516,0.35274 0.184547,0.0861 0.48324,0.21193 0.663911,0.2795 0.18063,0.0676 0.43274,0.15468 0.55969,0.19343 0.1273,0.0391 0.43915,0.12055 0.69339,0.18064 0.25425,0.0601 0.49747,0.11699 0.54049,0.12588 l 0.0782,0.0167 0.0107,2.28464 0.0107,2.28427 0.0942,0.25815 c 0.0519,0.14224 0.14366,0.33426 0.20376,0.42671 0.0601,0.0928 0.15681,0.21868 0.21477,0.2802 0.0583,0.0615 0.17459,0.16748 0.25887,0.23575 0.0839,0.0683 0.23646,0.16642 0.33887,0.21762 0.10241,0.0512 0.28625,0.11699 0.40893,0.14579 0.12267,0.0292 0.33496,0.0526 0.47186,0.0526 0.1369,0 0.35132,-0.0242 0.47649,-0.0537 0.12516,-0.0295 0.33461,-0.10988 0.46546,-0.17886 0.13121,-0.0686 0.32323,-0.20802 0.4267,-0.30936 0.10348,-0.10134 0.24287,-0.26669 0.30972,-0.36732 0.0665,-0.10028 0.16428,-0.30083 0.21691,-0.4452 l 0.096,-0.26242 0.0107,-2.28426 0.0107,-2.28465 0.0782,-0.0178 c 0.043,-0.01 0.23042,-0.0505 0.41603,-0.0907 0.18597,-0.0405 0.50138,-0.1209 0.70088,-0.17886 0.19984,-0.0579 0.50386,-0.15931 0.67561,-0.22473 0.1721,-0.0658 0.46724,-0.19167 0.65643,-0.2802 0.18917,-0.0882 0.49392,-0.24892 0.67702,-0.35666 0.18348,-0.10809 0.46866,-0.2962 0.63401,-0.41817 0.16535,-0.12196 0.45835,-0.3755 0.65074,-0.56325 0.19273,-0.18775 0.44413,-0.46546 0.55898,-0.6173 0.11485,-0.15183 0.27381,-0.38794 0.35345,-0.52413 0.0797,-0.13654 0.20731,-0.4043 0.28376,-0.59525 0.0764,-0.19096 0.17175,-0.50956 0.21193,-0.70836 0.0498,-0.245 0.0733,-0.49782 0.0733,-0.78658 0,-0.23397 -0.0242,-0.5636 -0.0537,-0.73253 -0.0295,-0.1689 -0.10098,-0.45515 -0.15859,-0.63579 -0.0579,-0.18063 -0.17779,-0.47009 -0.26598,-0.64326 -0.0885,-0.17316 -0.23291,-0.41639 -0.32144,-0.54013 -0.0885,-0.1241 -0.2475,-0.32643 -0.35275,-0.44911 l -0.19166,-0.22331 0.28127,-0.15005 c 0.15468,-0.0829 0.42528,-0.24927 0.60129,-0.36981 0.17602,-0.12055 0.47436,-0.36519 0.66315,-0.54405 0.18882,-0.1785 0.45444,-0.46831 0.59027,-0.64396 0.13584,-0.17601 0.33141,-0.46404 0.43489,-0.64005 0.10383,-0.17637 0.25317,-0.47293 0.33211,-0.65854 0.0789,-0.18597 0.18526,-0.481825 0.23612,-0.657841 0.0508,-0.176015 0.11841,-0.46404 0.15005,-0.640056 0.0317,-0.176015 0.0562,-0.488222 0.0544,-0.693394 -0.002,-0.216198 -0.0328,-0.52449 -0.0736,-0.732854 -0.0391,-0.197351 -0.12019,-0.506711 -0.18064,-0.686615 -0.0604,-0.180281 -0.17353,-0.461195 -0.2514,-0.624765 -0.0782,-0.163211 -0.24073,-0.444841 -0.36198,-0.625832 -0.1209,-0.180991 -0.37658,-0.491778 -0.56823,-0.69058 l -0.34777,-0.361279 0.52307,-0.207308 c 0.28803,-0.113788 0.81926,-0.355945 1.18124,-0.537646 0.36199,-0.181708 0.87368,-0.473641 1.13788,-0.648562 0.2642,-0.175306 0.60876,-0.422439 0.7663,-0.54974 0.15753,-0.127301 0.46475,-0.416746 0.68271,-0.643638 0.23007,-0.239311 0.50102,-0.568938 0.64646,-0.786575 0.13796,-0.206241 0.31398,-0.506002 0.39149,-0.666725 0.0772,-0.160373 0.18135,-0.417457 0.23078,-0.570717 0.0498,-0.153261 0.11877,-0.409283 0.15326,-0.568939 0.0469,-0.217618 0.0622,-0.450175 0.0618,-0.930217 -6.4e-4,-0.481462 -0.0167,-0.712965 -0.0647,-0.934119 -0.0352,-0.161792 -0.10917,-0.428124 -0.16463,-0.592052 -0.0555,-0.163928 -0.16713,-0.429902 -0.24856,-0.590632 -0.0811,-0.161082 -0.20482,-0.382614 -0.27487,-0.492488 -0.0704,-0.109874 -0.20126,-0.295847 -0.29123,-0.41319 -0.0896,-0.117344 -0.29051,-0.345987 -0.4459,-0.508489 -0.15539,-0.16215 -0.41177,-0.403949 -0.5693,-0.537646 -0.15787,-0.133345 -0.46297,-0.362699 -0.6781,-0.509557 -0.21513,-0.146501 -0.56681,-0.367674 -0.78191,-0.491068 -0.21478,-0.123387 -0.58281,-0.315053 -0.81785,-0.426346 -0.23469,-0.110942 -0.61908,-0.278068 -0.85379,-0.370878 -0.23469,-0.09316 -0.68451,-0.254603 -0.99955,-0.359143 -0.3154,-0.10454 -0.88327,-0.269888 -1.26233,-0.367322 -0.37941,-0.09779 -0.9416,-0.226156 -1.24954,-0.285889 -0.30794,-0.05974 -0.81996,-0.148279 -1.13826,-0.196641 -0.31789,-0.048 -0.89357,-0.12019 -1.27903,-0.159656 -0.38581,-0.03982 -0.73356,-0.07218 -0.7734,-0.07218 h -0.0718 v -3.028499 l 0.27558,0.02276 c 0.15149,0.0128 0.60379,0.05512 1.00454,0.09423 0.4011,0.03947 1.03081,0.11059 1.39958,0.158594 0.36874,0.048 1.08882,0.157878 1.60014,0.244287 0.51132,0.08641 1.27371,0.229712 1.69402,0.31825 0.4203,0.0889 1.11652,0.248911 1.5468,0.355587 0.43026,0.106676 1.14389,0.298335 1.58627,0.425636 0.44234,0.127653 1.16243,0.350963 1.60014,0.496753 0.43772,0.145791 1.06036,0.358075 1.38288,0.471863 l 0.58672,0.206598 0.4676,-0.0061 c 0.25744,-0.0032 0.64146,-0.02311 0.85341,-0.04445 0.21228,-0.02098 0.554,-0.06259 0.7592,-0.09209 0.20553,-0.02952 0.55756,-0.09459 0.78229,-0.144371 0.22473,-0.04978 0.63188,-0.16357 0.90464,-0.252825 0.28874,-0.09423 0.71226,-0.271314 1.01342,-0.423148 0.28482,-0.143303 0.66851,-0.368742 0.85302,-0.500667 0.18455,-0.132277 0.47044,-0.367675 0.63508,-0.523423 0.16499,-0.155748 0.39292,-0.397547 0.50742,-0.537294 0.11414,-0.139747 0.2962,-0.386521 0.40466,-0.548672 0.10845,-0.16215 0.29158,-0.4804 0.40679,-0.707272 0.11521,-0.227217 0.28269,-0.598095 0.37159,-0.824245 0.0892,-0.226507 0.23291,-0.650352 0.31967,-0.942305 0.0864,-0.291939 0.25105,-0.887879 0.3659,-1.324176 l 0.20837,-0.793291 0.19593,-0.110942 c 0.1081,-0.06116 0.3595,-0.220106 0.55863,-0.353099 0.19948,-0.132987 0.51133,-0.365545 0.69339,-0.517021 0.18207,-0.151124 0.47933,-0.426346 0.66033,-0.611609 0.18099,-0.184905 0.45657,-0.499241 0.61232,-0.697999 0.1561,-0.199128 0.38296,-0.520224 0.50457,-0.713667 0.12161,-0.193437 0.31328,-0.53338 0.42529,-0.755238 0.11236,-0.222242 0.27807,-0.60414 0.36838,-0.849124 0.0903,-0.245355 0.21087,-0.6269 0.26776,-0.848419 0.0572,-0.221174 0.13761,-0.631167 0.17886,-0.910648 0.0473,-0.320738 0.0786,-0.732854 0.0846,-1.116517 l 0.01,-0.608053 0.5668,-0.565383 c 0.31185,-0.311138 0.70727,-0.741424 0.87867,-0.956503 0.17139,-0.21513 0.4203,-0.551159 0.55294,-0.746732 0.13263,-0.195572 0.32429,-0.497111 0.42599,-0.670306 0.1017,-0.17317 0.26207,-0.469017 0.35665,-0.657836 0.0946,-0.188819 0.24002,-0.503155 0.32323,-0.698702 0.0836,-0.195573 0.23611,-0.611609 0.33923,-0.924526 0.10312,-0.312916 0.23576,-0.792971 0.29514,-1.06676 0.059,-0.273802 0.12659,-0.632586 0.15041,-0.797256 0.026,-0.181349 0.0342,-0.448039 0.021,-0.675615 -0.0121,-0.20695 -0.0519,-0.488222 -0.0885,-0.625123 -0.0366,-0.1369 -0.10738,-0.349543 -0.15717,-0.47222 -0.0497,-0.122677 -0.14437,-0.313626 -0.21015,-0.423858 -0.0654,-0.110232 -0.21229,-0.301181 -0.32643,-0.424216 -0.11379,-0.123036 -0.30829,-0.287667 -0.43239,-0.365897 -0.12375,-0.07823 -0.32679,-0.178503 -0.45053,-0.222599 -0.19237,-0.06827 -0.2987,-0.08037 -0.72327,-0.08143 -0.4107,-7.04e-4 -0.5508,0.01315 -0.80007,0.08072 -0.16605,0.04516 -0.47008,0.151482 -0.67561,0.236465 -0.20517,0.08463 -0.5732,0.245713 -0.81785,0.357365 -0.24429,0.112009 -0.74034,0.319318 -1.10232,0.461194 -0.36163,0.141877 -0.92983,0.347407 -1.26233,0.456571 -0.33247,0.109164 -0.77232,0.246423 -0.97786,0.305095 -0.20518,0.05831 -0.56539,0.154322 -0.80008,0.212994 -0.23468,0.05867 -0.65853,0.154322 -0.9423,0.212642 -0.2834,0.05867 -0.76342,0.146858 -1.06676,0.195931 -0.30296,0.04942 -0.7592,0.114146 -1.01342,0.14437 -0.25425,0.03022 -0.64645,0.07183 -0.87119,0.09281 -0.22473,0.02098 -1.04898,0.05227 -1.83127,0.06934 -1.14216,0.02525 -1.52052,0.04587 -1.92017,0.105966 -0.2738,0.04089 -0.69128,0.120899 -0.92772,0.177793 -0.23647,0.05725 -0.61055,0.16215 -0.83103,0.233267 -0.22046,0.07112 -0.56929,0.200197 -0.77551,0.286606 -0.20624,0.08641 -0.5892,0.268468 -0.8513,0.404301 -0.26206,0.136191 -0.63967,0.354167 -0.83921,0.484666 -0.19913,0.130147 -0.49035,0.333541 -0.64683,0.451595 -0.15646,0.118412 -0.46085,0.370168 -0.67632,0.559339 -0.21549,0.189529 -0.52911,0.494976 -0.69698,0.678813 -0.16783,0.183485 -0.41354,0.469732 -0.54618,0.636142 -0.13228,0.166058 -0.37692,0.510267 -0.54334,0.764511 -0.16641,0.254245 -0.39256,0.598096 -0.50208,0.764512 -0.10953,0.166058 -0.3531,0.494265 -0.54121,0.728953 -0.1881,0.234687 -0.53231,0.616233 -0.76489,0.8481 -0.23255,0.231489 -0.5668,0.538004 -0.74283,0.680923 -0.17602,0.142592 -0.46404,0.350611 -0.64006,0.461904 -0.17601,0.110942 -0.54405,0.311497 -0.81785,0.445193 -0.2738,0.133704 -0.70586,0.314337 -0.96047,0.401455 -0.25424,0.08712 -0.60627,0.193437 -0.78229,0.236107 -0.17565,0.04303 -0.34776,0.08605 -0.38189,0.09601 l -0.0622,0.01742 v -3.330748 l 0.30865,-0.10454 c 0.16961,-0.0576 0.50956,-0.203394 0.75562,-0.323584 0.24571,-0.120541 0.59098,-0.314694 0.76701,-0.431328 0.17601,-0.116633 0.44092,-0.30936 0.58849,-0.428482 0.14793,-0.119479 0.41995,-0.374434 0.6045,-0.56716 0.1849,-0.192375 0.42812,-0.472931 0.5412,-0.622987 0.11272,-0.150056 0.28767,-0.405727 0.3883,-0.568229 0.10099,-0.16215 0.25923,-0.455151 0.35132,-0.650737 0.0921,-0.195572 0.21727,-0.496753 0.27807,-0.669219 0.0608,-0.172459 0.14366,-0.444483 0.18455,-0.604497 0.0409,-0.160014 0.0985,-0.418883 0.12801,-0.575341 0.0292,-0.156458 0.0618,-0.573914 0.0725,-0.928107 0.0118,-0.393281 0.003,-0.78018 -0.0224,-0.995643 -0.0228,-0.193436 -0.0722,-0.504575 -0.11024,-0.691283 -0.038,-0.186325 -0.12658,-0.514533 -0.19699,-0.728953 -0.0701,-0.21442 -0.21442,-0.571785 -0.32074,-0.793995 -0.10632,-0.2226 -0.26704,-0.526626 -0.35736,-0.675231 -0.0907,-0.148988 -0.24891,-0.382965 -0.35239,-0.520224 -0.10347,-0.136901 -0.29336,-0.369453 -0.42244,-0.515959 -0.12907,-0.146859 -0.37443,-0.391504 -0.54547,-0.544048 -0.17103,-0.152192 -0.50315,-0.406789 -0.73784,-0.565383 -0.23468,-0.158946 -0.61872,-0.381546 -0.85341,-0.494975 -0.23468,-0.113788 -0.61872,-0.270246 -0.8534,-0.348117 -0.23469,-0.07787 -0.58672,-0.173528 -0.78229,-0.212642 -0.19558,-0.03911 -0.51098,-0.08783 -0.70088,-0.108454 -0.18988,-0.02063 -0.54191,-0.03556 -0.78229,-0.03307 z m -1.95714,35.095644 c 0.005,-0.0021 0.009,1.493848 0.009,3.324352 v 3.328318 l -0.22224,-0.02347 c -0.12232,-0.0128 -0.47435,-0.05441 -0.78267,-0.09316 -0.30829,-0.0384 -0.82853,-0.118764 -1.155659,-0.178862 -0.327498,-0.05974 -0.8481,-0.172459 -1.157447,-0.249978 -0.309003,-0.07752 -0.797257,-0.218328 -1.08454,-0.312559 -0.287315,-0.09423 -0.674208,-0.231489 -0.860187,-0.305094 -0.185615,-0.07325 -0.545826,-0.236824 -0.80007,-0.363409 -0.254245,-0.126233 -0.615875,-0.330337 -0.803972,-0.453373 -0.188103,-0.123035 -0.454793,-0.330337 -0.59312,-0.460843 -0.13832,-0.130499 -0.299761,-0.312558 -0.358432,-0.4043 -0.05903,-0.09174 -0.125876,-0.238953 -0.148989,-0.326782 -0.032,-0.1209 -0.03236,-0.196283 -0.0018,-0.307941 0.02205,-0.08107 0.105966,-0.246065 0.186324,-0.365896 0.08001,-0.12019 0.259937,-0.315052 0.399677,-0.433106 0.139389,-0.118053 0.383324,-0.300113 0.54227,-0.405369 0.158594,-0.104898 0.496044,-0.294779 0.74993,-0.421728 0.253886,-0.127302 0.619789,-0.294069 0.813565,-0.37123 0.193794,-0.07681 0.552579,-0.206599 0.796872,-0.288735 0.244645,-0.08178 0.684504,-0.211216 0.977863,-0.287316 0.29336,-0.07645 0.773402,-0.186683 1.066761,-0.244996 0.293359,-0.05831 0.757414,-0.139389 1.031204,-0.17993 0.2738,-0.04089 0.698,-0.09601 0.9423,-0.122319 0.24465,-0.02667 0.4484,-0.05014 0.45338,-0.05227 z m 4.16037,0.02276 c 0.0733,0.0068 0.34954,0.03663 0.61339,0.06649 0.2642,0.02987 0.75703,0.100633 1.09522,0.157168 0.33851,0.05689 0.86658,0.161434 1.17343,0.232552 0.30723,0.07112 0.79048,0.199128 1.07386,0.284469 0.28376,0.08534 0.69979,0.225797 0.92453,0.311496 0.22473,0.08605 0.55471,0.222242 0.73285,0.302959 0.17815,0.08072 0.45835,0.220464 0.62228,0.31078 0.16428,0.08996 0.43381,0.254245 0.59916,0.364477 0.16535,0.11059 0.41354,0.312916 0.55116,0.449817 0.13761,0.136901 0.29763,0.336739 0.35559,0.444483 0.0761,0.141877 0.10525,0.244287 0.10525,0.373366 0,0.114498 -0.0303,0.24109 -0.0846,0.355587 -0.0498,0.10383 -0.20447,0.297983 -0.3723,0.466529 -0.16179,0.162502 -0.44235,0.390077 -0.64287,0.521292 -0.19557,0.128012 -0.55151,0.331054 -0.7908,0.450886 -0.23931,0.119831 -0.63152,0.295137 -0.87119,0.389725 -0.23966,0.09494 -0.61445,0.229712 -0.83281,0.300113 -0.21869,0.07041 -0.61054,0.184195 -0.87119,0.252467 -0.26064,0.06863 -0.66602,0.163928 -0.90073,0.212284 -0.23469,0.048 -0.61872,0.120189 -0.85341,0.160014 -0.23469,0.03982 -0.6987,0.10454 -1.0312,0.144012 -0.33248,0.03911 -0.63259,0.07148 -0.66673,0.07183 h -0.0622 v -6.635274 z m -4.17814,10.893361 c 0.0146,-0.0021 0.0267,1.03651 0.0267,2.307732 0,1.694026 -0.0107,2.311321 -0.0402,2.311321 -0.0221,0 -0.22615,-0.0416 -0.45337,-0.0924 -0.22722,-0.0505 -0.62868,-0.16286 -0.89217,-0.24927 -0.26349,-0.0864 -0.66314,-0.246073 -0.88858,-0.354175 -0.230875,-0.108083 -0.567915,-0.298667 -0.755302,-0.423379 -0.187386,-0.124711 -0.445123,-0.337679 -0.572392,-0.472623 -0.127909,-0.135583 -0.26669,-0.317854 -0.30954,-0.404832 -0.04221,-0.08762 -0.07675,-0.226398 -0.07675,-0.3089 0,-0.08854 0.03556,-0.220105 0.08712,-0.321447 0.04765,-0.09459 0.165706,-0.258159 0.262066,-0.363409 0.09637,-0.105256 0.301181,-0.281981 0.455151,-0.392213 0.154322,-0.11059 0.409635,-0.272024 0.567519,-0.358785 0.157878,-0.08712 0.441995,-0.224377 0.630808,-0.305446 0.18918,-0.08107 0.5533,-0.211932 0.80935,-0.290513 0.25566,-0.07859 0.61196,-0.17317 0.79118,-0.210506 0.17921,-0.03698 0.33816,-0.06898 0.35274,-0.07076 z m 4.07146,-0.0032 c 0.0146,0 0.20269,0.04018 0.41782,0.08854 0.21513,0.04871 0.57249,0.145432 0.79438,0.21513 0.22189,0.0697 0.56574,0.196283 0.76451,0.281272 0.19877,0.08498 0.48147,0.222599 0.62797,0.305446 0.14685,0.08285 0.36269,0.215488 0.48004,0.294427 0.11734,0.07894 0.32145,0.250689 0.45337,0.381898 0.14401,0.143654 0.27522,0.314694 0.32856,0.429192 0.0487,0.104898 0.0885,0.253534 0.0889,0.330337 3.6e-4,0.07716 -0.0342,0.211574 -0.0765,0.299051 -0.0427,0.08748 -0.18135,0.269536 -0.30901,0.405011 -0.12765,0.135123 -0.3851,0.347765 -0.57249,0.472572 -0.18739,0.124456 -0.52485,0.315053 -0.74993,0.423507 -0.22545,0.108095 -0.62512,0.26775 -0.88858,0.35416 -0.26349,0.0864 -0.66494,0.19877 -0.89217,0.24926 -0.22722,0.0508 -0.43133,0.0925 -0.45337,0.0925 -0.0295,0 -0.0402,-0.6173 -0.0402,-2.311312 0,-1.271223 0.0121,-2.311314 0.0267,-2.31093 z m -4.07146,9.104553 c 0.0146,-0.001 0.0267,0.59027 0.0267,1.31388 0,0.72364 -0.007,1.31567 -0.015,1.31567 -0.008,0 -0.15611,-0.0498 -0.32892,-0.11094 -0.17282,-0.0608 -0.44199,-0.17495 -0.59845,-0.25354 -0.15646,-0.0786 -0.3723,-0.20268 -0.48004,-0.27593 -0.10739,-0.0729 -0.27096,-0.21336 -0.36306,-0.3122 -0.0921,-0.0985 -0.17779,-0.22047 -0.19059,-0.27097 -0.0125,-0.0508 -0.0125,-0.13334 0,-0.18418 0.0128,-0.0505 0.0985,-0.17246 0.19059,-0.27097 0.0921,-0.0988 0.25567,-0.2393 0.36306,-0.3122 0.10774,-0.0733 0.31576,-0.19379 0.46226,-0.26775 0.14686,-0.0743 0.4107,-0.18776 0.58672,-0.25212 0.17601,-0.0644 0.33211,-0.11769 0.34669,-0.11876 z m 4.0597,-0.002 c 0.008,0 0.1561,0.0498 0.32891,0.11094 0.17282,0.0608 0.442,0.17495 0.59846,0.25354 0.15646,0.0786 0.37265,0.20268 0.48004,0.27594 0.10774,0.0729 0.27096,0.21335 0.36306,0.3122 0.0921,0.0985 0.17779,0.22046 0.19059,0.27096 0.0125,0.0508 0.0125,0.13334 0,0.18419 -0.0128,0.0505 -0.0985,0.17246 -0.19059,0.27096 -0.0921,0.0988 -0.25532,0.2393 -0.36306,0.3122 -0.10739,0.0733 -0.32358,0.19735 -0.48004,0.27594 -0.15646,0.0786 -0.42564,0.19272 -0.59846,0.25353 -0.17281,0.0611 -0.32073,0.11094 -0.32891,0.11094 -0.008,0 -0.015,-0.59205 -0.015,-1.31567 0,-0.72362 0.007,-1.31567 0.015,-1.31567 z m -2.04181,16.92938 c -20.577348,0.002 -24.299497,0.01 -24.472813,0.0516 -0.11201,0.0274 -0.288026,0.0917 -0.391146,0.14366 -0.10312,0.0519 -0.256732,0.15041 -0.341721,0.2194 -0.08498,0.069 -0.194505,0.16712 -0.243935,0.21797 -0.04907,0.0512 -0.149347,0.18348 -0.2226,0.29442 -0.07325,0.11095 -0.17104,0.31896 -0.217266,0.46227 -0.06472,0.19948 -0.08463,0.33994 -0.08463,0.59845 0,0.25851 0.01991,0.39897 0.08463,0.59845 0.04623,0.14331 0.144013,0.35133 0.217266,0.46227 0.07325,0.11094 0.173528,0.24322 0.2226,0.29442 0.04942,0.0508 0.158946,0.14899 0.243935,0.21797 0.08498,0.069 0.237885,0.16749 0.340295,0.21869 0.10241,0.0512 0.286247,0.11699 0.408925,0.14579 0.195573,0.0462 3.201687,0.0526 24.47409,0.0526 21.48869,0 24.27711,-0.006 24.47856,-0.0537 0.12517,-0.0296 0.33461,-0.10988 0.46546,-0.17886 0.13122,-0.0686 0.32359,-0.20838 0.42778,-0.31008 0.10418,-0.10205 0.2482,-0.27593 0.32038,-0.38687 0.0718,-0.11095 0.16855,-0.31896 0.21477,-0.46227 0.0647,-0.19948 0.0846,-0.33994 0.0846,-0.59845 0,-0.25851 -0.0199,-0.39897 -0.0846,-0.59845 -0.0462,-0.14331 -0.14294,-0.35133 -0.21477,-0.46227 -0.0722,-0.11094 -0.2162,-0.28482 -0.32038,-0.38688 -0.10419,-0.10169 -0.29656,-0.24144 -0.42778,-0.31007 -0.13085,-0.069 -0.34029,-0.14934 -0.46546,-0.17886 -0.20161,-0.0477 -2.98622,-0.0533 -24.49647,-0.0512 z m -0.0107,8.00007 c -11.383896,0.002 -14.304056,0.0121 -14.452431,0.048 -0.102052,0.0246 -0.294069,0.0981 -0.426704,0.16286 -0.16357,0.08 -0.321096,0.19877 -0.490709,0.36981 -0.140099,0.14116 -0.299761,0.34669 -0.363409,0.46795 -0.06223,0.11912 -0.137969,0.31043 -0.167835,0.42528 -0.02987,0.11485 -0.05441,0.34634 -0.05441,0.51418 0,0.16783 0.02453,0.39932 0.05441,0.51418 0.02987,0.11485 0.105608,0.30616 0.167835,0.42528 0.0633,0.12055 0.22402,0.32785 0.363409,0.46866 0.184905,0.18669 0.319318,0.28554 0.516668,0.3787 0.146859,0.0697 0.351321,0.14401 0.455151,0.16535 0.134765,0.0281 4.233593,0.0391 14.426205,0.0391 10.19261,0 14.29126,-0.011 14.42621,-0.0391 0.10383,-0.0214 0.30865,-0.0957 0.45515,-0.16535 0.19735,-0.0932 0.33176,-0.19201 0.51667,-0.3787 0.13938,-0.14081 0.30011,-0.34811 0.3634,-0.46866 0.0622,-0.11912 0.13797,-0.31043 0.16784,-0.42528 0.0299,-0.11486 0.0544,-0.34635 0.0544,-0.51418 0,-0.16784 -0.0246,-0.39933 -0.0544,-0.51418 -0.0299,-0.11485 -0.10561,-0.30616 -0.16784,-0.42528 -0.0633,-0.12055 -0.22402,-0.32785 -0.3634,-0.46866 -0.18491,-0.18669 -0.31932,-0.28554 -0.51667,-0.3787 -0.1465,-0.0697 -0.35132,-0.14402 -0.45515,-0.16535 -0.13513,-0.0281 -4.2304,-0.0384 -14.45435,-0.0359 z" fill="#000000" stroke="none" stroke-width="0.63954449" transform="matrix(2.5,0,0,2.5,6,6)" opacity="1"><animate attributeName="opacity" fill="freeze" dur="1.5s" from="1" to="0" begin="0s"/></path></g></svg>